<svg viewBox="0 0 226.54 230.16" xmlns="http://www.w3.org/2000/svg" xmlns:xlink="http://www.w3.org/1999/xlink"><linearGradient id="a" gradientUnits="userSpaceOnUse" x1="22.23" x2="92.72" y1="67.95" y2="67.95"><stop offset="0" stop-color="#85be43"/><stop offset=".08" stop-color="#87be43"/><stop offset="1" stop-color="#3caa49"/></linearGradient><linearGradient id="b" x1="31.29" x2="101.77" xlink:href="#a" y1="67.95" y2="67.95"/><linearGradient id="c" x1="40.34" x2="110.83" xlink:href="#a" y1="67.95" y2="67.95"/><linearGradient id="d" gradientUnits="userSpaceOnUse" x1="133.82" x2="204.31" y1="67.95" y2="67.95"><stop offset="0" stop-color="#3caa49"/><stop offset=".92" stop-color="#87be43"/><stop offset="1" stop-color="#85be43"/></linearGradient><linearGradient id="e" x1="124.76" x2="195.25" xlink:href="#d" y1="67.95" y2="67.95"/><linearGradient id="f" x1="115.71" x2="186.2" xlink:href="#d" y1="67.95" y2="67.95"/><path d="m92.72 117.09c-70.49 0-70.49 0-70.49-98.29 70.49 0 70.49 0 70.49 98.29z" fill="url(#a)" opacity=".33"/><path d="m101.77 117.09c-70.48 0-70.48 0-70.48-98.29 70.48 0 70.48 0 70.48 98.29z" fill="url(#b)" opacity=".66"/><path d="m110.83 117.09c-70.49 0-70.49 0-70.49-98.29 70.49 0 70.49 0 70.49 98.29z" fill="url(#c)"/><path d="m133.82 117.09c70.49 0 70.49 0 70.49-98.29-70.49 0-70.49 0-70.49 98.29z" fill="url(#d)" opacity=".33"/><path d="m124.76 117.09c70.49 0 70.49 0 70.49-98.29-70.49 0-70.49 0-70.49 98.29z" fill="url(#e)" opacity=".66"/><path d="m115.71 117.09c70.49 0 70.49 0 70.49-98.29-70.49 0-70.49 0-70.49 98.29z" fill="url(#f)"/><g fill="#0e1031"><path d="m68.12 182.64h-20.62l-3.94 7.66h-15.14l29.36-54.74 29.45 54.65h-15.14zm-5.32-10.26-5-9.58-5 9.6z"/><path d="m103.88 144.1v46.07c-7.21 0-13.06-3.92-13.07-8.77v-46.07c7.19-.01 13.07 3.92 13.07 8.77z"/><path d="m156.51 174.55c0 14.47-15.71 15.76-15.71 15.76h-29.7l-.1-54.65h25.33s12.46 0 15.59 10.66a15.74 15.74 0 0 1 -2.17 13.39s6.74 2.97 6.76 14.84zm-32.33-16.55h11.69a6.1 6.1 0 1 0 0-12.2h-11.69zm16 10h-16v12.2h16a6 6 0 0 0 6.05-6.07 6.12 6.12 0 0 0 -6.05-6.13z"/><path d="m183.9 148.53.1 41.57h-13.13l-.06-41.57h-14.22v-13.12l41.56-.07v13.13z"/><text font-family="WorkSans-Regular, Work Sans" font-size="12" transform="translate(21.27 214.9)">R<tspan letter-spacing="0em" x="7.98" y="0">T</tspan><tspan letter-spacing=".02em" x="15.2" y="0">O: </tspan><tspan letter-spacing="0em" x="32.54" y="0">4</tspan><tspan letter-spacing=".02em" x="39.92" xml:space="preserve" y="0">1138  |  CRICOS: </tspan><tspan x="139.8" y="0">0</tspan><tspan letter-spacing=".02em" x="147.26" y="0">3430J</tspan></text></g></svg>