<?xml version="1.0" encoding="UTF-8" standalone="no"?>
<!-- Created with Inkscape (http://www.inkscape.org/) -->

<svg
   version="1.1"
   id="svg2"
   xml:space="preserve"
   width="465.01334"
   height="150.99333"
   viewBox="0 0 465.01334 150.99333"
   sodipodi:docname="AVTA Shortened Landscape CRICOS.ai"
   xmlns:inkscape="http://www.inkscape.org/namespaces/inkscape"
   xmlns:sodipodi="http://sodipodi.sourceforge.net/DTD/sodipodi-0.dtd"
   xmlns="http://www.w3.org/2000/svg"
   xmlns:svg="http://www.w3.org/2000/svg"><defs
     id="defs6"><clipPath
       clipPathUnits="userSpaceOnUse"
       id="clipPath20"><path
         d="M 0,113.245 H 348.76 V 0 H 0 Z"
         id="path18" /></clipPath></defs><sodipodi:namedview
     id="namedview4"
     pagecolor="#ffffff"
     bordercolor="#666666"
     borderopacity="1.0"
     inkscape:pageshadow="2"
     inkscape:pageopacity="0.0"
     inkscape:pagecheckerboard="0" /><g
     id="g8"
     inkscape:groupmode="layer"
     inkscape:label="AVTA Shortened Landscape CRICOS"
     transform="matrix(1.3333333,0,0,-1.3333333,0,150.99333)"><text
       transform="matrix(1,0,0,-1,126.0674,5.9932)"
       style="font-variant:normal;font-weight:normal;font-stretch:normal;font-size:13px;font-family:Rubik;-inkscape-font-specification:Rubik-Regular;writing-mode:lr-tb;fill:#231f20;fill-opacity:1;fill-rule:nonzero;stroke:none"
       id="text12"><tspan
         x="0 9.0740004 17.069 26.533001 30.381001 39.117001 47.501999 56.432999 63.764999 72.137001 75.985001 79.677002 83.525002 92.846001 102.024 106.236 115.557 125.021 133.77 137.618 146.536 155.272 164.19 172.666 181.40199"
         y="0"
         sodipodi:role="line"
         id="tspan10">RTO 45879 | CRICOS 04034B</tspan></text><g
       id="g14"><g
         id="g16"
         clip-path="url(#clipPath20)"><g
           id="g22"
           transform="translate(166.0963,51.3372)"><path
             d="M 0,0 -9.337,24.2 -18.673,0 Z m -4.668,37.276 c 0.904,0 1.584,-0.241 2.037,-0.721 0.452,-0.483 0.849,-1.204 1.188,-2.167 l 20.796,-53.665 c 0.055,-0.17 0.084,-0.369 0.084,-0.594 0,-0.624 -0.227,-1.16 -0.679,-1.613 -0.454,-0.454 -0.99,-0.679 -1.612,-0.679 h -6.112 c -1.133,0 -1.924,0.239 -2.376,0.721 -0.454,0.481 -0.764,0.947 -0.934,1.402 l -3.649,9.426 h -26.822 l -3.65,-9.426 c -0.169,-0.455 -0.481,-0.921 -0.933,-1.402 -0.454,-0.482 -1.246,-0.721 -2.377,-0.721 h -6.111 c -0.624,0 -1.161,0.225 -1.613,0.679 -0.453,0.453 -0.678,0.989 -0.678,1.613 0,0.225 0.028,0.424 0.084,0.594 l 20.795,53.665 c 0.34,0.963 0.735,1.684 1.189,2.167 0.451,0.48 1.131,0.721 2.036,0.721 z"
             style="fill:#231f20;fill-opacity:1;fill-rule:nonzero;stroke:none"
             id="path24" /></g><g
           id="g26"
           transform="translate(212.1843,45.9872)"><path
             d="m 0,0 14.26,40.504 c 0.169,0.452 0.466,0.918 0.89,1.401 0.425,0.48 1.061,0.721 1.91,0.721 h 6.452 c 0.621,0 1.158,-0.227 1.612,-0.679 0.452,-0.455 0.679,-0.991 0.679,-1.613 v -0.297 c 0,-0.086 -0.057,-0.271 -0.169,-0.552 L 6.621,-13.927 C 6.281,-14.89 5.885,-15.611 5.432,-16.092 4.979,-16.574 4.3,-16.813 3.395,-16.813 h -6.79 c -0.906,0 -1.585,0.239 -2.036,0.721 -0.455,0.481 -0.849,1.202 -1.189,2.165 l -19.013,53.412 c -0.113,0.281 -0.169,0.466 -0.169,0.552 v 0.297 c 0,0.622 0.225,1.158 0.678,1.613 0.453,0.452 0.99,0.679 1.613,0.679 h 6.451 c 0.849,0 1.485,-0.241 1.91,-0.721 0.424,-0.483 0.721,-0.949 0.891,-1.401 z"
             style="fill:#231f20;fill-opacity:1;fill-rule:nonzero;stroke:none"
             id="path28" /></g><g
           id="g30"
           transform="translate(288.2346,88.6136)"><path
             d="m 0,0 c 0.622,0 1.159,-0.227 1.612,-0.68 0.452,-0.454 0.679,-0.99 0.679,-1.612 v -6.03 c 0,-0.624 -0.227,-1.16 -0.679,-1.613 C 1.159,-10.389 0.622,-10.614 0,-10.614 h -15.278 v -46.534 c 0,-0.623 -0.227,-1.16 -0.679,-1.612 -0.454,-0.455 -0.991,-0.68 -1.613,-0.68 h -6.875 c -0.624,0 -1.161,0.225 -1.613,0.68 -0.453,0.452 -0.678,0.989 -0.678,1.612 v 46.534 h -15.278 c -0.624,0 -1.161,0.225 -1.613,0.679 -0.454,0.453 -0.68,0.989 -0.68,1.613 v 6.03 c 0,0.622 0.226,1.158 0.68,1.612 0.452,0.453 0.989,0.68 1.613,0.68 z"
             style="fill:#231f20;fill-opacity:1;fill-rule:nonzero;stroke:none"
             id="path32" /></g><g
           id="g34"
           transform="translate(327.2753,51.3372)"><path
             d="M 0,0 -9.337,24.2 -18.673,0 Z m -4.668,37.276 c 0.904,0 1.584,-0.241 2.038,-0.721 0.452,-0.483 0.849,-1.204 1.187,-2.167 l 20.796,-53.665 c 0.055,-0.17 0.083,-0.369 0.083,-0.594 0,-0.624 -0.225,-1.16 -0.677,-1.613 -0.454,-0.454 -0.992,-0.679 -1.614,-0.679 h -6.111 c -1.132,0 -1.925,0.239 -2.377,0.721 -0.452,0.481 -0.763,0.947 -0.932,1.402 l -3.65,9.426 h -26.823 l -3.648,-9.426 c -0.171,-0.455 -0.482,-0.921 -0.934,-1.402 -0.454,-0.482 -1.246,-0.721 -2.377,-0.721 h -6.11 c -0.624,0 -1.161,0.225 -1.613,0.679 -0.453,0.453 -0.678,0.989 -0.678,1.613 0,0.225 0.028,0.424 0.084,0.594 l 20.793,53.665 c 0.341,0.963 0.736,1.684 1.19,2.167 0.452,0.48 1.132,0.721 2.036,0.721 z"
             style="fill:#231f20;fill-opacity:1;fill-rule:nonzero;stroke:none"
             id="path36" /></g><g
           id="g38"
           transform="translate(90.2895,111.9979)"><path
             d="m 0,0 -7.809,-21.98 -14.231,10.464 3.504,7.511 -10.91,1.001 -13.113,-12.017 -8.808,5.007 -6.759,-9.047 87.582,-35.613 z"
             style="fill:#231f20;fill-opacity:1;fill-rule:nonzero;stroke:none"
             id="path40" /></g><g
           id="g42"
           transform="translate(4.7289,52.6284)"><path
             d="m 0,0 4.465,-23.717 49.547,13.491 22.713,-21.529 20.45,-4.506 18.141,38.586 z"
             style="fill:#231f20;fill-opacity:1;fill-rule:nonzero;stroke:none"
             id="path44" /></g><g
           id="g46"
           transform="translate(95.1265,2.3477)"><path
             d="m 0,0 4.151,8.959 -12.76,2.487 z"
             style="fill:#231f20;fill-opacity:1;fill-rule:nonzero;stroke:none"
             id="path48" /></g><g
           id="g50"
           transform="translate(120.501,55.9212)"><path
             d="m 0,0 -0.409,0.759 -95.131,26.208 -0.252,0.07 -23.522,-11.516 1.285,-0.169 117.953,-15.514 z"
             style="fill:#ed1c24;fill-opacity:1;fill-rule:nonzero;stroke:none"
             id="path52" /></g><g
           id="g54"
           transform="translate(119.9102,57.0177)"><path
             d="M 0,0 -90.757,31.89 -95.201,25.94 0.182,-0.338 Z"
             style="fill:#231f20;fill-opacity:1;fill-rule:nonzero;stroke:none"
             id="path56" /></g><g
           id="g58"
           transform="translate(120.4246,55.7587)"><path
             d="M 0,0 -119.238,15.684 -117.095,4.3 -0.2,-0.425 Z"
             style="fill:#231f20;fill-opacity:1;fill-rule:nonzero;stroke:none"
             id="path60" /></g></g></g></g></svg>
