<svg viewBox="0 0 305.89 199.99" xmlns="http://www.w3.org/2000/svg"><path d="m23.56 32.28-21.91-3.68 1 145.54 113.39 22.93-93.07-41.02z" fill="#0f1c2c"/><path d="m58.68 13.06-22.83-10.56 1.11 143.75 93.29 43.64-71.66-50.51z" fill="#cb9831"/><path d="m268.78 2.5-22.84 10.56.1 126.32-71.67 50.51 93.29-43.64z" fill="#cb9831"/><path d="m281.06 32.28.59 123.77-93.06 41.02 113.38-22.93 1.01-145.54z" fill="#0f1c2c"/><text fill="#0f1c2c" font-family="GTWalsheimBold, GT Walsheim" font-size="27.39" transform="translate(72.62 102.8)">B E S P O K E</text><g fill="#cb9831"><text font-family="BodoniSvtyTwoOSITCTT-Bold, &quot;Bodoni 72 Oldstyle&quot;" font-size="21.89" font-weight="700" transform="translate(88.96 132.19)">G R A M M A R</text><path d="m148.45 72.29h-2.07c-16.13 0-16.13 0-16.13-22.5h4.14c16.13 0 16.13 0 16.13 22.5z"/><path d="m155.79 72.29h-4.15c0-22.5 0-22.5 16.13-22.5h4.15c0 22.49 0 22.5-16.13 22.5z"/></g></svg>