<svg viewBox="0 0 223.41 173.5" xmlns="http://www.w3.org/2000/svg"><g fill="#007db6"><path d="m28 124.49a9.28 9.28 0 0 1 -3 7.43c-2 1.74-4.89 2.61-8.6 2.61h-14.73v-34.4h14.44q5.45 0 8.23 2.44a8.69 8.69 0 0 1 2.78 6.91 7.59 7.59 0 0 1 -3.9 7.1v.4a6.84 6.84 0 0 1 3.56 2.76 8.56 8.56 0 0 1 1.22 4.75zm-8.26-14.1a4.39 4.39 0 0 0 -1-3.06 3.54 3.54 0 0 0 -2.74-1.12h-7.4v8.25h7.23a3.77 3.77 0 0 0 2.86-1.14 4.07 4.07 0 0 0 1.09-2.93zm-3.32 9.46h-7.82v8.6h7.86a4 4 0 0 0 3-1.18 4.72 4.72 0 0 0 0-6.19 3.91 3.91 0 0 0 -3-1.23z"/><path d="m33.31 100.13h13.69a12.23 12.23 0 0 1 8.77 3.15 11 11 0 0 1 3.32 8.37q.01 7.35-6.09 10.35v.59l7.24 11.28v.69h-7.38l-7.28-11.35h-5.34v11.35h-6.93zm18.63 11.58a5 5 0 0 0 -5.39-5.5h-6.31v11h6.43a5.21 5.21 0 0 0 3.81-1.43 5.45 5.45 0 0 0 1.46-4.07z"/><path d="m124.51 100.13v34.4h-5.27l-16-21.63v21.63h-6.93v-34.4h5.28l16 21.71v-21.71z"/><path d="m129.38 130.86 3.79-5.28c.3.23.73.54 1.29.92a17.61 17.61 0 0 0 3.15 1.49 12 12 0 0 0 4.38.92q4.24 0 4.25-3.84a3.57 3.57 0 0 0 -1.18-2.78 14.83 14.83 0 0 0 -4.79-2.27 20.62 20.62 0 0 1 -7.91-4.1 8.28 8.28 0 0 1 -2.52-6.33 9.5 9.5 0 0 1 3.07-7.42c2-1.86 5-2.78 9-2.78a22.68 22.68 0 0 1 6.62.88 11.48 11.48 0 0 1 3.93 1.81l1 .86-3.73 5.68a7.78 7.78 0 0 0 -1-.81 16.37 16.37 0 0 0 -2.72-1.26 11.47 11.47 0 0 0 -4.13-.8q-4.12 0-4.13 3.44a2.94 2.94 0 0 0 1.18 2.46 16 16 0 0 0 4.44 2q5.67 1.89 8.28 4.33a8.39 8.39 0 0 1 2.61 6.45 10.41 10.41 0 0 1 -3.1 7.79q-3.09 3-8.94 3a21.19 21.19 0 0 1 -7.05-1.12 14.52 14.52 0 0 1 -4.47-2.2z"/><path d="m173.41 135.33a14.59 14.59 0 0 1 -11.53-5.22 20.32 20.32 0 0 1 0-25.54 15.53 15.53 0 0 1 23.16 0 20.37 20.37 0 0 1 0 25.54 14.62 14.62 0 0 1 -11.63 5.22zm0-6.71a7.86 7.86 0 0 0 6.39-3.21 14.08 14.08 0 0 0 0-16.16 7.92 7.92 0 0 0 -12.73 0 14.08 14.08 0 0 0 0 16.16 7.79 7.79 0 0 0 6.34 3.21z"/><path d="m222.76 100.13v34.4h-5.27l-16.05-21.63v21.63h-6.88v-34.4h5.28l16 21.71v-21.71z"/><path d="m10.61 144c-.22-2.08-1.61-3-3.61-3-1.61 0-3.22.59-3.22 2.46s2.3 2 4.61 2.56 4.61 1.36 4.61 4.18c0 3.06-3 4.29-5.62 4.29-3.22 0-5.94-1.57-5.94-5.08h1.83c0 2.42 2 3.47 4.19 3.47 1.74 0 3.65-.55 3.65-2.62s-2.3-2.32-4.59-2.82-4.61-1.17-4.61-3.81c0-2.92 2.59-4.21 5.21-4.21 2.94 0 5.18 1.39 5.3 4.55z"/><path d="m25.45 144.09a3.8 3.8 0 0 0 -4-3.06c-3.43 0-4.88 2.82-4.88 5.82 0 3.29 1.45 6 4.9 6 2.52 0 4-1.78 4.15-4.15h1.88c-.36 3.58-2.6 5.76-6.22 5.76-4.47 0-6.65-3.31-6.65-7.5s2.38-7.57 6.81-7.57c3 0 5.48 1.61 5.92 4.67z"/><path d="m29.87 139.76h1.91v6.24h7.58v-6.19h1.91v14.38h-1.91v-6.58h-7.58v6.58h-1.91z"/><path d="m50.49 139.42c4.57 0 6.89 3.63 6.89 7.53s-2.32 7.54-6.89 7.54-6.89-3.63-6.89-7.49 2.32-7.58 6.89-7.58zm0 13.46c3.51 0 5-3 5-5.93s-1.49-5.95-5-5.95-5 3-5 5.92 1.51 5.96 5 5.96z"/><path d="m65.79 139.42c4.57 0 6.89 3.63 6.89 7.53s-2.32 7.54-6.89 7.54-6.89-3.63-6.89-7.49 2.32-7.58 6.89-7.58zm0 13.46c3.51 0 5-3 5-5.93s-1.47-5.92-5-5.92-5 3-5 5.92 1.5 5.93 5 5.93z"/><path d="m75 139.76h1.92v12.77h7.61v1.61h-9.53z"/><path d="m97.89 139.42c4.57 0 6.88 3.63 6.88 7.53s-2.31 7.54-6.88 7.54-6.89-3.63-6.89-7.49 2.31-7.58 6.89-7.58zm0 13.46c3.5 0 5-3 5-5.93s-1.47-5.92-5-5.92-5 3-5 5.92 1.49 5.93 5 5.93z"/><path d="m107.11 139.76h9.44v1.62h-7.55v4.62h6.61v1.61h-6.61v6.58h-1.91z"/><path d="m124.26 139.76h5.22c1.27 0 2.94 0 3.8.53a3.4 3.4 0 0 1 1.69 3 3.31 3.31 0 0 1 -2.13 3.22 3.3 3.3 0 0 1 2.74 3.47 4.08 4.08 0 0 1 -4.37 4.12h-7zm1.91 6.19h3.83c2.18 0 3.06-.79 3.06-2.3 0-2-1.41-2.27-3.06-2.27h-3.83zm0 6.58h4.83a2.46 2.46 0 0 0 2.7-2.57c0-1.88-1.51-2.4-3.13-2.4h-4.37z"/><path d="m149.53 149c0 3.62-2.07 5.54-5.66 5.54s-5.87-1.76-5.87-5.54v-9.19h1.92v9.19c0 2.54 1.45 3.93 4 3.93s3.75-1.39 3.75-3.93v-9.19h1.91z"/><path d="m160.91 144c-.22-2.05-1.59-2.94-3.57-2.94-1.61 0-3.22.59-3.22 2.46s2.3 2 4.61 2.56 4.59 1.33 4.59 4.15c0 3.06-3 4.29-5.61 4.29-3.23 0-6-1.57-6-5.08h1.82c0 2.42 2 3.47 4.18 3.47 1.74 0 3.65-.55 3.65-2.62s-2.3-2.32-4.59-2.82-4.61-1.17-4.61-3.81c0-2.92 2.6-4.21 5.21-4.21 2.94 0 5.18 1.39 5.3 4.55z"/><path d="m165.72 139.76h1.91v14.38h-1.91z"/><path d="m170.83 139.76h2l7.58 11.67v-11.67h1.81v14.38h-2.02l-7.52-11.54v11.54h-1.81z"/><path d="m185.39 139.76h9.93v1.62h-8v4.62h7.47v1.61h-7.49v5h8.08v1.61h-10z"/><path d="m206 144c-.22-2.05-1.59-2.94-3.57-2.94-1.61 0-3.22.59-3.22 2.46s2.3 2 4.61 2.56 4.59 1.33 4.59 4.15c0 3.06-3 4.29-5.61 4.29-3.23 0-5.95-1.57-5.95-5.08h1.82c0 2.42 2 3.47 4.18 3.47 1.74 0 3.65-.55 3.65-2.62s-2.3-2.32-4.59-2.82-4.61-1.17-4.61-3.81c0-2.92 2.59-4.21 5.21-4.21 2.94 0 5.18 1.39 5.3 4.55z"/><path d="m219.05 144c-.22-2.05-1.59-2.94-3.56-2.94-1.61 0-3.22.59-3.22 2.46s2.29 2 4.61 2.56 4.59 1.33 4.59 4.15c0 3.06-3 4.29-5.62 4.29-3.22 0-5.94-1.57-5.94-5.08h1.81c0 2.42 2 3.47 4.19 3.47 1.73 0 3.65-.55 3.65-2.62s-2.3-2.32-4.59-2.82-4.62-1.17-4.62-3.81c0-2.92 2.6-4.21 5.22-4.21 2.94 0 5.18 1.39 5.3 4.55z"/><path d="m6.2 158.35h2.11l5.62 14.38h-2.12l-1.57-4.33h-6.08l-1.61 4.33h-2zm-1.43 8.44h4.87l-2.4-6.71z"/><path d="m15.31 158.35h2l7.61 11.65v-11.65h1.82v14.38h-2.1l-7.51-11.54v11.54h-1.82z"/><path d="m29.87 158.35h4.94c4.43 0 6.9 2.21 6.9 6.84 0 4.82-2.11 7.54-6.9 7.54h-4.94zm1.91 12.77h3.22c1.31 0 4.83-.37 4.83-5.66 0-3.43-1.27-5.5-4.79-5.5h-3.26z"/><path d="m52.91 160h-4.8v-1.61h11.5v1.61h-4.79v12.77h-1.91z"/><path d="m61.2 158.35h9.93v1.65h-8v4.57h7.48v1.61h-7.5v5h8.08v1.61h-10z"/><path d="m83.61 162.68a3.79 3.79 0 0 0 -4-3.07c-3.42 0-4.87 2.82-4.87 5.83 0 3.28 1.45 6 4.89 6 2.52 0 4-1.77 4.15-4.15h1.92c-.36 3.58-2.6 5.76-6.23 5.76-4.47 0-6.64-3.3-6.64-7.49s2.34-7.56 6.77-7.56c3 0 5.48 1.61 5.93 4.68z"/><path d="m88 158.35h2v6.18h7.57v-6.18h1.92v14.38h-1.97v-6.59h-7.52v6.59h-2z"/><path d="m102.56 158.35h2l7.6 11.65v-11.65h1.84v14.38h-2.1l-7.51-11.54v11.54h-1.81z"/><path d="m123.19 158c4.58 0 6.89 3.63 6.89 7.54s-2.31 7.53-6.89 7.53-6.88-3.63-6.88-7.53 2.31-7.54 6.88-7.54zm0 13.46c3.51 0 5-3 5-5.92s-1.47-5.93-5-5.93-5 3-5 5.93 1.5 5.92 5 5.92z"/><path d="m132.41 158.35h1.92v12.77h7.61v1.61h-9.53z"/><path d="m149.69 158c4.57 0 6.89 3.63 6.89 7.54s-2.32 7.53-6.89 7.53-6.89-3.63-6.89-7.53 2.32-7.54 6.89-7.54zm0 13.46c3.51 0 5-3 5-5.92s-1.47-5.93-5-5.93-5 3-5 5.93 1.5 5.92 5 5.92z"/><path d="m169.67 170.93a5.64 5.64 0 0 1 -4.62 2.14c-4.29 0-6.84-3.51-6.84-7.25 0-4.19 2.29-7.82 6.84-7.82 3.15 0 5.64 1.41 6.19 4.78h-1.92c-.38-2.18-2.13-3.17-4.27-3.17-3.48 0-4.93 3-4.93 6.11s1.73 5.74 4.93 5.74a4.34 4.34 0 0 0 4.62-4.7h-4.6v-1.61h6.31v7.58h-1.21z"/><path d="m180.13 166.85v5.88h-1.91v-5.88l-5.56-8.5h2.28l4.31 6.84 4.21-6.84h2.17z"/></g><path d="m206.57 172.2h-1.34c-10.46 0-10.46 0-10.46-14.58h2.69c10.46 0 10.46 0 10.46 14.58z" fill="#f7941d"/><path d="m211.33 172.2h-2.69c0-14.58 0-14.58 10.46-14.58h2.68c0 14.57 0 14.58-10.45 14.58z" fill="#f7941d"/><path d="m72.84 100.11h10.08l10.7 34.37h-8.49l-1.87-7.27h-10.75l-1.87 7.27h-8.49zm1.08 21.42h7.92l-3.9-15.45h-.11z" fill="#007db6"/><path d="m110.45 84.94c6-26.16 43.59-46.28 43.59-46.28l-20.79-38.24s-17 7.31-20.5 14.41c0 0 10.73-8.31 16.92-9.07l16.33 30.88c-37.64 24.59-35.55 48.3-35.55 48.3zm39.2-69.45 14.77 29.43c-45.63 16-51.82 39.73-51.82 39.73 16-25.24 59-35.58 59-35.58l-20.34-39.39-7.68 4.7 2.26 3.47zm22.94 43.92c-45.49 5.29-57.12 25.39-57.12 25.39 24.93-23 63.23-20.24 63.23-20.24l-6.11-13.31-3.62.91zm.48 8.4c-34.18 5.11-53.83 17.23-61.4 22.85-7.58-5.66-27.23-17.74-61.4-22.85l-7.07 12.26s45.75.85 67.71 11.16l.76.36.75-.36c22-10.31 67.72-11.16 67.72-11.16z" fill="#007db6"/><path d="m79.84 72.53 5 1.71v-30.51a4.14 4.14 0 1 1 2.36 0v20.16l5-3.41v-34.1l-12.36 6.32zm-16.12-4.77 5 1.37v-6.57a4.14 4.14 0 1 1 2.36 0v7.22l5 1.37v-23.7l-12.36 6.32zm23.48 7.24 5 1.71v-13.37l-5 3.41zm8.8-63.36v46.24l5.06-3.44v-27.89a4.14 4.14 0 1 1 2.36 0v29.14l-7.42 5.05v18.11l12.37 6.32v-79.85z" fill="#f7941d"/></svg>