<svg viewBox="0 0 356.47 236.02" xmlns="http://www.w3.org/2000/svg"><path d="m304 180.63h-2.73c-21.27 0-21.27 0-21.27-29.66h5.46c21.28 0 21.28 0 21.28 29.66z" fill="#ffda00"/><path d="m311.57 180.63h2.73c21.27 0 21.27 0 21.27-29.66h-5.46c-21.28 0-21.28 0-21.28 29.66z" fill="#ffda00"/><g fill="#f89938"><path d="m31.11 168.84a16 16 0 0 1 -1.5 7.15 10.38 10.38 0 0 1 -4.26 4.59 13.14 13.14 0 0 1 -6.59 1.56h-9.16v-25.14a63.29 63.29 0 0 1 8-.54q6.76 0 10.13 3.06t3.38 9.32zm-7.75.08a8.32 8.32 0 0 0 -1.27-5.09 4.6 4.6 0 0 0 -3.86-1.64h-.46a4.4 4.4 0 0 0 -.49 0v14.21h.91q5.16 0 5.17-7.48z"/><path d="m41.26 158.13a3.31 3.31 0 0 1 -1 2.56 4.19 4.19 0 0 1 -5.36 0 3.34 3.34 0 0 1 -1-2.56 3.42 3.42 0 0 1 1-2.59 4.15 4.15 0 0 1 5.36 0 3.39 3.39 0 0 1 1 2.59zm.3 23.86a8.8 8.8 0 0 1 -2.78.5 9.11 9.11 0 0 1 -2.16-.23 3.64 3.64 0 0 1 -1.5-.74 3.18 3.18 0 0 1 -.88-1.35 9 9 0 0 1 -.28-2.66v-13.57a19.93 19.93 0 0 1 2.89-.26q4.71 0 4.71 4z"/><path d="m61.47 178a15.63 15.63 0 0 0 .15 2.07 11.32 11.32 0 0 0 .42 2 10.7 10.7 0 0 1 -1.67.4 16.06 16.06 0 0 1 -1.9.09c-2 0-3.24-.58-3.57-1.75a5.41 5.41 0 0 1 -2.15 1.28 9.16 9.16 0 0 1 -2.91.44 6.2 6.2 0 0 1 -4.4-1.49 5.94 5.94 0 0 1 1.14-9.06q2.73-1.69 7.67-1.69v-.53a1.47 1.47 0 0 0 -.53-1.24 3.29 3.29 0 0 0 -1.86-.4 10.47 10.47 0 0 0 -2.59.34 16.66 16.66 0 0 0 -2.92 1.14 8.34 8.34 0 0 1 -1.05-1.63 3.47 3.47 0 0 1 -.4-1.33 1.68 1.68 0 0 1 .44-1.14 4.93 4.93 0 0 1 1.5-1 11.07 11.07 0 0 1 2.78-.82 19.12 19.12 0 0 1 3.57-.33q4.37 0 6.32 1.73c1.31 1.16 2 3 2 5.57zm-7.11-4.37a5.58 5.58 0 0 0 -2.71.8 2.07 2.07 0 0 0 -.82 1.79 1.79 1.79 0 0 0 .48 1.34 1.74 1.74 0 0 0 1.31.48 2.22 2.22 0 0 0 1.25-.34 1 1 0 0 0 .49-.88z"/><path d="m64.51 164a14.22 14.22 0 0 1 3-.3 6.82 6.82 0 0 1 2.78.49 2.72 2.72 0 0 1 1.48 1.4 4.33 4.33 0 0 1 1.94-1.65 7.09 7.09 0 0 1 3.08-.63 5.84 5.84 0 0 1 3.61 1.07 5.3 5.3 0 0 1 1.9 3.08 19.36 19.36 0 0 1 .3 4.06v10.48a7.06 7.06 0 0 1 -2.81.5 9.14 9.14 0 0 1 -2.17-.23 3.64 3.64 0 0 1 -1.5-.74 3.16 3.16 0 0 1 -.87-1.35 9 9 0 0 1 -.29-2.66v-6.52a2.57 2.57 0 0 0 -.28-1.46 1.12 1.12 0 0 0 -.93-.36 1.78 1.78 0 0 0 -1.14.32 1 1 0 0 0 -.42.82v11.85h-7.68z"/><path d="m102.47 178a15.63 15.63 0 0 0 .15 2.07 12.34 12.34 0 0 0 .42 2 10.7 10.7 0 0 1 -1.67.4 16.06 16.06 0 0 1 -1.9.09c-2 0-3.24-.58-3.57-1.75a5.41 5.41 0 0 1 -2.15 1.28 9.16 9.16 0 0 1 -2.91.44 6.2 6.2 0 0 1 -4.4-1.49 5.94 5.94 0 0 1 1.14-9.06q2.73-1.69 7.67-1.69v-.53a1.47 1.47 0 0 0 -.53-1.24 3.26 3.26 0 0 0 -1.86-.4 10.47 10.47 0 0 0 -2.59.34 16.66 16.66 0 0 0 -2.92 1.14 8.34 8.34 0 0 1 -1-1.63 3.47 3.47 0 0 1 -.4-1.33 1.68 1.68 0 0 1 .44-1.14 4.93 4.93 0 0 1 1.5-1 11.07 11.07 0 0 1 2.78-.82 19.12 19.12 0 0 1 3.57-.33q4.36 0 6.32 1.73c1.31 1.16 2 3 2 5.57zm-7.1-4.37a5.59 5.59 0 0 0 -2.72.8 2.07 2.07 0 0 0 -.82 1.79 1.79 1.79 0 0 0 .48 1.34 1.74 1.74 0 0 0 1.31.48 2.22 2.22 0 0 0 1.25-.34 1 1 0 0 0 .5-.88z"/><path d="m114.25 174.73a11.5 11.5 0 0 0 6.42 2.36c1.73 0 2.59-.7 2.59-2.09a1.92 1.92 0 0 0 -.74-1.5 10.67 10.67 0 0 0 -3.1-1.43 14.57 14.57 0 0 1 -4.2-1.92 6.56 6.56 0 0 1 -2.13-2.54 8.1 8.1 0 0 1 -.7-3.48 7.31 7.31 0 0 1 1.25-4.29 7.92 7.92 0 0 1 3.5-2.74 12.78 12.78 0 0 1 5-.95 16.37 16.37 0 0 1 4 .48 10.89 10.89 0 0 1 3.09 1.19 4 4 0 0 1 1.2 1.07 2.16 2.16 0 0 1 .36 1.25 3.46 3.46 0 0 1 -.4 1.54 15.13 15.13 0 0 1 -1.46 2.26 11.77 11.77 0 0 0 -2.93-1.44 9.11 9.11 0 0 0 -2.88-.57 3.7 3.7 0 0 0 -1.94.42 1.29 1.29 0 0 0 -.69 1.17 1.4 1.4 0 0 0 .63 1.16 8.72 8.72 0 0 0 2.3 1c.86.28 1.73.59 2.62 1a10.22 10.22 0 0 1 2.47 1.4 6.64 6.64 0 0 1 1.84 2.24 7.72 7.72 0 0 1 .74 3.42 8.5 8.5 0 0 1 -2.66 6.69q-2.65 2.4-7.4 2.4a19.6 19.6 0 0 1 -4.3-.44 10 10 0 0 1 -3.19-1.23 2.67 2.67 0 0 1 -1.37-2.32q-.01-1.48 2.08-4.11z"/><path d="m144.19 177.43a5.61 5.61 0 0 0 3.65-1.52 6.41 6.41 0 0 1 1.6 3.38 2.23 2.23 0 0 1 -.34 1.26 3.79 3.79 0 0 1 -1.11 1 6.51 6.51 0 0 1 -2.24.88 13.81 13.81 0 0 1 -3 .3 11.24 11.24 0 0 1 -5.3-1.16 7.77 7.77 0 0 1 -3.37-3.34 11.34 11.34 0 0 1 -1.13-5.3 10.27 10.27 0 0 1 1.23-5.21 8.12 8.12 0 0 1 3.52-3.26 11.05 11.05 0 0 1 5-1.15 9.84 9.84 0 0 1 4.94 1.11 4.32 4.32 0 0 1 1.41 1.16 2.37 2.37 0 0 1 .42 1.38 7.57 7.57 0 0 1 -1.56 3.57 9.85 9.85 0 0 0 -1.43-1 5.15 5.15 0 0 0 -1.25-.53 5 5 0 0 0 -1.39-.17 2.87 2.87 0 0 0 -2.37 1.06 4.56 4.56 0 0 0 -.86 2.93q.05 4.61 3.58 4.61z"/><path d="m161.64 171a2.55 2.55 0 0 0 -.29-1.46 1.12 1.12 0 0 0 -.93-.36 1.8 1.8 0 0 0 -1.14.32 1 1 0 0 0 -.42.82v11.85h-7.64v-26.7a15.31 15.31 0 0 1 2.89-.27c3.14 0 4.71 1.31 4.71 3.91v6.46a4.41 4.41 0 0 1 1.89-1.65 6.52 6.52 0 0 1 2.94-.63 5.16 5.16 0 0 1 5.32 4.15 19.36 19.36 0 0 1 .3 4.06v10.5a7 7 0 0 1 -2.81.5 9 9 0 0 1 -2.16-.23 3.64 3.64 0 0 1 -1.5-.74 3.09 3.09 0 0 1 -.88-1.35 9 9 0 0 1 -.28-2.66z"/><path d="m191.12 172.8a11.42 11.42 0 0 1 -1.16 5.33 7.73 7.73 0 0 1 -3.34 3.42 10.93 10.93 0 0 1 -5.22 1.16 10.8 10.8 0 0 1 -5.25-1.18 7.73 7.73 0 0 1 -3.29-3.4 11.54 11.54 0 0 1 -1.12-5.22 10.26 10.26 0 0 1 1.24-5.13 8.15 8.15 0 0 1 3.42-3.34 11 11 0 0 1 5.15-1.15c3.09 0 5.46.84 7.1 2.49a9.52 9.52 0 0 1 2.47 7.02zm-7.56.11q0-4-2.09-4a1.78 1.78 0 0 0 -1.63 1 6.35 6.35 0 0 0 -.57 3q0 4.22 2.16 4.21c1.42.04 2.13-1.37 2.13-4.21z"/><path d="m212.4 172.8a11.42 11.42 0 0 1 -1.16 5.33 7.73 7.73 0 0 1 -3.34 3.42 10.93 10.93 0 0 1 -5.22 1.16 10.78 10.78 0 0 1 -5.25-1.18 7.73 7.73 0 0 1 -3.29-3.4 11.54 11.54 0 0 1 -1.12-5.22 10.26 10.26 0 0 1 1.24-5.13 8.15 8.15 0 0 1 3.42-3.34 11 11 0 0 1 5.15-1.15c3.09 0 5.46.84 7.1 2.49a9.52 9.52 0 0 1 2.47 7.02zm-7.56.11q0-4-2.09-4a1.78 1.78 0 0 0 -1.63 1 6.35 6.35 0 0 0 -.57 3q0 4.22 2.16 4.21c1.42.04 2.13-1.37 2.13-4.21z"/><path d="m214.87 155.47a15.31 15.31 0 0 1 2.89-.27q4.71 0 4.71 4v22.8a8.79 8.79 0 0 1 -2.77.5 9.14 9.14 0 0 1 -2.17-.23 3.64 3.64 0 0 1 -1.5-.74 3.16 3.16 0 0 1 -.87-1.35 9 9 0 0 1 -.29-2.66z"/><path d="m251.92 172.8a11.42 11.42 0 0 1 -1.16 5.33 7.73 7.73 0 0 1 -3.34 3.42 11 11 0 0 1 -5.23 1.16 10.76 10.76 0 0 1 -5.24-1.18 7.73 7.73 0 0 1 -3.29-3.4 11.54 11.54 0 0 1 -1.12-5.22 10.26 10.26 0 0 1 1.24-5.13 8.15 8.15 0 0 1 3.42-3.34 11 11 0 0 1 5.15-1.15c3.09 0 5.46.84 7.1 2.49a9.52 9.52 0 0 1 2.47 7.02zm-7.56.11q0-4-2.09-4a1.78 1.78 0 0 0 -1.63 1 6.35 6.35 0 0 0 -.57 3q0 4.22 2.16 4.21c1.42.04 2.13-1.37 2.13-4.21z"/><path d="m268 161.81a7.32 7.32 0 0 0 -3.65-1.06 2.53 2.53 0 0 0 -1.73.55 2 2 0 0 0 -.63 1.58v.91h5.63v5.66h-5.62v12.69h-7.56v-18.14a20.7 20.7 0 0 1 .12-2.78 7 7 0 0 1 2.62-4.71 9.58 9.58 0 0 1 5.82-1.61 13.15 13.15 0 0 1 3.27.38c2.23.55 3.34 1.56 3.34 3a3.75 3.75 0 0 1 -.44 1.48 14.22 14.22 0 0 1 -1.17 2.05z"/><path d="m28.22 218.94a6.59 6.59 0 0 1 -2.71 1.48 13.92 13.92 0 0 1 -4.17.57q-6 0-9.29-3.5t-3.28-9.76a16.27 16.27 0 0 1 1.5-7.26 10.37 10.37 0 0 1 4.27-4.6 13.37 13.37 0 0 1 6.65-1.56 14.43 14.43 0 0 1 4.24.61 8.25 8.25 0 0 1 3.1 1.64 3.15 3.15 0 0 1 1.33 2.28q0 1.44-2.51 3.83a10.8 10.8 0 0 0 -2.66-1.91 6 6 0 0 0 -2.55-.52 5 5 0 0 0 -3 .91 5.81 5.81 0 0 0 -1.9 2.57 10 10 0 0 0 -.66 3.74 9.48 9.48 0 0 0 1.42 5.59 4.78 4.78 0 0 0 4.14 2 6.55 6.55 0 0 0 2.55-.47 9 9 0 0 0 2.39-1.66c1.47 1.68 2.21 3 2.21 3.92a2.78 2.78 0 0 1 -1.07 2.1z"/><path d="m49.73 211a11.61 11.61 0 0 1 -1.16 5.34 7.88 7.88 0 0 1 -3.34 3.42 11.06 11.06 0 0 1 -5.23 1.12 10.88 10.88 0 0 1 -5.24-1.18 7.78 7.78 0 0 1 -3.29-3.4 11.48 11.48 0 0 1 -1.12-5.23 10.36 10.36 0 0 1 1.23-5.13 8.27 8.27 0 0 1 3.42-3.34 11 11 0 0 1 5.15-1.14q4.64 0 7.11 2.49a9.5 9.5 0 0 1 2.47 7.05zm-7.56.11q0-4-2.09-4a1.79 1.79 0 0 0 -1.64 1 6.3 6.3 0 0 0 -.57 3c0 2.81.73 4.22 2.17 4.22s2.13-1.42 2.13-4.26z"/><path d="m52.2 202.14a14.15 14.15 0 0 1 3-.3q3.39 0 4.26 1.9a4.06 4.06 0 0 1 1.86-1.67 6.69 6.69 0 0 1 3-.61 6.28 6.28 0 0 1 3 .68 4.81 4.81 0 0 1 1.94 2 4.22 4.22 0 0 1 2-1.92 7 7 0 0 1 3.25-.74 5.82 5.82 0 0 1 3.49 1.04 5.29 5.29 0 0 1 1.9 3.08 19.47 19.47 0 0 1 .3 4.07v10.48a7 7 0 0 1 -2.81.5 9.14 9.14 0 0 1 -2.17-.23 3.64 3.64 0 0 1 -1.5-.74 3 3 0 0 1 -.87-1.35 8.93 8.93 0 0 1 -.29-2.66v-6.54a2.57 2.57 0 0 0 -.28-1.46 1.12 1.12 0 0 0 -.93-.36c-.89 0-1.33.36-1.33 1.06v11.94h-7.6v-11.18a2.57 2.57 0 0 0 -.28-1.46 1.12 1.12 0 0 0 -.94-.36 1.51 1.51 0 0 0 -1 .3 1.06 1.06 0 0 0 -.36.84v11.86h-7.64z"/><path d="m83.28 202.14a14.24 14.24 0 0 1 3-.3q3.38 0 4.25 1.9a4.14 4.14 0 0 1 1.87-1.67 6.63 6.63 0 0 1 3-.61 6.27 6.27 0 0 1 3 .68 4.75 4.75 0 0 1 1.94 2 4.27 4.27 0 0 1 2-1.92 7 7 0 0 1 3.25-.74 5.8 5.8 0 0 1 3.61 1.06 5.29 5.29 0 0 1 1.9 3.08 18.64 18.64 0 0 1 .31 4.07v10.48a7.06 7.06 0 0 1 -2.81.5 9.14 9.14 0 0 1 -2.17-.23 3.52 3.52 0 0 1 -1.5-.74 3.06 3.06 0 0 1 -.88-1.35 9 9 0 0 1 -.28-2.66v-6.54a2.55 2.55 0 0 0 -.29-1.46 1.12 1.12 0 0 0 -.93-.36c-.88 0-1.33.36-1.33 1.06v11.94h-7.72v-11.2a2.57 2.57 0 0 0 -.28-1.46 1.12 1.12 0 0 0 -.93-.36 1.54 1.54 0 0 0 -1 .3 1.06 1.06 0 0 0 -.36.84v11.86h-7.65z"/><path d="m132.42 220.31h-5.59a1.73 1.73 0 0 1 -1.29-.38 2.48 2.48 0 0 1 -.34-1.56 4.38 4.38 0 0 1 -1.94 1.65 7.12 7.12 0 0 1 -3.08.63 5.82 5.82 0 0 1 -3.61-1.07 5.23 5.23 0 0 1 -1.9-3.07 19.47 19.47 0 0 1 -.3-4.07v-10.34a17.13 17.13 0 0 1 2.92-.26q4.71 0 4.71 3.91v7.25a2.41 2.41 0 0 0 .31 1.41 1.17 1.17 0 0 0 1 .42 1.64 1.64 0 0 0 1.07-.31 1 1 0 0 0 .38-.83v-11.59a17.22 17.22 0 0 1 2.92-.26q4.72 0 4.72 4z"/><path d="m135.46 202.14a14.08 14.08 0 0 1 3-.3 6.77 6.77 0 0 1 2.77.49 2.72 2.72 0 0 1 1.49 1.41 4.18 4.18 0 0 1 1.93-1.65 7.15 7.15 0 0 1 3.08-.63 5.82 5.82 0 0 1 3.61 1.06 5.29 5.29 0 0 1 1.9 3.08 19.3 19.3 0 0 1 .31 4.07v10.48a7.08 7.08 0 0 1 -2.82.5 9.11 9.11 0 0 1 -2.16-.23 3.52 3.52 0 0 1 -1.5-.74 3 3 0 0 1 -.88-1.35 9 9 0 0 1 -.28-2.66v-6.54a2.55 2.55 0 0 0 -.29-1.46 1.12 1.12 0 0 0 -.93-.36 1.86 1.86 0 0 0 -1.14.32 1 1 0 0 0 -.42.82v11.86h-7.63z"/><path d="m163.84 196.29a3.34 3.34 0 0 1 -1 2.56 4.19 4.19 0 0 1 -5.36 0 3.31 3.31 0 0 1 -1.05-2.56 3.38 3.38 0 0 1 1.05-2.58 4.12 4.12 0 0 1 5.36 0 3.41 3.41 0 0 1 1 2.58zm.31 23.86a8.85 8.85 0 0 1 -2.78.5 9.14 9.14 0 0 1 -2.17-.23 3.64 3.64 0 0 1 -1.5-.74 3 3 0 0 1 -.87-1.35 9 9 0 0 1 -.28-2.66v-13.57a21.48 21.48 0 0 1 2.88-.26c3.14 0 4.72 1.33 4.72 4z"/><path d="m167.53 217.08a10.22 10.22 0 0 1 -.46-3.39v-17.36a15.31 15.31 0 0 1 2.89-.27q4.71 0 4.71 3.95v1.99h4.87v5.63h-4.87v5.66c0 1.26.57 1.9 1.71 1.9a3.42 3.42 0 0 0 1.37-.31 4.44 4.44 0 0 0 1.25-.76 16.46 16.46 0 0 1 1.1 2.28 4.19 4.19 0 0 1 .27 1.37 2 2 0 0 1 -.91 1.75 7.41 7.41 0 0 1 -2.38 1 12.54 12.54 0 0 1 -3.13.38q-5.1-.02-6.42-3.82z"/><path d="m196.29 220.8a17.59 17.59 0 0 1 -.66 2 13.3 13.3 0 0 1 -.82 1.74 8.28 8.28 0 0 1 -3.19 3.37 9.85 9.85 0 0 1 -4.75 1 6.47 6.47 0 0 1 -3.42-.7 2.37 2.37 0 0 1 -1.1-2.15 8.31 8.31 0 0 1 1.33-3.68 4.78 4.78 0 0 0 2.62.76 3 3 0 0 0 2.15-.71 4.59 4.59 0 0 0 1.08-2.45h-3l-5.63-17.52a11.28 11.28 0 0 1 4-.64c2.54 0 4 1.28 4.53 3.84l1.67 8.36h.15l1.67-8.4a4.91 4.91 0 0 1 1.5-2.81 4.17 4.17 0 0 1 2.87-1 10.39 10.39 0 0 1 3.84.72z"/><path d="m210.62 212.9a11.48 11.48 0 0 0 6.42 2.35c1.72 0 2.58-.69 2.58-2.09a1.89 1.89 0 0 0 -.74-1.5 10.49 10.49 0 0 0 -3.09-1.42 15.13 15.13 0 0 1 -4.2-1.92 6.67 6.67 0 0 1 -2.13-2.55 8.1 8.1 0 0 1 -.7-3.48 7.24 7.24 0 0 1 1.24-4.29 8 8 0 0 1 3.5-2.74 12.75 12.75 0 0 1 5-.95 16.29 16.29 0 0 1 4 .48 11.27 11.27 0 0 1 3.1 1.2 4 4 0 0 1 1.2 1.06 2.19 2.19 0 0 1 .36 1.25 3.43 3.43 0 0 1 -.4 1.54 16 16 0 0 1 -1.46 2.26 11.77 11.77 0 0 0 -2.93-1.44 9.22 9.22 0 0 0 -2.89-.57 3.75 3.75 0 0 0 -1.94.42 1.32 1.32 0 0 0 -.68 1.18 1.43 1.43 0 0 0 .63 1.16 9.13 9.13 0 0 0 2.3 1c.86.28 1.73.6 2.62 1a10.45 10.45 0 0 1 2.47 1.41 6.54 6.54 0 0 1 1.84 2.24 7.66 7.66 0 0 1 .74 3.42 8.53 8.53 0 0 1 -2.66 6.69q-2.65 2.39-7.41 2.39a19.58 19.58 0 0 1 -4.29-.44 10 10 0 0 1 -3.19-1.23 2.64 2.64 0 0 1 -1.37-2.32c-.01-1.01.68-2.37 2.08-4.11z"/><path d="m240.83 215.56a7.07 7.07 0 0 0 2.3-.36 8.59 8.59 0 0 0 2.3-1.32 8 8 0 0 1 1.48 3.5 2.19 2.19 0 0 1 -.38 1.27 4 4 0 0 1 -1.18 1 11.72 11.72 0 0 1 -5.82 1.18q-4.86 0-7.52-2.61t-2.66-7.58a9.55 9.55 0 0 1 1.22-4.94 8.28 8.28 0 0 1 3.36-3.17 10.11 10.11 0 0 1 4.77-1.12 8.53 8.53 0 0 1 6.31 2.2 8.32 8.32 0 0 1 2.2 6.16 13.5 13.5 0 0 1 -.11 2.28h-10.1a3.54 3.54 0 0 0 3.83 3.51zm-.34-6.62a4.14 4.14 0 0 0 -.4-2.1 1.61 1.61 0 0 0 -1.47-.63c-1.19 0-1.78.91-1.78 2.73z"/><path d="m249.49 202.14a14.24 14.24 0 0 1 3-.3q3.38 0 4.25 1.9a4.24 4.24 0 0 1 1.69-1.6 5 5 0 0 1 2.49-.68 4.1 4.1 0 0 1 2.3.57 1.81 1.81 0 0 1 .86 1.59 9.28 9.28 0 0 1 -.5 2.65 17.58 17.58 0 0 1 -1.21 2.94 6.63 6.63 0 0 0 -1.58-1 4.19 4.19 0 0 0 -1.58-.3 2.26 2.26 0 0 0 -1.5.47 1.64 1.64 0 0 0 -.55 1.31v10.61h-7.64z"/><path d="m278 220.53h-7.37l-6.23-17.93a13.2 13.2 0 0 1 4.18-.76 4.25 4.25 0 0 1 2.85.89 5 5 0 0 1 1.4 2.91l1.47 8.36h.16l1.54-8.4a4.69 4.69 0 0 1 1.34-2.81 4 4 0 0 1 2.76-.95 12.08 12.08 0 0 1 2.22.21 7.49 7.49 0 0 1 1.84.55z"/><path d="m293.19 196.29a3.34 3.34 0 0 1 -1 2.56 4.19 4.19 0 0 1 -5.36 0 3.31 3.31 0 0 1 -1.05-2.56 3.38 3.38 0 0 1 1.05-2.58 4.12 4.12 0 0 1 5.36 0 3.41 3.41 0 0 1 1 2.58zm.31 23.86a8.85 8.85 0 0 1 -2.78.5 9 9 0 0 1 -2.16-.23 3.63 3.63 0 0 1 -1.51-.74 3 3 0 0 1 -.87-1.35 9 9 0 0 1 -.28-2.66v-13.57a21.48 21.48 0 0 1 2.88-.26c3.14 0 4.72 1.33 4.72 4z"/><path d="m307.17 215.59a5.56 5.56 0 0 0 3.65-1.52 6.4 6.4 0 0 1 1.6 3.39 2.22 2.22 0 0 1 -.34 1.25 4 4 0 0 1 -1.11 1 6.72 6.72 0 0 1 -2.24.87 13.79 13.79 0 0 1 -3 .31 11.36 11.36 0 0 1 -5.3-1.16 7.79 7.79 0 0 1 -3.37-3.35 11.31 11.31 0 0 1 -1.14-5.3 10.24 10.24 0 0 1 1.24-5.2 8.17 8.17 0 0 1 3.51-3.27 11.09 11.09 0 0 1 5-1.14 10 10 0 0 1 4.94 1.1 4.45 4.45 0 0 1 1.41 1.16 2.38 2.38 0 0 1 .41 1.39 7.64 7.64 0 0 1 -1.55 3.57 9.8 9.8 0 0 0 -1.43-1.05 5.15 5.15 0 0 0 -1.25-.53 5.46 5.46 0 0 0 -1.39-.17 2.9 2.9 0 0 0 -2.31 1.06 4.56 4.56 0 0 0 -.86 2.93c0 3.07 1.18 4.66 3.53 4.66z"/><path d="m324.73 215.56a7 7 0 0 0 2.3-.36 8.44 8.44 0 0 0 2.3-1.32 7.84 7.84 0 0 1 1.48 3.5 2.19 2.19 0 0 1 -.38 1.27 3.86 3.86 0 0 1 -1.18 1 11.7 11.7 0 0 1 -5.81 1.18q-4.86 0-7.53-2.61t-2.66-7.58a9.55 9.55 0 0 1 1.22-4.94 8.28 8.28 0 0 1 3.36-3.17 10.11 10.11 0 0 1 4.77-1.12 8.53 8.53 0 0 1 6.31 2.2 8.32 8.32 0 0 1 2.2 6.16 12.44 12.44 0 0 1 -.11 2.28h-10.15a3.54 3.54 0 0 0 3.88 3.51zm-.34-6.62a4.14 4.14 0 0 0 -.4-2.1 1.6 1.6 0 0 0 -1.46-.63c-1.19 0-1.79.91-1.79 2.73z"/><path d="m340.42 201.46a14.16 14.16 0 0 1 5.44.95c1.57.66 2.35 1.46 2.35 2.39a4.14 4.14 0 0 1 -.41 1.58 10.61 10.61 0 0 1 -1.11 1.88 8.1 8.1 0 0 0 -4.94-2c-1.09 0-1.63.32-1.63.95a1.11 1.11 0 0 0 .63.94 6.92 6.92 0 0 0 1.52.55c.62.15 1.28.33 2 .53a8.7 8.7 0 0 1 2 .85 4.32 4.32 0 0 1 1.52 1.54 5 5 0 0 1 .59 2.59 5.91 5.91 0 0 1 -2.21 4.9 9.76 9.76 0 0 1 -6.19 1.75 13.08 13.08 0 0 1 -5.74-1.11 2.57 2.57 0 0 1 -1.75-2.31 4.36 4.36 0 0 1 .33-1.6 11.65 11.65 0 0 1 1.23-2.2 9 9 0 0 0 2.43 1.48 7.15 7.15 0 0 0 2.7.61q1.83 0 1.83-1.14a1.15 1.15 0 0 0 -.63-.92 6.78 6.78 0 0 0 -1.54-.6c-.63-.18-1.3-.38-2-.61a9.47 9.47 0 0 1 -2-.93 4.75 4.75 0 0 1 -1.54-1.58 5.06 5.06 0 0 1 -.62-2.51 5.19 5.19 0 0 1 2.16-4.39 9.28 9.28 0 0 1 5.58-1.59z"/></g><circle cx="141.77" cy="23.75" fill="#ffda00" r="8.28"/><path d="m188.35 118.64.77.06c1.51-.12 3-.3 4.48-.56l-.82-.15-1-.21-1-.22-.66-.17c-.45-.11-.9-.23-1.34-.36s-.66-.18-1-.29c-1.32-.41-2.61-.86-3.88-1.38l-.75-.31c-.69-.29-1.38-.6-2-.93-.26-.12-.51-.24-.75-.37s-.71-.36-1.07-.56-.59-.31-.89-.49l-.68-.39-1.06-.64c-.22-.13-.43-.27-.64-.41a45.75 45.75 0 0 1 -5.06-3.76c-.26-.21-.51-.43-.76-.66s-.51-.45-.75-.68l-.73-.69-.72-.71-.7-.72-.85-.92c-.17-.19-.34-.37-.5-.57a48.1 48.1 0 0 1 -4.63-6.25c-.18-.28-.35-.57-.52-.86s-.49-.86-.73-1.29l-.41-.76-.35-.67c-.15-.31-.31-.62-.45-.93a46.77 46.77 0 0 1 -3.66-10.86l-.12-.58c0-.18-.07-.37-.1-.56a47.83 47.83 0 0 1 .32-18.6c.13-.61.27-1.21.43-1.8.22-.85.46-1.7.72-2.53v-.12l.29-.87.22-.87c.2-.56.41-1.11.64-1.65.12-.29.24-.57.35-.85q.36-.83.75-1.65c.13-.27.26-.54.41-.81.53-1.08 1.11-2.13 1.73-3.16.15-.26.31-.51.47-.77s.32-.51.49-.76.32-.49.5-.74l.51-.74.53-.72c.18-.25.35-.49.53-.72s.37-.48.56-.71.38-.47.56-.7l.58-.68c.19-.23.39-.45.6-.67s.4-.45.6-.66.54-.58.82-.86c.56-.57 1.12-1.13 1.71-1.68l.13-.13c.37-.34.74-.67 1.12-1a.27.27 0 0 1 .08-.07c.4-.35.8-.69 1.22-1l.12-.09q.54-.45 1.11-.87l.27-.2c.33-.24.67-.49 1-.73.61-.43 1.23-.85 1.86-1.24.39-.25.79-.49 1.18-.72s.88-.51 1.33-.76a46.65 46.65 0 0 1 5.35-2.52 47.46 47.46 0 0 1 5.17-1.72l.82-.21c.39-.09.77-.19 1.17-.27.18 0 .36-.09.54-.12.57-.13 1.14-.24 1.72-.33a47.62 47.62 0 0 0 -32.53 6.07 47.74 47.74 0 0 0 -19.15 21.84c-.09 1.52-.17 3-.21 4.55a106.23 106.23 0 0 0 .5 13.7 71.62 71.62 0 0 0 2.65 13.45 49.29 49.29 0 0 0 2.47 6.41 40.48 40.48 0 0 0 3.47 5.93 40.06 40.06 0 0 1 -3.7-5.82 50.39 50.39 0 0 1 -2.72-6.37 71.41 71.41 0 0 1 -3.17-13.48 108.24 108.24 0 0 1 -1-13.83c0-1.54 0-3.07.05-4.61a47.72 47.72 0 0 0 -22.59-23.69 77.2 77.2 0 0 0 20.21 66.36 76.59 76.59 0 0 0 10.66 9.29 75.35 75.35 0 0 0 9.83 6.05l1.42.71a76.43 76.43 0 0 0 28.6 7.63z" fill="#f89938"/><path d="m239.5 47.39a47.59 47.59 0 0 0 -22.58 23.69c0 1.54.06 3.07.05 4.61a106.46 106.46 0 0 1 -1 13.83 71.41 71.41 0 0 1 -3.19 13.48 49 49 0 0 1 -2.72 6.37 40.06 40.06 0 0 1 -3.7 5.82 39.67 39.67 0 0 0 3.48-5.93 49.8 49.8 0 0 0 2.46-6.41 70.83 70.83 0 0 0 2.7-13.45 106.24 106.24 0 0 0 .51-13.7c-.05-1.51-.12-3-.22-4.55a47.54 47.54 0 0 0 -38.3-28.35 47.87 47.87 0 0 0 -13.45.39c.58.09 1.16.2 1.73.33a5.23 5.23 0 0 1 .54.12c.39.08.78.18 1.16.27l.82.21a47.46 47.46 0 0 1 5.17 1.72 46 46 0 0 1 5.36 2.52c.45.25.89.49 1.32.76s.8.47 1.18.72c.63.39 1.25.81 1.87 1.24l1 .73.26.2c.38.28.75.57 1.12.87l.12.09c.41.33.82.67 1.22 1a.23.23 0 0 1 .07.07c.38.32.76.65 1.12 1l.14.13q.87.82 1.71 1.68c.27.28.55.56.82.85l.6.67c.2.22.4.44.59.67s.39.45.58.68.38.46.56.7.38.47.56.71.36.47.54.72l.52.72c.18.24.35.49.51.74s.35.5.5.74.34.51.49.76.33.51.47.77c.62 1 1.21 2.08 1.74 3.16.14.27.28.54.4.81q.39.82.75 1.65c.12.28.24.56.35.85.23.54.45 1.09.65 1.65.11.31.21.6.31.91s.2.58.29.87v.12c.27.83.51 1.68.73 2.53.15.59.3 1.19.43 1.8a48.07 48.07 0 0 1 .31 18.6c0 .19-.06.38-.1.56s-.07.39-.12.58a47.22 47.22 0 0 1 -3.65 10.86c-.15.31-.3.62-.46.93l-.34.67c-.14.25-.27.51-.42.76q-.35.64-.72 1.29c-.18.29-.35.58-.53.86a48 48 0 0 1 -4.62 6.25c-.17.2-.33.38-.51.57s-.55.61-.84.92l-.71.72c-.23.24-.47.48-.72.71l-.73.69-.74.68c-.25.23-.51.45-.76.66a47.71 47.71 0 0 1 -5.06 3.76l-.65.41c-.34.22-.7.43-1.05.64s-.46.27-.69.39-.59.34-.89.49-.7.38-1.06.56l-.75.37c-.68.33-1.37.64-2.06.93l-.75.31c-1.27.52-2.56 1-3.87 1.38-.34.11-.67.2-1 .29s-.89.25-1.34.36l-.66.17-1 .22c-.34.08-.68.15-1 .21s-.54.1-.82.15a44 44 0 0 0 4.49.55c.25 0 .51 0 .77-.05a76.43 76.43 0 0 0 28.61-7.63c.48-.23.95-.47 1.42-.71a77.43 77.43 0 0 0 20.49-15.34 77.18 77.18 0 0 0 20.19-66.31z" fill="#f89938"/><circle cx="215.33" cy="42.5" fill="#ffda00" r="8.28"/></svg>