<svg viewBox="0 0 313.92 260.71" xmlns="http://www.w3.org/2000/svg" xmlns:xlink="http://www.w3.org/1999/xlink"><linearGradient id="a" gradientUnits="userSpaceOnUse" x1="123.33" x2="187.17" y1="56.82" y2="56.82"><stop offset="0" stop-color="#698b3d"/><stop offset="1" stop-color="#9bc65a"/></linearGradient><linearGradient id="b" x1="62.97" x2="180.74" xlink:href="#a" y1="74.34" y2="74.34"/><linearGradient id="c" x1="126.55" x2="243.39" xlink:href="#a" y1="75.7" y2="75.7"/><linearGradient id="d" x1="70.16" x2="259.57" xlink:href="#a" y1="99.08" y2="99.08"/><path d="m128.48 106a360.55 360.55 0 0 1 7.89-43.36 187.79 187.79 0 0 1 9.27-28.64 69.93 69.93 0 0 1 6.89-12.82 25.06 25.06 0 0 1 4.53-4.93 7.49 7.49 0 0 1 4.48-1.87h.2a7.33 7.33 0 0 1 4.41 2.52 24.41 24.41 0 0 1 3.76 5.5 69.89 69.89 0 0 1 5 13.69 189.49 189.49 0 0 1 5.09 29.67 358 358 0 0 1 1.65 40.24h5.26q.18-5.07.23-9.91c.13-11.47-.19-21.57-1-30.88a186.64 186.64 0 0 0 -4.85-30.76 77.15 77.15 0 0 0 -5.45-15.07 32 32 0 0 0 -4.84-7.1l-.07-.07a12.1 12.1 0 0 0 -1.65-1.53l-.86-.69-.1-.07-.77-.47-.23-.14a12 12 0 0 0 -5-1.63h-.49a11.82 11.82 0 0 0 -4.8.89l-.29.12c-.28.11-.56.22-.82.35h-.06l-1 .57a12.53 12.53 0 0 0 -1.89 1.3l-.09.07a32 32 0 0 0 -5.81 6.34 76.63 76.63 0 0 0 -7.53 14.11 186.67 186.67 0 0 0 -9.2 29.74c-2.13 9.2-3.89 19.15-5.39 30.42-.63 4.63-1.17 9.4-1.65 14.38z" fill="url(#a)"/><path d="m29.73 130.53h-11.27v10.75h12.61l-.68 4.5h-17.25v-33.39h17.14v4.61h-11.82v9h11.27z" fill="#231f20"/><path d="m35 112.39h8.58c8.6 0 12.1 5.46 12.1 15.94 0 11.3-3.29 17.45-12.61 17.45h-8.07zm5.43 29.1h2.57c5.36 0 7.15-4 7.15-13.1 0-8.09-1.79-11.65-7.09-11.65h-2.6z" fill="#231f20"/><path d="m66.16 112.39v33.39h-5.39v-33.39z" fill="#231f20"/><path d="m75.84 136.62c.29 3 1.63 5.54 5 5.54s4.62-1.87 4.62-4.82-1.43-4.69-5.92-6.77c-5.76-2.64-8.11-5-8.11-9.93 0-5.09 3.39-8.75 9.45-8.75 7.41 0 9.3 4.92 9.4 9.12h-5.28c-.19-1.81-.7-5-4.24-5-2.76 0-4 1.76-4 4.16 0 2.68 1.24 3.94 5.39 5.81 6.17 2.78 8.76 5.5 8.76 10.87s-3.27 9.43-10.27 9.43c-7.62 0-10-4.73-10.23-9.69z" fill="#231f20"/><path d="m116.22 128.81c0 11.93-3.22 17.51-11 17.51-7.34 0-10.75-5.46-10.75-17.53 0-11.82 4-16.91 11-16.91 7.37 0 10.75 5.43 10.75 16.93zm-16.22-.09c0 8.47 1.5 13.21 5.36 13.21 4 0 5.39-4.46 5.39-13.18 0-8.42-1.45-12.45-5.4-12.45s-5.35 4.42-5.35 12.42z" fill="#231f20"/><path d="m121.32 145.78v-33.39h6.24c8 20 9.35 23.43 9.77 25h.06c-.28-4.17-.31-9.12-.31-14.58v-10.42h4.92v33.39h-6c-8.27-21.25-9.56-24.63-10-26.09.26 4.13.27 9.24.27 15.23v10.86z" fill="#231f20"/><path d="m161.26 136.62c.29 3 1.63 5.54 5 5.54s4.62-1.87 4.62-4.82-1.43-4.69-5.92-6.77c-5.76-2.64-8.11-5-8.11-9.93 0-5.09 3.39-8.75 9.45-8.75 7.42 0 9.3 4.92 9.4 9.12h-5.28c-.19-1.81-.7-5-4.24-5-2.75 0-4 1.76-4 4.16 0 2.68 1.24 3.94 5.39 5.81 6.17 2.78 8.76 5.5 8.76 10.87s-3.27 9.43-10.27 9.43c-7.62 0-10-4.73-10.23-9.69z" fill="#231f20"/><path d="m200.55 136.22c-.15 1.77-.89 10.1-10.09 10.1-9.63 0-10.62-8.7-10.62-17.35 0-10.44 3.08-17.09 11-17.09 8.9 0 9.53 7.57 9.65 10h-5.35c-.08-1.14-.21-5.58-4.39-5.58-4.43 0-5.34 5.48-5.34 12.73 0 6.55.71 12.88 5.14 12.88 4 0 4.45-4.3 4.6-5.72z" fill="#231f20"/><path d="m204.69 112.39h5.39v13.5h9.34v-13.5h5.39v33.39h-5.39v-15.36h-9.34v15.36h-5.39z" fill="#231f20"/><path d="m251.7 128.81c0 11.93-3.23 17.51-11 17.51-7.34 0-10.75-5.46-10.75-17.53 0-11.82 4-16.91 11-16.91 7.37 0 10.75 5.43 10.75 16.93zm-16.27-.09c0 8.47 1.5 13.21 5.36 13.21 4 0 5.39-4.46 5.39-13.18 0-8.42-1.45-12.45-5.4-12.45s-5.35 4.42-5.35 12.42z" fill="#231f20"/><path d="m277.63 128.81c0 11.93-3.22 17.51-11 17.51-7.35 0-10.75-5.46-10.75-17.53 0-11.82 4-16.91 11-16.91 7.38 0 10.75 5.43 10.75 16.93zm-16.27-.09c0 8.47 1.5 13.21 5.37 13.21 4 0 5.38-4.46 5.38-13.18 0-8.42-1.45-12.45-5.4-12.45s-5.35 4.42-5.35 12.42z" fill="#231f20"/><path d="m282.73 112.39h5.39v28.93h12l-.58 4.46h-16.81z" fill="#231f20"/><g fill="#698b3d"><path d="m12.7 159.53c0-4.49 2.66-7.13 6.52-7.13s6.51 2.66 6.51 7.13-2.66 7.24-6.51 7.24-6.52-2.77-6.52-7.24zm10.34 0c0-3.11-1.5-5-3.82-5s-3.83 1.88-3.83 5 1.5 5.11 3.83 5.11 3.78-2 3.78-5.11z"/><path d="m33.25 152.65h8.93v2.07h-6.31v3.94h5.37v2.07h-5.37v5.79h-2.62z"/><path d="m61.32 154.72h-4.27v-2.07h11.16v2.07h-4.27v11.8h-2.62z"/><path d="m75.21 152.65h8.9v2.07h-6.28v3.56h5.32v2.07h-5.32v4.1h6.5v2.07h-9.12z"/><path d="m91.11 159.63c0-4.53 3-7.23 6.77-7.23a6.08 6.08 0 0 1 4.26 1.75l-1.4 1.59a4 4 0 0 0 -2.8-1.2c-2.41 0-4.14 1.9-4.14 5s1.6 5.08 4.07 5.08a4.27 4.27 0 0 0 3.16-1.43l1.4 1.55a6.08 6.08 0 0 1 -4.66 2c-3.71.03-6.66-2.52-6.66-7.11z"/><path d="m109.44 152.65h2.62v5.57h6v-5.57h2.62v13.87h-2.68v-6.15h-6v6.15h-2.62z"/><path d="m137 164.74 1.53-1.69a6 6 0 0 0 3.85 1.59c1.66 0 2.58-.71 2.58-1.79s-1-1.51-2.3-2l-2-.83c-1.46-.56-3-1.64-3-3.67 0-2.21 2.08-3.91 5-3.91a6.7 6.7 0 0 1 4.56 1.77l-1.35 1.56a4.93 4.93 0 0 0 -3.21-1.19c-1.4 0-2.31.61-2.31 1.62s1.13 1.5 2.35 2l2 .78c1.76.69 3 1.73 3 3.74 0 2.25-2 4.12-5.31 4.12a7.85 7.85 0 0 1 -5.39-2.1z"/><path d="m154.06 159.63c0-4.53 3-7.23 6.77-7.23a6.1 6.1 0 0 1 4.26 1.75l-1.41 1.59a4 4 0 0 0 -2.8-1.2c-2.4 0-4.13 1.9-4.13 5s1.59 5.08 4.07 5.08a4.25 4.25 0 0 0 3.15-1.43l1.4 1.55a6 6 0 0 1 -4.65 2c-3.72.03-6.66-2.52-6.66-7.11z"/><path d="m172.39 152.65h2.61v13.87h-2.62z"/><path d="m183.29 152.65h8.9v2.07h-6.27v3.56h5.31v2.07h-5.31v4.1h6.5v2.07h-9.13z"/><path d="m200 152.65h2.7l4.59 7.8 1.53 3h.09c-.13-1.44-.34-3.19-.34-4.74v-6h2.43v13.87h-2.7l-4.59-7.81-1.53-2.94h-.09c.13 1.46.34 3.13.34 4.68v6.07h-2.43z"/><path d="m218.55 159.63c0-4.53 3-7.23 6.77-7.23a6.08 6.08 0 0 1 4.26 1.75l-1.4 1.59a4 4 0 0 0 -2.81-1.2c-2.4 0-4.13 1.9-4.13 5s1.59 5.08 4.07 5.08a4.29 4.29 0 0 0 3.16-1.43l1.4 1.55a6.08 6.08 0 0 1 -4.66 2c-3.71.03-6.66-2.52-6.66-7.11z"/><path d="m236.88 152.65h8.9v2.07h-6.28v3.56h5.32v2.07h-5.32v4.1h6.5v2.07h-9.12z"/><path d="m252.54 164.74 1.53-1.69a6 6 0 0 0 3.85 1.59c1.67 0 2.58-.71 2.58-1.79s-.95-1.51-2.3-2l-2-.83c-1.45-.56-3-1.64-3-3.67 0-2.21 2.07-3.91 5-3.91a6.7 6.7 0 0 1 4.56 1.77l-1.35 1.56a5 5 0 0 0 -3.21-1.19c-1.4 0-2.32.61-2.32 1.62s1.13 1.5 2.35 2l2 .78c1.76.69 3 1.73 3 3.74 0 2.25-2 4.12-5.31 4.12a7.88 7.88 0 0 1 -5.38-2.1z"/><path d="m296.26 152.46h-1.34c-10.43 0-10.43 0-10.43 14h2.68c10.43 0 10.43 0 10.43-14z"/><path d="m282.42 166.47h1.34c0-14 0-14-10.43-14h-2.68c0 14 0 14 10.43 14z"/></g><circle cx="73.61" cy="76.45" fill="#9bc65a" r="5.71"/><path d="m79 79.7a6.26 6.26 0 0 1 -5.34 3h-.52a198.43 198.43 0 0 0 16.08 22.1l1 1.18h8q-2.11-2.53-4.16-5.09a196.89 196.89 0 0 1 -15.06-21.19zm96 21c-8.35-7.52-16.06-14-23.57-19.85-9-7-17.27-12.92-25.16-17.94a185.76 185.76 0 0 0 -27.4-14.78 77.55 77.55 0 0 0 -15.28-4.81 36.26 36.26 0 0 0 -6.06-.57c-.85 0-1.69 0-2.51.12h-.11a12.37 12.37 0 0 0 -2.2.38l-1.08.27h-.11c-.28.1-.56.22-.84.33l-.25.1a12.2 12.2 0 0 0 -4.34 3 12.11 12.11 0 0 0 -2.42 4.65l-.08.29c-.08.29-.16.58-.22.87v.06l-.28 1.18a12.83 12.83 0 0 0 -.09 2.31v.13a31.65 31.65 0 0 0 1.5 8.46 67.68 67.68 0 0 0 3.55 8.71 6.26 6.26 0 0 1 5.56-3.41h.16a61.07 61.07 0 0 1 -2.91-7.29 24.93 24.93 0 0 1 -1.18-6.59 7.4 7.4 0 0 1 1.32-4.84 7.36 7.36 0 0 1 4.68-2 15.88 15.88 0 0 1 1.87-.1 29.55 29.55 0 0 1 4.79.45 69.64 69.64 0 0 1 13.96 4.34 188.57 188.57 0 0 1 26.7 13.94 381.78 381.78 0 0 1 48.88 36.09l2 1.78h6.87q-2.85-2.66-5.75-5.33z" fill="url(#b)"/><circle cx="199.4" cy="55.66" fill="#9bc65a" r="5.24"/><path d="m240.91 49.18-.85.72.83-.75a11.93 11.93 0 0 0 -7.64-3.59 22.46 22.46 0 0 0 -2.64-.15 35.2 35.2 0 0 0 -5.39.47 74.73 74.73 0 0 0 -14.93 4.46q-2.88 1.17-5.85 2.51a5.72 5.72 0 0 1 .74 2.81s0 0 0 .06c2.1-1 4.16-1.9 6.2-2.74a71.74 71.74 0 0 1 14.31-4.36 31 31 0 0 1 5.06-.46 19.47 19.47 0 0 1 2.2.12 9.33 9.33 0 0 1 5.92 2.65 9.35 9.35 0 0 1 1.78 6.25 26.31 26.31 0 0 1 -1.36 7.1 72.49 72.49 0 0 1 -6.38 13.57 181.72 181.72 0 0 1 -17.91 24.53c-1 1.19-2 2.4-3.1 3.6h4.36l1.25-1.51a193 193 0 0 0 17.81-25.18 74.9 74.9 0 0 0 6.56-14.16 30.13 30.13 0 0 0 1.46-7.87 12 12 0 0 0 -2.43-8.08zm-46.81 8.82c-3.64 1.93-7.38 4.06-11.27 6.41a386.72 386.72 0 0 0 -49.83 36.02q-3.31 2.82-6.43 5.55h7.33l2.2-2c8.34-7.36 16-13.71 23.5-19.41 8.95-6.84 17.11-12.55 24.95-17.45 4.09-2.54 7.9-4.77 11.55-6.77a5.92 5.92 0 0 1 -2-2.35z" fill="url(#c)"/><circle cx="124.46" cy="219.97" fill="#9bc65a" r="3.69"/><path d="m94.32 106a387 387 0 0 1 57.85-8.54c11.08-.79 21-1.18 30.45-1.18h.66c11 0 20.73.41 29.77 1.26a181.81 181.81 0 0 1 29.93 5 79.16 79.16 0 0 1 10.25 3.46h6.34l-1.26-.71a74.6 74.6 0 0 0 -14.58-5.5 193.18 193.18 0 0 0 -30.35-5.5 362.1 362.1 0 0 0 -39.68-2.09c-7 0-14.37.18-21.82.54-11.21.59-21.26 1.45-30.7 2.63-11.4 1.41-21.36 3.08-30.48 5.1-7.76 1.72-14.47 3.53-20.54 5.53z" fill="url(#d)"/><path d="m142.89 174.27c-8.31 6-16.55 11.45-24.82 16.42a194.07 194.07 0 0 1 -27.64 14.12 72.55 72.55 0 0 1 -14.38 4.32 31.46 31.46 0 0 1 -4.78.41 18 18 0 0 1 -2.13-.12 7.54 7.54 0 0 1 -4.77-2 7.62 7.62 0 0 1 -1.37-5.11 25.73 25.73 0 0 1 1.27-6.76 72.21 72.21 0 0 1 6.34-13.64c1.47-2.52 3.07-5.07 4.77-7.64h-8.06c-.9 1.41-1.78 2.81-2.6 4.21a80.09 80.09 0 0 0 -7 15 33.35 33.35 0 0 0 -1.64 8.7v.1a13 13 0 0 0 .09 2.32l.13 1.13v.13c.06.3.14.6.22.9l.07.27a12.26 12.26 0 0 0 2.46 4.85l.05.06v.05a12.47 12.47 0 0 0 4.42 3.11l.28.12c.29.12.58.25.87.35h.06l1.11.29a13.11 13.11 0 0 0 2.33.43h.12a26.37 26.37 0 0 0 2.85.15 37.87 37.87 0 0 0 6-.54 79.82 79.82 0 0 0 15.8-4.8 193.12 193.12 0 0 0 28.41-15c8.26-5.16 16.8-11.13 26.13-18.26 1.53-1.17 3.08-2.37 4.63-3.59z" fill="#9bc65a"/><path d="m174.3 174.27c-1.3 8.22-2.68 15.73-4.3 22.73a188 188 0 0 1 -9.24 29.92 75 75 0 0 1 -7.26 13.63 26.91 26.91 0 0 1 -5.05 5.54 9.85 9.85 0 0 1 -5.92 2.39h-.31a9.6 9.6 0 0 1 -5.88-3.26 26.9 26.9 0 0 1 -4.19-6.17 75.14 75.14 0 0 1 -5.25-14.56 189.15 189.15 0 0 1 -4.9-30.91c-.51-6.06-.83-12.45-1-19.31h-3.78c.3 6.66.75 13.2 1.39 19.62a199.17 199.17 0 0 0 5.38 31.37 77.11 77.11 0 0 0 5.54 15.12 31 31 0 0 0 4.68 6.8 12.37 12.37 0 0 0 7.73 4.1h.56a12.61 12.61 0 0 0 7.64-3 30.8 30.8 0 0 0 5.62-6.09 77 77 0 0 0 7.64-14.15 199.8 199.8 0 0 0 9.81-30.28q2.83-11.43 5-23.54z" fill="#9bc65a"/><path d="m234.17 180.26q-1.69-3-3.6-6h-3.57q2.52 3.78 4.65 7.45a74 74 0 0 1 6.44 14 27.92 27.92 0 0 1 1.35 7.37 7.94 7.94 0 0 1 -8.05 9.1 19.22 19.22 0 0 1 -2 .11 32.23 32.23 0 0 1 -5.39-.52 74.87 74.87 0 0 1 -14.76-4.65 188.89 188.89 0 0 1 -27.55-14.89c-7.94-5.05-16.21-10.95-25.29-18h-6.8a366.28 366.28 0 0 0 30.3 20.86 199.72 199.72 0 0 0 28.1 14.79 77.32 77.32 0 0 0 15.39 4.76 35.69 35.69 0 0 0 5.78.53 21.93 21.93 0 0 0 2.47-.13 10.8 10.8 0 0 0 10.57-12 30.42 30.42 0 0 0 -1.43-8.16 77.61 77.61 0 0 0 -6.61-14.62z" fill="#9bc65a"/></svg>