<?xml version="1.0" encoding="UTF-8"?>
<svg xmlns="http://www.w3.org/2000/svg" viewBox="0 0 130.39 130.39">
  <defs>
    <style>
      .cls-1 {
        letter-spacing: -.01em;
      }

      .cls-2 {
        fill: #fff;
      }

      .cls-3 {
        letter-spacing: -.02em;
      }

      .cls-4, .cls-5 {
        fill: #6d6e71;
      }

      .cls-6 {
        fill: #db1a21;
      }

      .cls-7 {
        letter-spacing: -.03em;
      }

      .cls-5 {
        font-family: SofiaPro-Regular, 'Sofia Pro';
        font-size: 6px;
      }

      .cls-8 {
        fill: none;
      }

      .cls-9 {
        letter-spacing: -.04em;
      }

      .cls-10 {
        letter-spacing: -.05em;
      }
    </style>
  </defs>
  <g id="Background_Colours" data-name="Background Colours">
    <rect class="cls-2" x="0" y="0" width="130.39" height="130.39"/>
  </g>
  <g id="Layer_1" data-name="Layer 1">
    <g>
      <g>
        <path class="cls-6" d="m83.93,60.87s2.99-.65,4.51-4.59c1.83-4.76,11.51-30.85,11.51-30.85l-7.76-8.88-18.01,46.54,9.75-2.21Z"/>
        <polygon class="cls-6" points="110.84 54.53 98.91 34.99 90.08 59.41 110.84 54.53"/>
        <polygon class="cls-6" points="14.24 45.05 22.15 76.98 60.89 67.16 60.88 67.15 68.29 65.28 44.53 56.39 14.24 45.05"/>
        <polygon class="cls-6" points="15.19 43.06 44.82 54.15 66.72 62.35 32.67 32.51 15.19 43.06"/>
        <polygon class="cls-6" points="63.65 11.06 57.43 20.83 47.27 15.22 34.31 31.03 70.5 62.73 66.31 31.14 63.65 11.06"/>
        <polygon class="cls-6" points="70.49 18.37 75.06 10.22 65.62 9.17 68.29 29.31 72.46 60.81 85.23 27.21 70.49 18.37"/>
        <polygon class="cls-4" points="65.38 68.28 82.39 83.78 113.63 56.51 65.38 68.28"/>
        <polygon class="cls-6" points="114.35 58.8 84.68 84.69 99.81 88.47 114.35 58.8"/>
      </g>
      <polygon class="cls-6" points="90.7 90.34 98.67 90.26 93.82 99.7 90.7 90.34"/>
    </g>
    <circle class="cls-8" cx="65.2" cy="65.2" r="65.2"/>
    <g>
      <path class="cls-4" d="m44.56,79.46v18.47h-3.09l-7.65-12.44v12.44h-3.39v-18.47h3.2l7.54,12.33v-12.33h3.39Z"/>
      <path class="cls-4" d="m62.42,85.38c0,3-1.81,5.92-6.04,5.92h-4.37v6.62h-3.39v-18.47h7.76c4.23,0,6.04,2.98,6.04,5.92Zm-3.39,0c0-1.45-.78-3-2.73-3h-4.28v5.98h4.2c2,0,2.81-1.47,2.81-2.98Z"/>
      <path class="cls-4" d="m74.07,93.4h-7.51l-1.67,4.53h-3.62l7.2-18.47h3.67l7.18,18.47h-3.59l-1.67-4.53Zm-1.03-2.84l-2.73-7.45-2.73,7.45h5.45Z"/>
    </g>
    <text class="cls-5" transform="translate(20.3 108.95)"><tspan class="cls-7" x="0" y="0">R</tspan><tspan class="cls-10" x="3.55" y="0">T</tspan><tspan class="cls-1" x="6.58" y="0">O: 45960 | CRI</tspan><tspan class="cls-3" x="44.48" y="0">C</tspan><tspan class="cls-1" x="48.47" y="0">OS: 04096</tspan><tspan class="cls-9" x="76.45" y="0">K</tspan></text>
  </g>
</svg>