<svg viewBox="0 0 841.89 850.39" xmlns="http://www.w3.org/2000/svg"><path d="m183.18 581.08c2.43-20.46-5.13-35.13-5.13-35.13-6.74-15.08-26.47-21.49-26.47-21.49-13.31-4.33-33.9-3.27-33.9-3.27h-69.87v169.44h39.73v-66.73h28.8l26.3 66.73h43.54l-30.91-74.11c12.51-7.22 25.66-16.52 27.91-35.44zm-42 .22a21.36 21.36 0 0 1 -4.06 7 19.48 19.48 0 0 1 -6.42 4.7 18.93 18.93 0 0 1 -8.3 1.81h-34.86v-43.65h34.86a19.07 19.07 0 0 1 8.3 1.8 19.65 19.65 0 0 1 6.41 4.79 21.36 21.36 0 0 1 4.06 7 24.48 24.48 0 0 1 0 16.6zm67.21 109.33h121v-32.56h-80.79v-37.82h63.4v-31.83h-63.4v-35.16h80.78v-32.07h-121zm189.47-169.54-54 169.54h34.14l10.81-34.49h55.24l9.84 34.49h43.56l-53.8-169.54zm.76 103.77 17.45-58.7 18.93 58.7zm363.53-103.77v66.28h-53.57v-66.28h-38.77v169.44h38.77v-69.9h53.57v69.9h38.53v-169.44zm-115.76 62.71s-2.89-41.86-29.39-55.8c0 0-30.8-20.53-74.91-2.25 0 0-43 18.45-40.09 87.73 0 0-.74 64.59 56.13 78.28 0 0 77.31 18.28 88.22-60.63l-38.33-2.25c.64 6.9-6.1 18.77-6.1 18.77-16.84 25-41.7 8.82-41.7 8.82-15.52-11.08-14.72-44.47-14.72-44.47-1.6-32.56 8.18-48.12 8.18-48.12 19.57-26 41.86-6.57 41.86-6.57 11.23 10.26 9.79 29.19 9.79 29.19z"/><path d="m397.86 521.09-20.59 64.64q16.62.06 33 0l5.82-19.56 6.27 19.49q21.11-.15 41.64-.51l-20.33-64zm219.14 6.91s-30.8-20.53-74.91-2.25c0 0-30.44 13.07-38.36 58.53q22.28-.6 43.54-1.36c2.47-12.78 6.37-19 6.37-19 19.57-26 41.86-6.57 41.86-6.57 7.2 6.57 9.19 16.7 9.69 23.13q21.07-1 40.5-2.13c-1.76-11.81-8.08-39.52-28.69-50.35zm145.11-6.9v49.16c18.14-1.51 31.29-2.75 38.53-3.45v-45.72zm-553.73 59.9q20.13 1.1 40.22 1.93v-29.67h80.78v-32.07h-121zm461.43-4.06c13.78-.86 26.74-1.72 38.77-2.56v-53.29h-38.77zm-518.23-52.48c-13.31-4.33-33.9-3.27-33.9-3.27h-69.87v45.7q19.71 2.48 39.73 4.57v-20.3h34.86a19.07 19.07 0 0 1 8.3 1.8 19.65 19.65 0 0 1 6.41 4.79 21.36 21.36 0 0 1 4.06 7 23.88 23.88 0 0 1 1.45 8.3 25.73 25.73 0 0 1 -.27 3.53q20.44 1.63 41 3c1.86-19.63-5.3-33.54-5.3-33.54-6.74-15.17-26.47-21.58-26.47-21.58z" fill="#4b4848"/><path d="m174 604a39.45 39.45 0 0 0 10.42-22.78c2.44-20.59-4.95-35.21-5.23-35.76-6.88-15.39-26.37-21.88-27.19-22.15-13.37-4.35-33.49-3.37-34.28-3.33h-71.12v171.85h42.15v-66.72h26.77l26.3 66.72h46.18l-31.21-74.83c5.71-3.3 12.08-7.44 17.21-13zm10.41 85.42h-40.95l-26.3-66.73h-30.83v66.73h-37.33v-167h68.73c.21 0 20.53-1 33.47 3.21.19.07 19.29 6.42 25.77 20.9a65.52 65.52 0 0 1 5 34.43c-2.2 18.61-15.25 27.59-27.31 34.55l-.92.53z"/><path d="m138 557a21 21 0 0 0 -6.8-5.08 20.44 20.44 0 0 0 -8.8-1.92h-36.07v46.1h36.07a20.24 20.24 0 0 0 8.82-1.93 20.93 20.93 0 0 0 6.8-5.07 23 23 0 0 0 4.29-7.34 25.9 25.9 0 0 0 0-17.43 23.25 23.25 0 0 0 -4.31-7.33zm2 23.94a20.8 20.8 0 0 1 -3.83 6.57 18.73 18.73 0 0 1 -6 4.49 18 18 0 0 1 -7.79 1.68h-33.63v-41.32h33.65a18 18 0 0 1 7.79 1.69 18.73 18.73 0 0 1 6 4.49 20.58 20.58 0 0 1 3.83 6.57 23.4 23.4 0 0 1 0 15.78z"/><path d="m606.86 629c.59 6.44-5.88 17.95-5.9 18-16 23.72-39.07 9.12-40 8.52-14.85-10.57-14.26-43.09-14.25-43.51-1.53-31 7.45-46.51 8-47.38 5.87-7.78 12.55-12.11 19.85-12.88 11.15-1.19 20.13 6.46 20.2 6.52 10.65 9.74 9.41 28 9.4 28.21l-.11 1.38 43.65-2.89-.08-1.21a103.66 103.66 0 0 0 -4.81-23c-5.36-16.25-14-27.94-25.13-33.8-.77-.51-8.41-5.35-21.27-8.12-12.22-2.64-31.64-3.77-54.72 5.8-.45.2-11.15 4.89-21.61 18.25-17.39 22.23-20 50.69-19.22 70.58a101.48 101.48 0 0 0 6.82 34.45c6.43 16.56 20.36 37.82 50.25 45a91.8 91.8 0 0 0 18.87 1.82c12.3 0 28.6-2.26 42.51-11.79 15.51-10.62 25-28 28.3-51.67l.18-1.29-41-2.4zm38.14 3.25c-3.34 22.29-12.44 38.67-27.08 48.7-25.37 17.39-59.14 9.7-59.47 9.62-23.15-5.57-39.45-20.19-48.52-43.46a101.25 101.25 0 0 1 -6.69-33.69c-.81-19.5 1.76-47.3 18.62-68.93 10.08-12.94 20.65-17.6 20.74-17.64a93.22 93.22 0 0 1 35.86-7.43c23.12 0 37.7 9.43 37.91 9.57l.11.06c23.07 12.17 27.86 46.73 28.59 53.63l-38.48 2.56c.11-4.66-.36-19.77-10.25-28.81-.4-.35-9.82-8.39-22-7.13-8 .85-15.28 5.52-21.58 13.89l-.06.08c-.41.65-10 16.26-8.36 48.73 0 1.39-.64 34.14 15.3 45.47a37.65 37.65 0 0 0 15.06 5.16c7.92.88 19.26-.89 28.35-14.4.26-.46 6.11-10.85 6.29-18.08z"/><path d="m444.53 519.88h-47.53l-54.79 172h36.7l10.8-34.48h53.45l9.84 34.43h46.1l-54.3-171.1zm10.27 169.54-9.8-34.49h-57l-10.8 34.49h-31.71l53.26-167.12h44l53 167.12z"/><path d="m760.94 519.88v66.28h-51.16v-66.28h-41.18v171.86h41.18v-69.9h51.16v69.9h40.94v-171.86zm38.53 169.45h-36.12v-69.91h-56v69.91h-36.35v-167h36.35v66.27h56v-66.3h36.12z"/><path d="m397 626.07h39.61l-20.6-64zm36.3-2.41h-33.06l15.87-53.42z"/><path d="m207.18 691.83h123.41v-35h-80.79v-35.37h63.42v-34.25h-63.42v-32.74h80.79v-34.47h-123.41zm2.41-169.44h118.58v29.66h-80.78v37.57h63.42v29.43h-63.42v40.23h80.78v30.14h-118.58z"/><path d="m565.7 708.88q-9.75 0-14.91 5.93-6.91 7-6.92 21 0 13.71 6.92 21 5.16 5.94 14.91 5.94t14.92-5.94q6.89-7.29 6.88-21 0-14-6.88-21-5.16-5.92-14.92-5.93zm7.3 39.54c-1.81 3-3.78 4.43-6.86 4.43s-5.55-1.47-7.38-4.43-2.76-7.16-2.76-12.61.92-9.65 2.76-12.61 4.29-4.43 7.38-4.43 5.53 1.48 7.34 4.45 2.72 7.16 2.72 12.59a24 24 0 0 1 -3.2 12.61zm-466.1-39.54q-9.75 0-14.91 5.93-6.91 7-6.92 21 0 13.71 6.92 21 5.16 5.94 14.91 5.94t14.92-5.94q6.89-7.29 6.88-21 0-14-6.88-21-5.12-5.92-14.88-5.93zm7.34 39.54c-1.82 3-3.78 4.43-6.86 4.43s-5.55-1.47-7.38-4.43-2.76-7.16-2.76-12.61.92-9.65 2.76-12.61 4.29-4.43 7.38-4.43 5.53 1.48 7.34 4.45 2.72 7.16 2.72 12.59a24 24 0 0 1 -3.16 12.61zm50.64-7.94h-.33l-9.15-30.48h-18.4v51.3h10.31s-.07-40.08-.07-41.07h1.06l12.81 41.09h7.25l12.81-41.09h1.07c0 1-.08 41.07-.08 41.07h10.34v-51.3h-18.39zm67.68 0h-.32l-9.15-30.48h-18.39v51.3h10.3s-.08-40.08-.08-41.07h1.07l12.81 41.09h7.25l12.81-41.09h1.06c0 1-.08 41.07-.08 41.07h10.32v-51.3h-18.37zm69.51.83q0 5.34-1.26 7.8-2 4.35-8.49 4.36t-8.53-4.36q-1.26-2.46-1.26-7.8v-31.31h-11v31.37q0 8.26 2.55 12.86 4.8 8.44 18.21 8.44t18.17-8.44q2.55-4.61 2.55-12.86v-31.37h-11zm50.93-.51-18.18-30.8h-12.31v51.3h8.64v-35.56l20.12 35.56h10.83v-51.3h-9.1zm20.33 20.5h10.75v-51.3h-10.77zm17-41.67h13.16v41.67h11.3v-41.67h13.21v-9.63h-37.65zm62.85 9.66-9.89-19.29h-13.24l16 29v22.3h11.66v-22.3l16.48-29h-10.35zm154.12-19.8h-10.8v51.81h32.35v-9.3h-21.53zm39.67 0h-10.8v51.81h32.35v-9.3h-21.52zm27.64 51.81h36.39v-9.3h-24.82v-12.37h19.82v-9.48h-19.82v-11h25v-9.66h-36.55zm131.08-42.15v-9.66h-36.54v51.81h36.37v-9.3h-24.82v-12.37h19.86v-9.48h-19.86v-11zm-725.28 24.56-12-.27a17.61 17.61 0 0 1 -.65 4.28s-2 5.88-9.83 5-8.45-10.43-8.45-10.43c-1-5.72.37-15.82.37-15.82a9.34 9.34 0 0 1 8.83-8.08 8.5 8.5 0 0 1 6 2.09c3 1.44 3.1 8.29 3.1 8.29l12.3-.22v.13h.5a32.08 32.08 0 0 0 -2-6.91c-.14-.33-.29-.65-.44-1a22.34 22.34 0 0 0 -2.69-4.35c-.18-.23-.37-.46-.56-.68l-.11-.12-.54-.59-.15-.15c-.18-.19-.36-.37-.55-.55l-.14-.13-.6-.54a20.82 20.82 0 0 0 -2-1.5 1.64 1.64 0 0 1 -.22-.14c-.18-.11-.36-.22-.55-.32l-.32-.18-.52-.28-.37-.18-.51-.24-.41-.18-.5-.2-.47-.18-.47-.17-.91-.28-.37-.1-.63-.16-.42-.09-.6-.12-.44-.08-.6-.09-.44-.06-.63-.07h-.42-.72-.35c-.36 0-.72 0-1.09 0s-.77 0-1.16 0h-.42l-.72.06-.46.07-.67.1-.53.12c-.19 0-.39.07-.58.12l-.58.16-.51.14c-.21.06-.41.14-.61.21l-.46.15-.63.26-.42.17c-.22.09-.44.2-.66.31l-.43.09-.7.37-.3.17-.72.44-.25.15-.72.49-.22.16c-.26.18-.51.37-.76.57l-.16.12-.75.64-.13.11c-.26.23-.51.47-.76.72l-.09.08c-.26.26-.52.52-.77.8-.26.29-.52.58-.77.88-.25.3-.5.61-.74.93a29.87 29.87 0 0 0 -5.87 18.06s0 0 0 .07v1.31.45.85s0 .35.05.53 0 .5.08.75 0 .37.08.55.06.48.1.72.07.37.1.55.09.46.13.69l.12.56c0 .22.1.44.16.67s.09.36.14.54l.18.66c.06.18.11.36.16.54l.22.66.17.5c.13.36.26.72.41 1.08.07.19.16.39.24.58s.15.34.22.51.19.4.29.6.14.31.22.46.21.41.31.61l.23.42c.11.21.23.41.35.61l.22.38.38.61c.08.11.15.22.22.33l.43.63.19.26.49.66.1.12a23.9 23.9 0 0 0 3.52 3.65h.06c.24.21.49.4.74.59l.09.07.76.55h.07l.81.53a20.15 20.15 0 0 0 6.53 2.63 28.07 28.07 0 0 0 4.09.4 24.72 24.72 0 0 0 2.74-.18h.2l.74-.11h.27l.72-.14.26-.06c.24 0 .48-.1.72-.17h.16a23.42 23.42 0 0 0 2.33-.75l.26-.1.61-.26.33-.15.56-.27.35-.17.54-.3.33-.19a18.57 18.57 0 0 0 1.77-1.16l.38-.27.42-.34.38-.32.41-.35.38-.35.37-.36.4-.41.33-.35c.23-.25.45-.5.66-.76l.24-.3.43-.56.27-.37.37-.53.26-.4.34-.56.24-.41c.12-.21.24-.42.35-.64l.19-.36.5-1c0-.06 0-.12.08-.19.13-.29.26-.6.38-.9l.15-.41.27-.74.15-.46c.08-.24.15-.49.23-.74s.09-.31.13-.47l.21-.82c0-.15.07-.29.1-.43.09-.4.18-.8.25-1.21 0 0 0-.05 0-.08l-.34-.06zm458.72 0-12-.27a17.27 17.27 0 0 1 -.64 4.28s-2 5.88-9.84 5-8.45-10.43-8.45-10.43c-1-5.72.38-15.82.38-15.82a9.33 9.33 0 0 1 8.82-8.08 8.54 8.54 0 0 1 6 2.09c3 1.44 3.1 8.29 3.1 8.29l12.29-.22v.13h.49a32.08 32.08 0 0 0 -2-6.91c-.14-.33-.29-.65-.44-1a22.8 22.8 0 0 0 -2.68-4.35c-.18-.23-.37-.46-.56-.68l-.1-.12c-.18-.2-.36-.4-.55-.59l-.14-.15c-.18-.19-.37-.37-.56-.55l-.14-.13-.6-.54a19.8 19.8 0 0 0 -2-1.5l-.22-.14-.54-.32-.32-.18-.52-.28-.38-.18a4.74 4.74 0 0 0 -.51-.24l-.41-.18-.5-.2c-.15-.07-.31-.12-.47-.18l-.46-.17-.92-.28-.36-.1-.63-.16-.43-.09-.59-.12-.44-.08-.61-.09-.43-.06-.77-.11h-.42-.71-.36c-.36 0-.72 0-1.09 0s-.77 0-1.15 0h-.42c-.25 0-.49 0-.73.06l-.45.07-.68.1-.53.12c-.19 0-.39.07-.58.12l-.58.16-.51.14-.61.21-.46.15-.62.26-.42.17c-.23.09-.45.2-.67.31l-.36.17-.7.37-.29.17c-.25.14-.49.29-.73.44l-.25.15-.72.49-.22.16-.75.57-.16.12-.76.64-.13.11c-.26.23-.51.47-.76.72l-.09.08c-.26.26-.52.52-.77.8-.27.29-.52.58-.77.88-.25.3-.5.61-.74.93a29.94 29.94 0 0 0 -5.88 18.06v.07 1.31.45s0 .57.06.85 0 .35.05.53.05.5.08.75 0 .37.07.55.07.48.11.72l.09.55c0 .23.09.46.14.69s.07.37.11.56.11.44.16.67.09.36.14.54.12.44.19.66l.15.54.22.66.17.5c.13.36.27.72.41 1.08.08.19.16.39.25.58s.14.34.22.51.18.4.28.6.15.31.22.46.21.41.32.61.14.28.22.42.23.41.35.61l.22.38.39.61.22.33.42.63.19.26.49.66.1.12a24.89 24.89 0 0 0 3.52 3.65h.06c.25.21.49.4.74.59l.09.07.76.55h.08c.26.18.53.36.81.53a20.2 20.2 0 0 0 6.54 2.63 27.93 27.93 0 0 0 4.08.4 25.06 25.06 0 0 0 2.75-.18h.19l.75-.11h.26l.72-.14.26-.06c.25 0 .49-.1.73-.17h.16a23.23 23.23 0 0 0 2.32-.75l.27-.1.6-.26.33-.15.57-.27.34-.17.55-.3.33-.19a19.77 19.77 0 0 0 1.76-1.16l.38-.27.43-.34.38-.32.4-.35.38-.35.38-.36c.13-.14.26-.28.4-.41s.22-.23.32-.35.45-.5.67-.76l.23-.3.44-.56.26-.37.37-.53.26-.4.35-.56.24-.41c.11-.21.23-.42.34-.64l.2-.36c.17-.34.33-.68.49-1 0-.06 0-.12.08-.19.13-.29.26-.6.38-.9l.15-.41.27-.74.15-.46c.08-.24.16-.49.23-.74s.09-.31.13-.47.15-.55.21-.82.07-.29.11-.43c.09-.4.17-.8.25-1.21 0 0 0-.05 0-.08l-.34-.06zm199.58-.71 9.1.24-.1.51a8.43 8.43 0 0 1 -2.18 6.82 8.66 8.66 0 0 1 -6.8 3c-2.82 0-4.75-1.56-7-4.1s-3.32-6.86-3.32-13 .44-10.3 2.48-13.32 4.66-4.53 7.84-4.53a9.26 9.26 0 0 1 4.52 1.11q3.65 2 4.58 7.12l.15.88 10.56-1.06a20.88 20.88 0 0 0 -6-13q-5.24-4.95-13.88-5a19.57 19.57 0 0 0 -16 7.52q-6.06 7.5-6.06 20t6 19.41a18.17 18.17 0 0 0 14.76 7.06 15.83 15.83 0 0 0 9.22-2.6c1.46-1 4.54-2.7 6.37-5.13l.95 6.41h4.83v-27.55h-20z" fill="#82807f"/><path d="m482.74 43.27-60.06 89.12s-42.52-70.23-77.27-101.27c0 0-33.15 10.3-69.93 42.69 0 0 46.31 7.25 80.39 51.11s72.88 96.59 72.88 96.59 36.1-39.56 56-78c0 0 24.63-42.18 24-66.13-.03-.03 1.65-17.91-26.01-34.11zm-60.4 33.07a31 31 0 1 0 -31-31.05 31 31 0 0 0 31 31.05z" fill="#edb41f"/><path d="m403.18 403.88c-8-36.63 2.14-150.23 2.14-150.23-76.48 9-143.74 50.39-143.74 50.39-23.84 16.65-18.22 32.62-18.22 32.62.68 7.87 4.95 21.59 4.95 21.59l103.7-31c-11.25 52.41-5.17 128.44-5.17 128.44 25.86 12.37 83.67 11.92 84.35 11.92 0-.04-18.19-18.71-28.01-63.73zm-106.39-41.13a31.61 31.61 0 1 0 31.6 31.61 31.6 31.6 0 0 0 -31.6-31.61z" fill="#0b5079"/><path d="m560.16 304.86c-36.93-6.51-128.48-41.86-128.48-41.86-12.18 56.82 4.69 142.27 4.69 142.27 8.24 42.4 52.76 37.55 52.76 37.55l-1.89-109.42c63.88 32.84 120.61 40.42 120.61 40.42 21.77-22.2 34.49-77.11 34.49-77.11-28.69 8.39-44.93 14.72-82.18 8.15zm-23.16 69.53a31.46 31.46 0 1 0 31.45 31.45 31.46 31.46 0 0 0 -31.45-31.45z" fill="#e43d32"/><path d="m431.35 372.64c2.42 19.46 5 32.67 5 32.67 8.24 42.4 52.76 37.55 52.76 37.55l-1.46-84.25a555 555 0 0 0 -56.3 14.03zm105.65 1.75a31.46 31.46 0 1 0 31.45 31.45 31.46 31.46 0 0 0 -31.45-31.45zm-7.27-22c44.55 17 78.11 21.5 78.11 21.5 5.2-5.3 9.87-12.47 14-20.31-25.57-3.58-56.29-4.87-92.1-1.22z" fill="#ed635a"/><path d="m302.9 115.14c-17.55-12.49-33.07-3.38-33.07-3.38l-19.57 12.83 65.46 85.7c-43.19 6.75-116.41 41.5-116.41 41.5v20.92c0 20.92 17.21 61.75 17.21 61.75 19.91-27 41.47-51.48 88.74-69.17 46.9-17.55 99.54-34.42 99.54-34.42-37.46-66.81-84.36-103.25-101.9-115.73zm-67.48 100.63a31.46 31.46 0 1 0 -31.42-31.46 31.47 31.47 0 0 0 31.42 31.46z" fill="#ee8322"/><path d="m302.9 115.14c-17.55-12.49-33.07-3.38-33.07-3.38l-19.57 12.83 65.46 85.7c-43.19 6.75-116.41 41.5-116.41 41.5v20.92c0 20.92 17.21 61.75 17.21 61.75 19.91-27 41.47-51.48 88.74-69.17 46.9-17.55 99.54-34.42 99.54-34.42-37.46-66.81-84.36-103.25-101.9-115.73zm-67.48 100.63a31.46 31.46 0 1 0 -31.42-31.46 31.47 31.47 0 0 0 31.42 31.46z" fill="#ee8322"/><path d="m610.62 148.47a32 32 0 1 0 32 32 32 32 0 0 0 -32-32zm-11.48-45.47s-25-37.45-62.08-51.62c0 0 4.72 47.07-31.38 101.48 0 0-45.55 72.62-61.07 87.81 0 0 31.38 18.89 99.87 31 0 0 64.45 14.51 77.61-10.46 0 0 8.1-18.56 8.77-24l-102.57-30s56.34-65.08 70.85-104.21z" fill="#81b741"/><path d="m610.62 148.47a32 32 0 1 0 32 32 32 32 0 0 0 -32-32zm-11.48-45.47s-25-37.45-62.08-51.62c0 0 4.72 47.07-31.38 101.48 0 0-45.55 72.62-61.07 87.81 0 0 31.38 18.89 99.87 31 0 0 64.45 14.51 77.61-10.46 0 0 8.1-18.56 8.77-24l-102.57-30s56.34-65.08 70.85-104.21z" fill="#81b741"/><path d="m404 407.65a408.91 408.91 0 0 0 -56.73-48.6c-4.45 46.78-.47 96.6-.47 96.6 25.86 12.37 83.67 11.92 84.35 11.92.04 0-17.15-17.63-27.15-59.92zm-107.25-44.9a31.61 31.61 0 1 0 31.6 31.61 31.6 31.6 0 0 0 -31.56-31.61zm-48-46.72c-8.6 11.57-5.42 20.63-5.42 20.63.68 7.87 4.95 21.59 4.95 21.59l65.57-19.63c-24.49-12.79-46.48-19.46-65.07-22.62z" fill="#006a98"/><path d="m610.62 148.47a32 32 0 0 0 -30.43 22.18c16.88 6 36.67 13.33 59.86 22.26a32 32 0 0 0 -29.43-44.44zm-73.56-97.1s4.44 44.23-28.18 96.5c11.67 3 28.71 8.07 53.4 16.53 14.78-20.09 30.21-43.47 36.86-61.41 0 .01-24.96-37.45-62.08-51.62z" fill="#a3cf62"/><path d="m345.41 31.12s-33.15 10.3-69.93 42.69c0 0 36.33 5.71 68.31 37.49a287.91 287.91 0 0 1 60-8.19c-15.61-23-38.28-54.04-58.38-71.99zm137.33 12.15-40.93 60.73a381.07 381.07 0 0 1 57.79 9.36c5.06-12.19 9.41-25.76 9.12-36 0-.01 1.68-17.89-25.98-34.09zm-29.36 2a31 31 0 1 0 -31 31.05 31 31 0 0 0 31-31.03z" fill="#edc055"/><path d="m302.9 115.14c-17.55-12.49-33.07-3.38-33.07-3.38l-19.57 12.83 42.66 55.85a364 364 0 0 1 74.08-4.83c-26.8-32.5-52.2-52.01-64.1-60.47zm-67.48 37.71a31.44 31.44 0 0 0 -25.95 49.24 506.18 506.18 0 0 1 57.35-16.59c0-.4.06-.79.06-1.19a31.46 31.46 0 0 0 -31.46-31.46z" fill="#f4a740"/><text fill="#221f1f" font-family="WorkSans-Regular, Work Sans" font-size="47" letter-spacing=".02em" transform="translate(58.37 825.88)">R<tspan letter-spacing=".02em" x="32.2" y="0">T</tspan><tspan letter-spacing=".04em" x="61.43" y="0">O: 4</tspan><tspan x="162.76" y="0">0</tspan><tspan letter-spacing="-.03em" x="192.93" y="0">7</tspan><tspan letter-spacing="-.01em" x="218.03" y="0">4</tspan><tspan letter-spacing=".01em" x="246.28" y="0">7</tspan><tspan letter-spacing=".04em" x="273.12" xml:space="preserve" y="0"> | CRICOS: </tspan><tspan x="542.14" y="0">0</tspan><tspan letter-spacing=".04em" x="572.31" y="0">3904B</tspan></text></svg>