<svg viewBox="0 0 247.43 191.64" xmlns="http://www.w3.org/2000/svg" xmlns:xlink="http://www.w3.org/1999/xlink"><linearGradient id="a" gradientUnits="userSpaceOnUse" x1="110.38" x2="130.29" y1="45.75" y2="45.75"><stop offset="0" stop-color="#85be43"/><stop offset=".08" stop-color="#87be43"/><stop offset="1" stop-color="#3caa49"/></linearGradient><linearGradient id="b" gradientUnits="userSpaceOnUse" x1="131.67" x2="151.57" y1="45.75" y2="45.75"><stop offset="0" stop-color="#3caa49"/><stop offset=".92" stop-color="#87be43"/><stop offset="1" stop-color="#85be43"/></linearGradient><path d="m35.4 64.17c.08.16.16.16.23 0h.24a1.88 1.88 0 0 0 1.42.55c1.42.08 2.44 1 3.71 1.42.39.16.39.48.39.79 0 .16.16.16.32.08a.46.46 0 0 1 .55.08c.79.87 1.65 1.65 2.36 2.6 1 1.42 1 3.08 1.66 4.57.08.16 0 .4 0 .63a10.94 10.94 0 0 0 -.08 3.24 3.51 3.51 0 0 1 -1.89 4 2.63 2.63 0 0 1 -2.92.08 4.81 4.81 0 0 1 -2-2.13c0-.08-.08-.16-.08-.24.16-1-.16-2 .08-3a3.67 3.67 0 0 0 -1.26-3.71 4.84 4.84 0 0 0 -4.5-1.58c-2.2.48-3.94 1.82-3.94 4.1 0 1.82-.24 3.71.63 5.53a14.69 14.69 0 0 1 .9 2.82c.08.16 0 .4.31.4.63.08.79.55 1.11.94.79 1.34 2 2.13 3.15 3.24 1.66 1.57 3.63 2.84 5.21 4.65 1.26 1.5 2.6 2.84 3.07 4.89.16.47.24.63-.31.71.23.39.86.16 1.1.47a1.14 1.14 0 0 1 .16.48 19.41 19.41 0 0 0 .71 2.52 11.74 11.74 0 0 1 .55 2.76 18.39 18.39 0 0 0 .31 2.92v1.18a4.47 4.47 0 0 0 -.47 1.66 7.41 7.41 0 0 1 -1.58 4.18 11.48 11.48 0 0 0 -.71.94c-.86 1.74-2.52 2.68-4.1 3.63a9.84 9.84 0 0 1 -5.44 1.11 7.29 7.29 0 0 1 -4-.87c-.63-.4-1.5-.48-2.21-.87-.55-.24-1.42-.47-1-1.5.08-.23-.16-.39-.4-.23s-.47-.08-.71-.16a4.38 4.38 0 0 1 -1.85-2.05 13.72 13.72 0 0 1 -1.26-3.16 4.56 4.56 0 0 1 -.24-2.52 3.61 3.61 0 0 0 .24-1.58 15.9 15.9 0 0 1 0-2.76 2.07 2.07 0 0 1 .94-1.57 4.67 4.67 0 0 1 5.13.07c1.66 1.27 1.66 2.92 1.74 4.58 0 .39-.24.47-.48.63a1.15 1.15 0 0 0 -.47 1.5 4.84 4.84 0 0 0 2.05 2.76c1.58 1 3.39.79 5.13.23.39-.15.63-.47 1.18-.39.39 0 .08-.71.23-1.11a8 8 0 0 0 1-5.28 15.08 15.08 0 0 0 -2-5.75 6.34 6.34 0 0 1 -.87-2c-.08-.39 0-.39-.31-.15-.16.15-.32-.08-.48-.16-.79-.71-1.42-1.58-2.13-2.29s-1.34-1.34-2.13-2c-2-1.66-4.1-3.23-5.36-5.6 0-.16-.16-.24-.32-.32a2.71 2.71 0 0 1 -1-1.49 4 4 0 0 0 -.47-1.34 4.72 4.72 0 0 1 -.79-2.53v.08a1.19 1.19 0 0 1 -.55-1 19.85 19.85 0 0 1 -.24-3.07 1.51 1.51 0 0 0 -.47-1.26v-1.6a.69.69 0 0 0 .31-.71 7.42 7.42 0 0 1 .55-2.6 16.1 16.1 0 0 0 1.11-2.68 2.24 2.24 0 0 1 .84-1.19 35.45 35.45 0 0 1 3.7-3.07 1.67 1.67 0 0 1 1.42-.24c.32 0 .48-.79 1.11-.79s1.5-.15 2.29-.15c.31 0 .7.08.94-.32zm-11.83 15.54c.08 0 .15-.08.15-.24s-.07-.24-.15-.16-.16.08-.24.16a.21.21 0 0 0 .24.24zm.63 25.39h-.2v.08c0 .08.08.08.16.08s-.04-.08.04-.16zm.08-28.47a.29.29 0 0 0 -.08.24.27.27 0 0 1 .16.07c0-.07.07-.15.07-.23s-.15 0-.15-.08zm.94 34.86c-.23 0-.23.23-.23.47s.08.39.31.39.16-.31.16-.47.08-.39-.24-.39zm.87-28c.08-.16-.08-.31-.24-.31s-.39.15-.47.39.16.24.32.24a.36.36 0 0 0 .39-.32zm-.47-8c0 .39.31.63.55.86.08 0 .47-.23.39-.47-.15-.39-.31-.63-.71-.71-.15.04-.31.2-.23.36zm.23-5.6a.14.14 0 0 0 -.23 0c.08 0 .08 0 .08.08.07-.04.07-.04.15-.04zm.24 39.66c.08-.07.08-.15-.08-.23s-.16-.08-.24.08a.31.31 0 0 0 .16.31c.07-.04.16-.04.16-.12zm-.09-2.32c-.08-.08-.16-.08-.16.08v.08c.08 0 .16 0 .16-.08zm0-29.81h.08a.08.08 0 0 1 .08-.08.08.08 0 0 0 -.08-.08c-.08.08-.08.08-.08.16zm.47 1.73c0 .08.08.16.16.08s.08-.08.16-.15c-.08 0-.16-.08-.24-.08s-.07.08-.07.15zm.4 1.35c-.32.07-.08.39-.24.63-.08.08-.08.23 0 .23.4 0 .24-.31.32-.47s.05-.39-.07-.39zm0-8c-.08 0-.08.08-.08.16s.08.23.16.15.16-.07.16-.15-.11-.21-.23-.13zm.01 33.02.08-.07h-.08zm.12-37.64c0 .08 0 .15.08.15s.15 0 .15-.15a.28.28 0 0 1 -.08-.16c-.03.08-.15.08-.15.16zm.15 17.82a.29.29 0 0 0 -.07.16c0 .16.07.23.23.16v-.24a.28.28 0 0 0 -.12-.08zm.08-9.54v-.08a.08.08 0 0 1 -.08.08l.08.08c.04-.08.12-.08.04-.08zm.56 36.67a.62.62 0 0 0 -.32-.32c-.16 0-.32.08-.24.32s.16.23.32.23.28-.06.28-.23zm-.4-32.89a.29.29 0 0 1 .24.08c0-.08.08-.16 0-.16s-.08-.07-.16-.15c.04.08-.04.15-.04.23zm.32 30.92h-.16c-.08.07-.08.07 0 .15s.08-.08.16-.08zm.19-27.86c0 .08 0 .16.08.16s.24 0 .24-.08 0-.24-.16-.32c-.06.1-.16.18-.16.24zm.71 24.21a.24.24 0 0 0 -.15.08v.08a.28.28 0 0 0 .15-.08zm.16-40.54c-.08 0-.16.08-.24.16 0 .24.08.4.32.4s.15-.14.15-.23 0-.31-.23-.31zm.16 11.33a.08.08 0 0 0 .08.08l.08-.08v-.08c-.09-.03-.09.08-.16.08zm1.26 7.89c-.31 0-.31.16-.31.39s.08.32.23.24.4-.08.4-.32a.64.64 0 0 0 -.32-.34zm-.19-18.64.08.07a.29.29 0 0 0 .16-.07.28.28 0 0 0 -.08-.16c-.16 0-.16.08-.16.16zm.56 48.89c.08-.16-.08-.31-.32-.31s-.24.15-.24.31a.29.29 0 0 0 .32.32c.11 0 .27-.08.27-.32zm.86-2.6.08-.08c0-.08-.08-.08-.08-.16l-.15.16c.11 0 .11.08.18.08zm.08-21.85s-.15.08-.15.16 0 .16.15.24.16-.08.24-.16a.21.21 0 0 0 -.21-.24zm.59 23.31c.07.16.15.16.15 0v-.08h-.08zm.07-24 .08-.08h-.08zm.32-23a.08.08 0 0 0 -.08.08c0 .08 0 .08.08.16l.08-.08c-.08.03-.08-.05-.08-.16zm-.08 20.62c0 .16 0 .23.16.23a.35.35 0 0 0 .24-.23c.07-.08-.08-.16-.16-.16s-.24.08-.24.16zm.55 27a.21.21 0 0 0 -.23.24c0 .15.08.31.23.31s.32-.08.32-.24a.29.29 0 0 0 -.27-.34zm.63-25a.22.22 0 0 0 -.15-.08.08.08 0 0 0 -.08.08c.08 0 .08 0 .16.08 0-.11 0-.11.07-.11zm.63 23.89c-.23 0-.31.16-.39.4-.08.08 0 .24.16.16s.31-.24.47-.32c0-.19-.16-.19-.24-.27zm1.27-46.21a.53.53 0 0 0 -.32.55c0 .24 0 .48.32.48s.15-.32.15-.48.37-.58-.15-.58zm.52-2.39c.08.07.16.23.24.23s.15 0 .15-.16 0-.31-.23-.31c-.16 0-.16.08-.16.24zm0 26.41c.08.08.16.16.24.08s.15-.16.07-.23-.07-.16-.15-.08-.16.15-.16.23zm1.34 22.24c0 .08.08.24.24.16a.4.4 0 0 0 .15-.24.25.25 0 0 0 -.23-.23c-.21.08-.29.16-.21.31zm.39-48h-.07v.23h.07zm0 33.59.08.08v-.08zm.4-7.89a.08.08 0 0 0 .08.08c.08.08.15 0 .15-.08a.25.25 0 0 0 -.15-.07c-.13-.02-.13-.02-.13.05zm.23 6.87c-.07 0-.07.08-.07.15s0 .24.15.24.16-.08.16-.16c-.05-.25-.21-.25-.29-.25zm.08 18.53c0 .08-.08.08-.08.16s0 .08.08.16.08-.08.16-.08c-.13-.1-.13-.18-.21-.26zm1.06-43.08a.17.17 0 0 0 .16.16c.07.08.15 0 .23-.08s0-.24-.08-.24c-.23 0-.31.08-.31.16zm.71 24.68c-.16-.07-.32 0-.32.24s.16.32.4.32.23-.08.31-.24c-.08-.24-.16-.32-.39-.32zm.16 4c-.08 0-.16.08-.16.23s.08.24.23.24.24-.16.24-.24-.16-.2-.31-.2zm0 8.91v-.08h-.08zm.07-16.64h-.07v.08zm.08-23.53v.08h.08zm1.19 39c-.08-.07-.16 0-.16.08s0 .16.08.16.15 0 .15 0a.32.32 0 0 0 -.07-.31zm.94-35.93c0 .16.08.32.24.32s.31 0 .31-.24a.32.32 0 0 0 -.23-.31c-.16-.02-.32.05-.32.21zm.71 33.36c-.08 0-.24 0-.31.08a.16.16 0 0 0 .15.24c.08 0 .24 0 .24-.16 0-.02 0-.18-.08-.18zm-.31-35.49v.06h.07v-.08zm2.13 6.55s0-.16-.08-.16-.24 0-.24.16l.16.16c-.02-.1.16-.1.16-.18z" fill="#c82427"/><path d="m52.51 80.81c.23-.24.47-.47.39-.87a9.87 9.87 0 0 1 -.16-2.6c0-.4.08-.87-.23-1.18v-.24a7.05 7.05 0 0 0 0-4v-2.31a1.45 1.45 0 0 0 .23-1.26 3.53 3.53 0 0 1 2.61-3.86c.15-.08.31-.08.47-.32h1.18c.08.32.4.24.63.4a4 4 0 0 1 2.13 2.91c.16 1.34.08 2.76.16 4.18.08 2-.24 4.18 0 6.23a16.35 16.35 0 0 1 -.16 2 42.24 42.24 0 0 1 .08 4.5 4 4 0 0 0 1.26 2.92c.79.63 2 .55 2.76 1.26.32.31.71-.4 1.11-.4h.71c1.26 0 2.44-.15 3.15-1.34l.16-.15c.24-.48.71 0 1-.4s-.56-.47-.4-.87c.32-1.18-.08-2.36.08-3.47a11.63 11.63 0 0 0 .08-2.36c-.08-1.5-.08-3.08-.16-4.66s.32-3.23.08-4.88c-.32-1.34.47-2.53.87-3.79.08 0 .08 0 .08-.08.47-.94 1.5-1.1 2.36-1.34a2.3 2.3 0 0 1 2.53.87c.15.24.23.55.39.63 1 .39 1 1.18 1 2 .07 1.42-.71 2.76 0 4.18-.48 1.42.15 2.84 0 4.26a26.87 26.87 0 0 1 -.16 3.47 7.54 7.54 0 0 0 0 2.68 8.46 8.46 0 0 1 0 3.94 1.91 1.91 0 0 0 0 1 16 16 0 0 1 .08 2.68c0 1.5-.32 2.92.08 4.42a7.11 7.11 0 0 1 0 2.52 5.58 5.58 0 0 0 -.08 2.29 1.67 1.67 0 0 1 0 .63c-.24 1.73.08 3.47-.16 5.2-.08.79.31 1.58.24 2.45a15.28 15.28 0 0 0 -.08 3.31c.08 1.81-.16 3.63.08 5.36s-.71 2.84-2 3.71a3.24 3.24 0 0 1 -3.47-.08 2.85 2.85 0 0 1 -1.58-2.36 17 17 0 0 1 -.32-3.47c-.08-1.9.4-3.79.16-5.68a10.2 10.2 0 0 1 0-2.21 13.29 13.29 0 0 0 .08-3.94 5.27 5.27 0 0 1 -.08-1.58c-.08-1.34.24-2.76-.55-4a3.48 3.48 0 0 0 -3.31-1.74 2.58 2.58 0 0 1 -1.35 0 4 4 0 0 0 -4.33 1.89 1.89 1.89 0 0 0 -.24 1.35 18.81 18.81 0 0 1 -.08 6 1.91 1.91 0 0 0 0 1 3.32 3.32 0 0 1 -.23 3c-.08.16-.32.24-.08.32.79.31.47.94.47 1.42a13.34 13.34 0 0 0 -.16 4.33c.16.87 0 1.82.24 2.77a1.75 1.75 0 0 1 -.55 1.34 8.49 8.49 0 0 1 -2.99 2.21h-.71a.61.61 0 0 0 -.32-.16c-.63-.39-1.49-.63-1.81-1.1a5.81 5.81 0 0 1 -1.18-2.29v-.15c.47-.79 0-1.66.23-2.37a2.86 2.86 0 0 0 -.23-2.13v-1a.94.94 0 0 0 0-1.42v-.23a9.51 9.51 0 0 0 0-4.18v-1a5.46 5.46 0 0 0 0-3.55v-.42a.43.43 0 0 0 .23-.39v-3.55a.48.48 0 0 0 -.23-.48v-2.84c.08-.16.23-.31 0-.47v-.47a1 1 0 0 0 0-1.19v-1.89c.39-.94.16-2 .47-3a1 1 0 0 0 -.47-1.18v-1.89a2.29 2.29 0 0 0 0-2.13zm1-2.92c-.08-.08-.15 0-.23.08l.08.08c.07 0 .15 0 .15-.08zm-.21 28.11h.08v-.08l-.08-.08zm.39 8.36c-.16 0-.24.08-.24.15a.28.28 0 0 0 .08.16c.16.08.24 0 .24-.16zm.24-14.2a.08.08 0 0 0 -.08.08h.08l.08-.08zm.16 12.46c0 .16.07.16.15.24.08-.08.16-.08.24-.24s-.08-.16-.24-.16-.24.05-.15.13zm.07-21.45v.08h.08c0-.11 0-.19-.08-.11zm0 1.1c0 .24.24.24.4.24s.55.08.55-.24-.24-.23-.39-.23-.56-.11-.56.2zm.08 7c0 .16.08.24.24.32s.24-.08.24-.16 0-.23-.16-.31-.24-.01-.32.14zm.48-24.92v-.08c0-.08 0-.15-.08-.15a.07.07 0 0 0 -.08.07c0 .07.08.07.16.15zm.07 11c0 .08-.07.16-.07.24s.07.08.15 0 .08-.08.08-.16-.08-.05-.16-.05zm.48 10.65a.08.08 0 1 0 .16 0c-.08-.13-.08-.13-.16 0zm.47-19.48a.17.17 0 0 0 -.16-.16c-.08-.07-.15 0-.23.08s.08.24.15.24.24-.05.24-.21zm-.39 10.28c0 .08.08.16.15.08h.08l-.15-.16a.08.08 0 0 1 -.08.08zm.79-12.22a.21.21 0 0 0 -.24-.24c-.16 0-.24.08-.24.32 0 .08.08.16.24.16zm-.24 16.64.08.08c.08 0 .08-.08.16-.08a.08.08 0 0 0 -.08-.08.28.28 0 0 1 -.16.08zm.47 8a.24.24 0 0 0 -.31.24.37.37 0 0 0 .39.4.37.37 0 0 0 .32-.4.44.44 0 0 0 -.4-.2zm.4 4.18c0-.15-.16-.15-.24-.15a.36.36 0 0 0 -.24.39c.08.08.16.16.32.08s.24-.12.16-.28zm-.24-8a.08.08 0 0 0 -.08.08v.15h.16c.08.01 0-.07-.08-.15zm0 16.64h-.08l.08.08zm.32-27.84c-.08-.08-.08-.08-.16-.08s-.16 0-.08.08.08.08.16.16.08 0 .08-.08zm-.16 23.9h.08s0 0-.08.08zm.31-20.27a.16.16 0 0 0 -.15.16c-.08.15 0 .31.23.31s.16-.16.16-.16c0-.23-.08-.31-.24-.31zm.63-21.14a.16.16 0 0 0 -.15.16c0 .16.07.24.23.16a.17.17 0 0 0 .16-.16c-.08-.16-.16-.23-.24-.16zm.63 18.69c.08-.31-.15-.39-.39-.39s-.39.08-.39.32.15.31.39.39c.13-.08.39-.08.39-.32zm-.47 25.55-.16.16.08.08c.08.08.08 0 .16-.08a.28.28 0 0 1 -.08-.16zm.08-23.73c.16.08.24 0 .24-.16s-.11-.16-.11-.24-.16.08-.24.24c.03-.04.03.16.11.16zm.32-4.2c0 .16.07.24.23.16s.16-.08.16-.24-.08-.16-.08-.16c-.31.02-.39.18-.31.24zm.47 5.6a.08.08 0 0 1 .08.08v-.16a.08.08 0 0 0 -.08.1zm.34 29.28c.08-.08 0-.16-.07-.24s-.16 0-.24.08 0 .24.16.31a.15.15 0 0 0 .15-.15zm.16-23.59a.29.29 0 0 0 -.31.32c.08.16.15.32.39.32a.44.44 0 0 0 .24-.4c-.11-.16-.19-.24-.35-.24zm-.08-19.24c-.15 0-.15.08-.08.16s.08.08.16.08.08-.08.08-.16a.25.25 0 0 0 -.19-.08zm.32 15.54a.28.28 0 0 0 -.16.08c-.08.16-.08.23.08.23a.29.29 0 0 1 .16-.07c-.03-.08-.11-.16-.11-.24zm.87-1.11c-.16 0-.32.08-.32.24s0 .32.16.4.31-.08.39-.32-.11-.24-.26-.32zm7.09 4.58c0-.24-.23-.24-.39-.24s-.24 0-.24.16.24.24.4.31a.2.2 0 0 0 .2-.23zm1-.08a.29.29 0 0 0 -.4.16c-.07.15 0 .31.24.31s.24-.08.32-.23-.16-.22-.24-.22zm.08-5c-.24 0-.4.16-.32.4s.16.39.4.39a.37.37 0 0 0 .39-.39.62.62 0 0 0 -.55-.45zm1-1.18c.08.16.16.32.32.32s.31-.16.31-.4-.15-.24-.31-.24a.29.29 0 0 0 -.38.27zm2.29 2.6c0-.39-.31-.55-.63-.63s-.87-.08-1 .32.48.15.64.39c.07.08.39 0 .55.08.07-.13.38.11.38-.21zm-1.58 24.13-.08.16a.2.2 0 0 0 .32.08c.08 0 .08-.08.08-.16s-.22-.2-.38-.13zm.32-18.92.08.15v-.15zm.79 5c0-.08 0-.16-.08-.16s-.16 0-.24.08a.16.16 0 0 0 .16.15s.1 0 .1-.07zm.08-1c0 .16.08.24.15.24.24.08.4-.08.4-.32s-.08-.24-.24-.31-.37.12-.37.36zm.47-29.81c-.08-.08-.16 0-.16.16s.08.31.24.23a.21.21 0 0 0 .24-.23.42.42 0 0 0 -.38-.19zm.08 14.83c.08-.08 0-.16-.08-.16s-.16 0-.16.08.08.08.08.15.1-.03.1-.1zm-.08-18.46-.08.08a.28.28 0 0 0 .08.16l.16-.16c-.14-.11-.14-.11-.22-.11zm.08 6.78c0 .16.08.24.16.24s.31-.08.31-.24-.08-.23-.23-.31c-.22.05-.3.13-.3.28zm.08 15.15-.08.07c.08.08.16.08.16.16l.08-.08zm.63 3.62c-.24-.08-.4.08-.4.32s.08.55.4.55.31-.24.31-.47-.13-.43-.37-.43zm.08 11.36c0-.08 0-.24-.08-.24s-.16 0-.24.08a.18.18 0 1 0 .32.16zm-.24-16.88h.16c.08 0 0-.08-.08-.08h-.08zm.16-3.47c-.08-.08-.08 0-.08.08v.08a.08.08 0 0 0 .08-.08zm.71-14c0-.16-.16-.16-.24-.16a.58.58 0 0 0 -.16.31c-.07.16 0 .16.16.16s.26-.22.18-.37zm-.31 43.62a.28.28 0 0 0 -.16.08c-.07.16 0 .24.16.24s.08-.08.16-.08c.01-.16-.07-.24-.16-.24zm.32-23.57c0-.08 0-.16-.08-.16a.25.25 0 0 0 -.16.08.28.28 0 0 1 .08.15.29.29 0 0 0 .17-.07zm1.19-3.78a.42.42 0 0 0 -.24-.39.37.37 0 0 0 -.39.39c0 .16.08.24.24.32a.36.36 0 0 0 .39-.32zm-.63 9.94c.08.07.08.07.16 0v-.08h-.04a.08.08 0 0 0 -.12.07zm.31 3.78c-.15 0-.31.16-.23.32a.2.2 0 0 0 .23.23c.16-.07.32-.15.32-.31s-.16-.25-.32-.25zm-.19 13.79a.28.28 0 0 0 .08.16c.15.08.23 0 .23-.16l-.15-.16c-.16.08-.16.08-.16.16zm1-30.28c-.15 0-.23.16-.31.32s0 .31.16.31.23-.16.31-.31-.02-.32-.16-.32zm.16 13.25c-.08 0-.16.16-.24.23s.16.24.32.24.16-.16.16-.31-.1-.16-.26-.16zm0 12.14a.28.28 0 0 1 -.16.08c0 .08 0 .16.08.16s.16 0 .16-.08-.02-.16-.1-.16zm.47-16.32c.24.08.48-.08.4-.32 0-.39-.32-.63-.71-.79-.16-.07-.24.16-.24.4a.68.68 0 0 0 .53.71zm.08 3.31c0-.16-.15-.24-.31-.24s-.32.08-.32.24.24.32.4.39.21-.15.21-.39zm.32-8h-.08v.08zm-.08 21.37c.08.08.16 0 .16-.08v-.08h-.16zm.16-20.19s-.08.08 0 .08 0 .08.08.16a.28.28 0 0 0 .08-.16c-.1-.04-.1-.12-.18-.12z" fill="#c82427"/><path d="m84.36 77v-1.4c.24-.39.4-.71 0-1.1v-2.13a3.49 3.49 0 0 0 0-3.07v-1a1.15 1.15 0 0 0 .16-.55 3.38 3.38 0 0 1 2.48-3.18c.23-.16.55-.16.71-.4h1.18a3.88 3.88 0 0 0 2.52 0h1.39c.4.4.79.24 1.19 0h.47a1.26 1.26 0 0 0 .71.24h3.63c.31 0 .79.08 1-.24h2.84c.08.32.39.32.63.32 2 .15 2.76.78 3.24 2.6.07.16.15.47.39.55v1.42c-.47.16-.63.55-.87.87a4.17 4.17 0 0 1 -3 1.65 43.22 43.22 0 0 0 -4.41-.08 21.23 21.23 0 0 0 -4.42.32 2 2 0 0 0 -1.63 1.18 9.67 9.67 0 0 0 -.95 3.87c.08 1.65-.08 3.23 0 4.89a17.69 17.69 0 0 0 .08 2.91 4.34 4.34 0 0 0 4 3.47 43.72 43.72 0 0 0 4.57.16 3.4 3.4 0 0 1 3.32 4.42 4.34 4.34 0 0 1 -3.79 2.6c-1.73.16-3.55-.16-5.36.16a2.31 2.31 0 0 0 -1.5.79 2.46 2.46 0 0 0 -1 1.5 5.39 5.39 0 0 0 -.16 2.52 2.16 2.16 0 0 1 0 1.42 4.18 4.18 0 0 0 -.08 2.21 1.09 1.09 0 0 1 .08.71c-.4 1.65.08 3.39 0 5a3.83 3.83 0 0 0 1.73 3.37 2.05 2.05 0 0 0 1.5.47c1.74-.24 3.39.39 5.13 0a.45.45 0 0 1 .31.08 3.77 3.77 0 0 0 1.34 0c1.5 0 3.08.08 4.1 1.42a11.64 11.64 0 0 1 1 2v.47a1.13 1.13 0 0 0 -.39.56c-.48 1.34-1 2.44-2.61 2.6a.56.56 0 0 0 -.55.39h-1.34a7.89 7.89 0 0 0 -3-.31c-.31 0-.55 0-.71.31h-1.46a1.72 1.72 0 0 0 -2.37 0h-.71a.6.6 0 0 0 -1 0h-1.13c-.24-.39-.63-.16-1-.23-1.49-.24-3 .23-4.49-.64-.71-.47-1.19-.86-1.26-1.65a2.2 2.2 0 0 0 -.56-1v-1.65a3.32 3.32 0 0 0 0-2.76v-1.42a39.92 39.92 0 0 0 .32-5.29.72.72 0 0 0 -.32-.63v-1.89c.08-.08.24-.16.24-.24a42.05 42.05 0 0 0 .13-4.59c0-.4.08-.79-.32-1.11v-3.89a2.24 2.24 0 0 0 0-2.13v-.97a1.07 1.07 0 0 0 0-1.42v-.7a4.74 4.74 0 0 0 0-3.32v-1.81c.48-.39.4-.79 0-1.18v-.47c.16-.08.48-.15.32-.39a2.85 2.85 0 0 1 0-1.42.64.64 0 0 0 -.32-.79v-1c.4-.39.24-.78 0-1.18zm.56 18.62c-.08 0-.16.15-.16.23s.08.32.23.24.16-.08.16-.16-.08-.29-.23-.29zm.55-4.58c0-.16-.16-.23-.32-.23s-.23.15-.31.31.08.24.23.32c.24-.06.4-.14.4-.38zm.16-1.5.15.08c.16 0 .16-.08.16-.23a.28.28 0 0 0 -.16-.08c-.15.02-.15.17-.15.25zm.07 14v.08c.08 0 .16 0 .16-.08a.28.28 0 0 0 -.08-.16c-.08.06-.15.06-.08.22zm.79-24.37c-.15 0-.31.08-.31.24a.21.21 0 0 0 .23.24c.16 0 .24-.08.32-.24a.21.21 0 0 0 -.24-.18zm.08 3.32v-.08c0-.08-.08-.08-.08-.16l-.08.08c.08.06.08.14.16.22zm.16 18.61c0 .08.08.16.24.16s.15-.08.15-.24-.07-.16-.23-.16-.16.14-.16.3zm.32 3.7a.24.24 0 1 0 0 .48c.07 0 .15-.08.23-.24-.08-.1-.16-.18-.23-.18zm.15-38.48s-.15 0-.15.08a.29.29 0 0 1 .07.16c.08 0 .08-.08.16-.08s0-.1-.08-.1zm0 10.25-.15.08c0 .08.07.23.15.23s.08-.15.16-.15c-.08-.02-.08-.1-.16-.1zm.08 27.43c-.08 0-.16 0-.16-.08a.25.25 0 0 0 -.07.15c0 .08.07.08.15.08s.08-.08.08-.15zm-.16-7.34c.08 0 .16 0 .16-.08v-.08h-.16zm.88-4.18c-.23 0-.71-.08-.79.24s.32.47.56.47a.45.45 0 0 0 .55-.31.37.37 0 0 0 -.32-.4zm0 14a.29.29 0 0 0 -.47 0c-.08.08-.08.24.16.32s.23.07.39-.08-.01-.2-.08-.28zm.48 5.36c.07-.23 0-.47-.24-.39s-.32.31-.32.55.16.32.4.47a.83.83 0 0 0 .15-.67zm-.16-41.64a.28.28 0 0 0 .16.08c.15 0 .39-.08.39-.31s-.16-.16-.24-.16c-.24.04-.32.12-.32.35zm.68 13.21a.25.25 0 0 0 -.24-.23c-.24.08-.47.15-.47.39s.16.24.31.32c.26-.08.4-.16.4-.48zm-.48-8c0 .39.48.55.56.94a.52.52 0 0 0 .39-.31.89.89 0 0 0 -.55-.87c-.22.04-.38.12-.38.28zm.24 31.7c0 .08-.08.08-.08.16s.08.08.16.08a.28.28 0 0 0 .08-.16c.02-.04-.06-.04-.14-.04zm.16 2.13c-.16 0-.24.08-.24.16s.16.23.24.31.16-.08.16-.23-.08-.2-.14-.2zm.16-31.94h-.08v.08zm.23 33.2c0-.08 0-.08-.08-.08s-.07.08-.07.08a.07.07 0 0 0 .07.08.08.08 0 0 0 .1-.04zm.34-31.5h-.16v.15c.08.08.16.08.16 0s.08-.15 0-.15zm.24 38.09a.45.45 0 0 0 -.4.23.34.34 0 0 0 .32.32c.15 0 .31 0 .31-.24s-.12-.23-.23-.31zm-.24-35.88-.08.07.08.08a.08.08 0 0 1 .08-.08c-.08 0-.08 0-.08-.07zm.24 8.79c-.08 0-.16 0-.16-.08a.08.08 0 0 0 -.08.08c0 .08.08.15.16.08zm-.16 6.31c-.08.07 0 .07.08.07s-.08-.03-.08-.03zm.16-23.9c-.08 0-.16.08-.16.24s.08.23.16.23a.25.25 0 0 0 .23-.23.21.21 0 0 0 -.23-.2zm.11 26.22c-.15 0-.23.08-.23.16s.08.24.16.24.23 0 .23-.08c-.04-.24-.16-.32-.16-.32zm-.15-30.75c0 .23.15.23.31.23a.29.29 0 0 0 .32-.31c0-.16-.16-.24-.32-.24a.29.29 0 0 0 -.35.32zm.31 51.18c-.16 0-.23.08-.23.24s.07.31.23.31.24-.16.24-.31a.21.21 0 0 0 -.28-.24zm-.16-13.64v.07zm.2-19.72a.17.17 0 0 0 -.16.16c0 .16.08.23.24.16s.08-.08.08-.16-.08-.24-.16-.16zm.63 27.21c-.08-.24-.16-.4-.39-.4s-.32.08-.32.24a.43.43 0 0 0 .48.31c.15 0 .23-.06.23-.15zm-.55-22.24.08.08v-.08zm.16-25.67a.28.28 0 0 1 -.08.16.25.25 0 0 0 .16.08c.08 0 .08-.08.08-.16a.28.28 0 0 0 -.16-.08zm.08 14.83a.27.27 0 0 0 -.16.07l.08.08c.08 0 .08-.08.16-.08s-.08-.11-.08-.11zm1.18-13.29c-.24 0-.39.15-.32.39s.16.32.4.39.31-.23.31-.39-.15-.39-.39-.39zm1.42.47a.28.28 0 0 0 -.16.08c-.08.16 0 .23.16.23a.24.24 0 0 0 .08-.15.25.25 0 0 0 -.08-.17zm-.12-1.58a.17.17 0 0 0 .16.16c.08.08.16 0 .24-.08s-.08-.24-.16-.31-.24.07-.24.23zm.32 51a.41.41 0 0 0 .31-.4c-.08-.16-.16-.31-.39-.23s-.16.15-.16.31.04.35.2.35zm1.26-24.85c-.16 0-.32.08-.32.24s.08.24.24.32.24-.08.32-.24-.12-.29-.28-.29zm.59 23.42v-.08l-.08.08zm.16-47a.25.25 0 0 1 -.08.16c.08 0 .16.08.23.08s0-.16.08-.16a.27.27 0 0 0 -.23-.08zm.15 20.75c.08 0 .16 0 .16-.08s.08-.16-.08-.24l-.15.16c.07.11.07.11.07.19zm.52 26.84a.48.48 0 0 0 -.32.08.28.28 0 0 0 .16.39c.16.08.24 0 .31-.16s.04-.23-.15-.31zm.31-25.16c-.08 0-.16.08-.08.16s.08.08.16.08a.28.28 0 0 0 .08-.16.28.28 0 0 1 -.12-.08zm.79 24c-.08.08-.24.16-.24.24s.08.24.16.16a.42.42 0 0 0 .32-.16.21.21 0 0 0 -.2-.19zm1-45.5a.36.36 0 0 0 .39.32c.32 0 .32-.24.16-.48s.16-.47-.24-.55c-.24.21-.24.52-.32.78zm1.1-3.39c-.08-.08-.24 0-.24.16s.08.31.24.31.16-.15.16-.23-.01-.19-.17-.19zm0 26.5c-.08 0-.16 0-.16.08s-.08.23.08.15.08-.08.16-.08-.01-.1-.09-.1zm1.42 22.39a.17.17 0 0 0 -.16-.15c-.08-.08-.16 0-.23.08s.07.23.15.23.23-.03.23-.11zm.71-22.31c0 .07.08.07.08.07a.32.32 0 0 0 .24-.07c-.08 0-.08 0-.16-.08a.25.25 0 0 1 -.17.13zm0 25.71h.08v-.08zm3-50.95a.27.27 0 0 0 .23.08c.08-.08.16-.16.08-.32s-.08-.07-.16-.07-.16.2-.16.36zm1.26 50.95.08.08c.08 0 .15 0 .15-.08s0-.16-.15-.16c-.01.13-.09.13-.09.21z" fill="#c82427"/><path d="m119.85 64.8a3.31 3.31 0 0 1 1.81 3c.08 2.21 0 4.33 0 6.54a17.41 17.41 0 0 0 .16 4.5 11.51 11.51 0 0 1 -.08 3.71 71 71 0 0 0 -.08 8.12c.16 3.86-.08 7.81 0 11.67 0 1.58-.08 3.23 0 4.81.08 2.37.48 4.81 3.16 6a3.22 3.22 0 0 0 2.13.4c1.66-.24 3.23.23 4.89.08a8.92 8.92 0 0 1 2.84.31c.71.08 1 .63 1.42 1s.55.79.86 1.26v.47c-.31.24-.23.56-.23.87a3.36 3.36 0 0 1 -2.21 2.92 7.93 7.93 0 0 1 -2.76.31 46.58 46.58 0 0 0 -6.47.08 1 1 0 0 1 -.47-.08.88.88 0 0 0 -1.19 0 .85.85 0 0 1 -.63 0 18.55 18.55 0 0 0 -4.65-.07 3.61 3.61 0 0 1 -2.13-.48c-.86-.63-1.81-1.34-1.65-2.68a1.83 1.83 0 0 0 -.16-.63v-2.37c.08-.08.16-.08.16-.15.08-1.58.15-3.16.23-4.82a.92.92 0 0 0 -.39-.86v-1.19a1.35 1.35 0 0 0 .31-.78c.08-1.11-.15-2.13-.07-3.24 0-.08-.16-.15-.24-.23v-4.4a2.85 2.85 0 0 0 0-2.13v-1.89a4.08 4.08 0 0 0 0-3.32v-.23c.24-1 .79-1.82 0-2.76v-.71a2.17 2.17 0 0 0 0-2.37v-.46c.47-.32.31-.79.31-1.26a10.63 10.63 0 0 1 0-3.47.79.79 0 0 0 -.31-.87v-.71a.74.74 0 0 0 0-1.18v-1.91a6.09 6.09 0 0 0 0-4.25v-.87c.31-.32.24-.63.24-1a10.27 10.27 0 0 1 .31-2.68 3.54 3.54 0 0 1 2.29-2.44h2a1.44 1.44 0 0 0 .6.44zm-4.65 14.67c0 .08.08.16.08.24a.41.41 0 0 0 .31-.16c0-.08-.08-.24-.16-.24s-.23.08-.23.16zm.23 2.92v.08l.08-.08zm.48 18.61a.28.28 0 0 0 -.16.08c-.08.16 0 .24.08.24s.08-.08.16-.16zm0 3.94a.17.17 0 0 0 -.16.16c0 .08 0 .24.16.24s.16-.08.23-.16-.07-.24-.23-.24zm.16-.79c.07 0 .15-.08.07-.15l-.07-.08a.17.17 0 0 0 -.16.15.28.28 0 0 1 .16.08zm-.07-37.69c0 .16.08.16.15.08v-.08l-.07-.08a.08.08 0 0 1 -.08.08zm.31 10.41c.08-.08 0-.24-.16-.24a.24.24 0 0 1 -.15.08c0 .16.08.23.15.23s.15 0 .15-.07zm.16 29.57-.08.08c.08.08.08.16.16.16s.08 0 .08-.08-.09-.08-.17-.16zm.39-13.88c-.15.08-.39.16-.39.39s.16.24.31.24.4-.08.4-.31a.29.29 0 0 0 -.33-.32zm.32 18.85c-.24 0-.32.23-.32.47s.08.55.32.55.24-.31.24-.47.06-.55-.25-.55zm.16-27.76c0 .16.15.16.31.16s.32-.16.32-.4-.08-.23-.32-.23c-.09.15-.4.15-.32.47zm.38-13.65c0-.16-.08-.16-.16-.16a.16.16 0 0 0 -.15.16c0 .07.07.07.15.15.08-.07.16-.07.16-.15zm-.24 5.52a1.28 1.28 0 0 0 .64.78c.15.08.39-.23.31-.39a.92.92 0 0 0 -.71-.71.43.43 0 0 0 -.24.33zm.16 31.7c-.08.08 0 .24.16.24a.16.16 0 1 0 0-.32s-.16.01-.16.09zm.32 2.13c-.08-.08-.24-.08-.24.08a.14.14 0 0 0 .08.23.15.15 0 0 0 .24 0c.08-.14-.04-.22-.04-.3zm0-32h.04v.08h-.16a.08.08 0 0 1 .16-.09zm.31 33.2c-.08-.08-.15-.08-.15.08v.08c.07 0 .15 0 .15-.08zm.4-31.39c.08-.07.08-.15 0-.15s-.24 0-.24.08a.24.24 0 0 1 .08.15c.08-.01.16-.01.16-.09zm.08 38c-.16 0-.32.08-.32.23a.34.34 0 0 0 .32.32c.15 0 .31-.08.31-.24s-.16-.3-.31-.3zm.07-36.52-.07-.08c-.08.16-.16.24-.24.4s-.08.24 0 .39c.08 0 .16 0 .16-.08s-.08-.23-.16-.31c.16-.07.31-.07.31-.31zm-.23 9.36v.08c.08 0 .08 0 .08-.08s0 0-.08 0zm.23 9.07c.16.08.24 0 .24-.16s-.08-.24-.16-.24-.23 0-.23.16.08.28.15.28zm.08-26.27a.24.24 0 0 0 .08-.15.28.28 0 0 1 -.16-.08c-.07 0-.15.08-.07.16s.07.11.15.11zm.08 32.5c-.08.08-.16.08-.16.15v.08c.08-.08.16-.08.16-.15zm.32 14c-.08-.16-.08-.24-.24-.16a.2.2 0 0 0 -.16.31.17.17 0 0 0 .16.16c.16 0 .24-.16.24-.31zm-.16-51.58s-.16 0-.16.08-.08.16.08.23a.29.29 0 0 1 .16-.07.29.29 0 0 0 -.08-.24zm.08 18.14a.28.28 0 0 0 -.16-.08c0 .08-.08.16 0 .16s.08.08.16.08a.11.11 0 0 0 0-.16zm-.08-9.7-.08.08.16-.08zm.24 36.35c-.24 0-.32.08-.32.24s.24.39.4.39.31 0 .31-.23a.38.38 0 0 0 -.39-.4zm0-32.72c-.08 0-.08 0-.08.07s0 .16.08.08.08-.08.15-.15-.07-.08-.15 0zm.15-14.59v-.08h-.07zm-.07 45.8c0 .08 0 .16.07.08a.08.08 0 0 0 .08-.08c0-.08-.08-.08-.08-.15a.23.23 0 0 0 -.07.15zm.54-28.14c-.16-.08-.16.08-.24.16a.17.17 0 0 0 .16.16c.08.08.16 0 .24-.16-.07-.08-.07-.16-.16-.16zm.55 24.53v-.08a.08.08 0 0 0 -.08-.08l-.08.08c.01.08.09.08.17.08zm.16 9.7s.08 0 0 .08zm1.5-.55c.23 0 .31-.16.31-.4s-.08-.31-.24-.31-.39.07-.39.31.11.4.33.4zm1-2.84c.08 0 .16-.16.24-.24s0-.16-.08-.16-.24.08-.32.24.03.23.19.16zm.87 1.1s-.16 0-.16.08 0 .16.16.24l.08-.16c.03-.08.03-.16-.05-.16zm.71.79c-.16 0-.24.16-.24.31s.16.24.32.24a.29.29 0 0 0 .31-.31.43.43 0 0 0 -.36-.24zm.94-.71c-.07.08 0 .16.16.16s.56-.08.48-.4c0-.08-.16-.16-.24-.23a.49.49 0 0 0 -.37.47zm3.32-.4a.37.37 0 0 0 .23.24.26.26 0 0 0 .24-.24c0-.15-.08-.15-.24-.23s-.12.08-.2.23zm1.18 3.4a.08.08 0 0 0 .08.08c0-.08.08-.08.08-.16l-.08-.08c-.05.08-.05.08-.05.16zm4.42-.16a.15.15 0 0 0 -.24.08c0 .08 0 .16.16.16s.08-.08.16-.08a.25.25 0 0 1 -.05-.16z" fill="#c82427"/><path d="m144.45 113.62a3.24 3.24 0 0 0 0-2.13v-.95c.56-1.42.32-3 .32-4.49 0-2.92-.16-5.92 0-8.92a2.17 2.17 0 0 0 -.32-1.57v-.71c.4-.4.48-.79 0-1.19v-.94a.79.79 0 0 0 0-1.19v-5.12c.24-.16 0-.32 0-.47v-1.19a2 2 0 0 0 0-2.13v-1.18c.56-.39 0-1 .24-1.34.55-.79.16-1.34-.24-1.89v-.48c.24-.39.4-.79 0-1.18v-1a2 2 0 0 0 0-2.12v-1a2 2 0 0 0 0-2.13v-.87c.32-.47.16-.94.24-1.42.55-3 .63-3.31 3.71-3.23a11.92 11.92 0 0 0 2.91.08 16.22 16.22 0 0 1 4.82 0c.31 0 .55 0 .55-.39h1.42a1.33 1.33 0 0 0 .94.23 7.18 7.18 0 0 1 3.16.87c.31.16.71.39.63.87-.24.63-.16.71.39.31.24-.23.4.08.63.16a12.31 12.31 0 0 1 1.82 1.73c1.26 1.27 1.65 2.84 2.28 4.42a7.93 7.93 0 0 1 .24 3.63 28.69 28.69 0 0 0 -.08 3.71c-.08.94 0 2-.08 2.83-.08 1.19.16 2.21.08 3.39a4 4 0 0 0 -.08 1.9 3.61 3.61 0 0 1 .08 2 3.83 3.83 0 0 0 0 1.65 11.37 11.37 0 0 1 0 4 5.32 5.32 0 0 0 -.08 2.21 7 7 0 0 1 0 3.15 1.65 1.65 0 0 0 -.08.87c.48 1.65-.07 3.31.24 5a5.42 5.42 0 0 1 .24 2c-.32 1.34-.08 2.83-1.19 3.94a1.62 1.62 0 0 0 -.15.55 8.39 8.39 0 0 1 -1.11 2 8.87 8.87 0 0 1 -2.91 2.53 7.71 7.71 0 0 1 -4.89 1.89 2 2 0 0 0 -1.5.39h-.24a7.48 7.48 0 0 0 -1.81-.23 15.84 15.84 0 0 0 -6.39.23h-.47a4.77 4.77 0 0 1 -2.05-1.18 2 2 0 0 1 -1-2.37c.08-.55.32-1.26-.24-1.81zm1-12.54c.08 0 0-.08-.08-.08s-.08.08-.08.16 0 .16.08.08.03-.08.03-.16zm-.08 3.94a.25.25 0 0 1 -.08.16.28.28 0 0 1 .16.08c.08 0 .08-.08.16-.16a.29.29 0 0 0 -.29-.1zm.24-38.64-.08.08h.08zm.08 10.49a.08.08 0 0 0 .08-.08.28.28 0 0 1 -.08-.16c-.08.08-.08.16-.16.16a.25.25 0 0 0 .11.08zm-.16 27.2c.08.08.16.08.16 0s0-.07-.08-.07h-.08zm.79-11.51a.62.62 0 0 0 -.32.32c0 .15.16.23.32.23s.23-.08.31-.23c-.13-.16-.13-.32-.36-.32zm-.16 13.8c-.08.08-.16.16-.16.24s.08.08.16.08.08-.16.16-.24c-.13-.08-.13-.08-.21-.08zm.55 5c-.23 0-.31.23-.31.47s.08.47.23.47c.4.08.16-.31.24-.47s.13-.34-.21-.42zm.48-28.23c-.24.08-.48.15-.4.47 0 .16.16.24.32.24.31 0 .39-.24.39-.48s-.21-.18-.36-.18zm-.19-13.28c-.08 0-.16.08-.16.23a.28.28 0 0 0 .16.08.2.2 0 0 0 .23-.23.26.26 0 0 0 -.23-.08zm.63 5.6c-.16-.16-.32-.48-.63-.16s.08.47.23.63a1.53 1.53 0 0 1 .32.39l-.08.08c0-.08 0-.08.08-.15.61-.08.29-.48.06-.79zm-.47 31.86.07.08a.28.28 0 0 0 .16-.08c0-.08 0-.16-.16-.16s-.09.08-.09.16zm.31 2.21c0-.08-.08-.16-.16-.24s-.15.08-.15.16 0 .23.15.23.22 0 .14-.15zm-.08-32.1.08-.08h-.08zm.4 33c-.08 0-.16 0-.16.08a.08.08 0 0 0 .08.08l.08-.08zm.07-31.31c0 .08.16.08.16.08a.21.21 0 0 0 .24-.23.81.81 0 0 0 -.24-.08c-.1.04-.25.12-.18.27zm.24 38a.25.25 0 0 0 -.24.23.34.34 0 0 0 .48.24.25.25 0 0 0 .23-.24.38.38 0 0 0 -.49-.17zm.24-36.28c0-.08-.08-.24-.08-.32-.32 0-.16.32-.32.48s0 .23.08.31c.22-.02.22-.25.3-.41zm.16-8.2a.17.17 0 0 0 -.16-.16c-.08 0-.24.08-.24.16s.16.15.24.23c.14-.02.14-.09.14-.17zm-.32 17.43.08-.08a.08.08 0 0 1 -.08-.08.08.08 0 0 0 -.08.08.08.08 0 0 1 .06.14zm.08 8.51c-.16.08-.16.16-.16.24s.16.32.32.24.15-.08.15-.24-.17-.18-.33-.18zm-.08-2.21v.08h.08v-.08zm.08 9c-.08 0-.08.07 0 .15s.24 0 .31-.15l-.15-.16c-.1.14-.18.14-.18.22zm.24-37.78a.21.21 0 0 0 -.24.24c0 .15.16.31.31.23s.24-.08.24-.31-.18-.18-.33-.1zm0 51.5c-.08-.08-.16 0-.16.16s0 .23.08.23.23 0 .23-.08.06-.25-.17-.25zm0-33.2c.07.08.15.15.15.08.16 0 .16-.16.08-.24s-.08-.08-.16-.08-.17.22-.09.3zm.39 26.57c-.16-.08-.32 0-.32.16s.08.39.32.39.32 0 .32-.15-.1-.26-.34-.34zm-.16-36.35h-.16l.08.08a.08.08 0 0 0 .06-.02zm.08 3.7c0 .08.08.08.16.08a.28.28 0 0 0 .08-.15.28.28 0 0 1 -.16-.08.24.24 0 0 0 -.1.21zm0 2.53v.08l.08-.08zm.32 28.54c0-.07-.16-.07-.16-.15-.08.08-.08.15-.16.15s.16.08.16.16zm-.13-45.75h-.08c0 .08 0 .08.08.08l.08-.08zm.63 17.9-.08-.16a.15.15 0 0 0 -.24.08c-.07.16 0 .24.08.24s.19 0 .19-.18zm.63-16.48c-.24 0-.39.08-.39.31a.43.43 0 0 0 .39.47c.16 0 .24-.23.24-.39s-.05-.39-.29-.39zm-.26 40.69a.24.24 0 0 0 -.15.08v.08a.28.28 0 0 0 .15-.08zm0 9.86a.29.29 0 0 1 .24-.08c.08 0 0 .08-.08 0h-.08a.08.08 0 0 1 -.08.08zm.48-39.2h-.08l.08.08zm4.41 35.57a.7.7 0 0 1 .56.08c2 .39 3.31.16 4.57-1.74.71-1 1.74-2.13 1.18-3.62a2.15 2.15 0 0 1 .08-1.19 2.64 2.64 0 0 0 .08-1.57c-.39-1.66.08-3.4-.16-5 0-.24 0-.47.4-.55s.39-.32.08-.48a.58.58 0 0 1 -.24-.86c.24-1-.55-2 .16-2.92.08 0 0-.16-.08-.24a20.65 20.65 0 0 1 -.08-5.44c0-2.13-.08-4.34-.16-6.47a25.45 25.45 0 0 0 -.08-3.47c-.15-1.65 0-3.31 0-5a1.24 1.24 0 0 0 -.15-.71c-.64-1.18-1.9-1.65-2.84-2.52-.08-.08-.16-.08-.32-.08a10.11 10.11 0 0 0 -4.34.08 2.82 2.82 0 0 0 -1.65 1.5 4.49 4.49 0 0 0 -.4 2.29c.32 2.36-.23 4.81 0 7.25a21.64 21.64 0 0 1 -.16 6 .55.55 0 0 0 0 .47 2.81 2.81 0 0 1 .24 2.13 17.75 17.75 0 0 0 -.16 2.91c.08 1.42 0 2.84.08 4.27.08 1.73-.16 3.39-.08 5 .16 1.82 0 3.63.08 5.36.16 1.5 0 3.08 1.42 4.18-.16.08-.31.16-.24.32a.11.11 0 0 0 .16 0c.16-.08.08-.24 0-.4a2.61 2.61 0 0 0 2.02.42zm-3.42-46.46c-.08.08-.16.16-.08.24a.27.27 0 0 1 .16.07c0-.07.08-.15.08-.23s-.16.01-.16-.08zm.48 49.05c0-.16-.08-.23-.24-.23s-.4.07-.32.31.08.32.24.32.37-.15.37-.39zm-.48-50.71-.08.08c.08.08.16.08.16.16.08-.08.08-.08.08-.16s-.08-.15-.16-.07zm2.05 49.66h-.08l.08.08zm.32-47s-.16 0-.16.08a.28.28 0 0 1 .08.16c.08 0 .08-.08.16-.08s0-.16-.08-.16zm.79 47.8a.36.36 0 0 0 -.24-.24c-.16 0-.32.08-.32.24a.29.29 0 0 0 .32.31c.16-.05.32-.11.24-.28zm.94-1.35c-.15 0-.23.08-.31.24s.08.24.23.24.32-.08.32-.16c0-.21-.08-.29-.24-.29zm1.34-46.21c-.39 0-.39.47-.39.71s.16.39.47.39a.23.23 0 0 0 .16-.31c-.31-.13.08-.68-.24-.76zm.64-2.6a.17.17 0 0 0 -.16.16c0 .08 0 .23.16.23s.15-.08.15-.23-.08-.21-.15-.13zm1.26 48.58a.21.21 0 0 0 -.24.23c0 .16.16.24.32.24a.4.4 0 0 0 .15-.24.2.2 0 0 0 -.23-.2zm.19-47.53h-.08v.08zm.86 51c-.08-.08-.15 0-.15.08s0 .08.07.08h.08zm2-14.12c0-.08 0-.16-.08-.16l-.07.08c.02.11.09.11.17.11zm.14-31.51h-.08v.07zm.24 15.85-.08.08c0 .08 0 .08.08.08s.08.07.16-.08-.12-.08-.2-.08zm.94-2.84c-.15-.08-.39-.08-.39.16-.16.23.08.31.24.39a.44.44 0 0 0 .47-.31c-.12-.16-.12-.24-.36-.24zm-.23 26a.28.28 0 0 0 .16.08.29.29 0 0 1 .07-.16.26.26 0 0 0 -.23-.08.11.11 0 0 0 -.04.18zm.16-24 .07.08v-.15zm.47-4.34c-.08.08-.16.16-.16.24-.08.24.08.24.24.24s.23-.16.23-.32a.38.38 0 0 0 -.35-.19zm1-7.65c-.07-.08-.15-.23-.23-.23s-.32.07-.32.23a.29.29 0 0 0 .32.32c.14-.03.21-.19.21-.35zm-.47 19.4c0 .24 0 .32.24.4a.25.25 0 0 0 .23-.24c.08-.16-.07-.24-.23-.32s-.26.05-.26.13zm.32-21.61-.08.08h.16zm.23 35.65a.28.28 0 0 1 -.15.08c0 .08 0 .08.07.16s.08 0 .16-.08.06-.19-.1-.19zm.4-9.7c0 .4.31.4.55.4s.39 0 .39-.24-.23-.24-.47-.24-.53-.11-.53.05zm.55-9c0-.08-.08-.24-.16-.24a.21.21 0 0 0 -.24.24.29.29 0 0 0 .08.24c.22-.06.22-.06.3-.26zm1-10.33c0-.08-.07-.24-.15-.24s-.32.08-.24.32a.17.17 0 0 0 .16.16c.23-.02.31-.1.23-.26zm.32 18.51a.28.28 0 0 0 .16.08.21.21 0 0 0 .23-.23c-.08-.08-.15-.16-.23-.08s-.24.08-.16.23zm.55-20.9h-.08l.08.08zm.16-1.65c.08.08.16.08.16-.08a.08.08 0 0 0 -.08-.08.08.08 0 0 1 -.08.08z" fill="#c82427"/><path d="m189.4 121a5.32 5.32 0 0 0 -1.89-.39 9.34 9.34 0 0 1 -6.07-2c-1.26-1-2.92-1.58-3.39-3.32a.08.08 0 0 0 -.08-.08c-1-.94-1.19-2.36-1.58-3.55-.32-.86-.55-1.81-.87-2.68v-.47a5.55 5.55 0 0 0 0-3.23v-1.19c.32-.23.32-.47 0-.7v-1.19a4.36 4.36 0 0 0 0-3.31v-1.89c.32-.08.24-.32.24-.56v-3.7c0-.24 0-.48-.24-.63v-2.39a1.31 1.31 0 0 0 0-1.42v-1.42c.16-.23.24-.47 0-.63v-1.18c.63-.63.24-1.26 0-1.89v-1.18a3.74 3.74 0 0 0 0-3.31v-2.53c.48-.08.48-.56.55-.87.48-2 .87-3.94 2.21-5.6a23.31 23.31 0 0 1 1.66-2.13 9.74 9.74 0 0 1 4.81-2.68 13 13 0 0 0 2.52-.71h1.9c.07.08.07.24.23.24a13.26 13.26 0 0 1 6.31 2.44c1.58 1.11 2.45 2.84 3.55 4.34 0 .08 0 .08.08.16a17.82 17.82 0 0 1 .79 6.15c-.24 2.29.08 4.57 0 6.86a.79.79 0 0 0 .24.71v1.18a2.86 2.86 0 0 0 -.24 1.18c0 1.5-.08 3 0 4.5 0 .71-.24 1.42.24 2v.71a3.54 3.54 0 0 0 0 3.23v1a7.39 7.39 0 0 0 -.4 2.6 28.18 28.18 0 0 1 .08 4.5 6.65 6.65 0 0 0 .32 2.52v.51a1.28 1.28 0 0 0 -.24 1.19 3.45 3.45 0 0 1 -.24 1.81 24.9 24.9 0 0 1 -1.73 3.16c-1.26 2.36-3.39 3.7-5.6 4.89a2.58 2.58 0 0 1 -1.5.39 1.65 1.65 0 0 0 -1.42.55zm-13.33-34c0 .08 0 .16.08.16a.15.15 0 0 0 .24-.08c0-.16 0-.24-.16-.24s-.16.16-.16.16zm.71-5.2a.29.29 0 0 0 .16.07c.16 0 .16-.15.16-.23a.28.28 0 0 0 -.16-.08c-.16.04-.16.12-.16.28zm.22 14.2c0 .16.08.24.24.16s.16-.16.16-.24-.16-.23-.32-.16a.15.15 0 0 0 -.08.24zm.24-5.12a.37.37 0 0 0 -.24.47.61.61 0 0 0 .4.16c.15-.08.31-.16.31-.4a.33.33 0 0 0 -.45-.28zm.55 17.42h-.08v.08c0 .08.08 0 .08 0zm.08-18.69a.25.25 0 0 0 .16.08c.16 0 .23-.08.16-.23a.25.25 0 0 1 -.16-.08c-.03.03-.14.1-.14.18zm.24 13.88c-.08-.07-.16 0-.16.08s0 .16.08.16a.25.25 0 0 0 .16-.08c.02-.13.02-.21-.06-.21zm.71-24.21c-.16 0-.32.08-.32.24s0 .24.16.24.31 0 .31-.16.03-.29-.13-.37zm.07 3.24a.16.16 0 0 0 -.15-.16l-.08.08c0 .08 0 .16.08.16s.1-.05.17-.13zm.08 18.69a.17.17 0 0 0 .16.16c.16 0 .32-.08.24-.24s-.16-.16-.32-.16c.02.03-.05.11-.05.19zm.32 4.18.16-.16c0-.16-.08-.24-.16-.24a.21.21 0 0 0 -.24.24c.1.03.18.11.26.11zm.08-1.42a.08.08 0 0 1 -.08.08c.08.07.08.15.16.15s.08 0 .08-.08zm.08-27.29c-.08.08-.16.16-.08.24a.27.27 0 0 1 .16.07c0-.07.07-.15.07-.23s-.05-.13-.13-.13zm.15 16.17a.45.45 0 0 0 .48.39.33.33 0 0 0 .31-.31c.08-.24-.15-.32-.39-.24-.06.03-.45-.13-.38.11zm.32 13.56c-.08 0-.24.08-.24.16a.21.21 0 0 0 .24.24.17.17 0 0 0 .16-.16c.02-.21.02-.29-.14-.29zm.55 5.13c-.23 0-.23.23-.23.39s0 .4.23.4.16-.24.24-.4-.06-.44-.22-.44zm.53-28.28c-.15 0-.39.07-.39.31s.08.24.24.24a.36.36 0 0 0 .39-.32c.04-.16-.04-.23-.24-.23zm-.19-13.26a.07.07 0 0 0 .08.07c0-.07.07-.07.15-.15-.08 0-.08 0-.15-.08s-.16.09-.08.16zm.63 5.44c-.16-.16-.32-.32-.48-.16s-.15.39.08.55.32.32.4.55v-.08c.47-.22.31-.54 0-.85zm-.24 33.91a.25.25 0 0 0 -.16.08s0 .15.08.15a.29.29 0 0 1 .16-.07c0-.07 0-.15-.08-.15zm0-2.13h-.08c-.08 0-.08.08 0 .16l.08-.08zm1 10.25a.26.26 0 0 0 -.08-.23c-.08 0-.24 0-.24.15s.08.08.16.16.19.01.19-.07zm.08-44.87a.08.08 0 0 1 -.08-.08c-.08.08-.16.08-.16.16a.28.28 0 0 0 .16.08c.11.01.11-.07.11-.15zm-.24 26.18c.08.08.08.08.08.16h.08c0-.08 0-.16-.08-.16zm.55-30.91c0-.16-.08-.24-.16-.24-.23 0-.31.08-.31.32.08.07.16.15.23.15s.27-.1.27-.22zm-.05 40.13a37.38 37.38 0 0 0 2 4 4.21 4.21 0 0 0 2.45 1.5c2.6.71 4.65-1 5.75-2.92.4-.63.87-1.58.64-2.13-.48-1.42-.08-2.84 0-4.18.07-1.58-.48-3.31.31-4.89a.14.14 0 0 0 -.08-.23c-.87-.16-.31-.79-.39-1.27s.39-1.18.16-1.73c-.24-1 .15-1.9-.16-2.76a1 1 0 0 1 .23-.79c.4-.4.48-.55-.07-.79-.24-.08-.16-.32-.16-.55a7.26 7.26 0 0 0 0-3.87 1.73 1.73 0 0 1 0-1.1 2.53 2.53 0 0 0 .16-1.5c-.08-1.73-.08-3.39-.16-5.12a21.92 21.92 0 0 0 -.08-3.24c-.24-1.26-.24-2.6-1.42-3.47a8.93 8.93 0 0 0 -1.34-1 3.87 3.87 0 0 0 -3.71-.24 6.92 6.92 0 0 0 -4.1 6.47 16.53 16.53 0 0 0 -.16 2.68 14.56 14.56 0 0 1 .16 4.18c0 .63.32 1.26.08 1.89a11.1 11.1 0 0 0 0 3.94 28.18 28.18 0 0 1 -.08 4.5 33.7 33.7 0 0 0 0 4c0 2.45.16 4.89 0 7.34a1.71 1.71 0 0 0 -.03 1.28zm.48 4.81a.62.62 0 0 0 -.32-.32.21.21 0 0 0 -.24.24c0 .16.16.24.32.24s.22.03.22-.14zm.98-46.19a.35.35 0 0 0 -.24.23c0 .16.08.4.32.4s.24-.08.24-.24-.12-.39-.32-.39zm1.34.47s-.08.08 0 .08 0 .08.08.15.08-.07.16-.15c-.12-.08-.12-.08-.28-.08zm.16-1.66h-.16a.08.08 0 0 1 .08.08.08.08 0 0 0 .04-.08zm-.16 50.71c0 .16.08.24.24.32a.33.33 0 0 0 .31-.32.33.33 0 0 0 -.31-.31c-.2 0-.28.17-.28.31zm2.29-47.95a.08.08 0 0 0 .08.08.28.28 0 0 1 .16-.08l-.16-.16c-.04.08-.12.08-.12.16zm.94 47.71a.33.33 0 0 0 -.31-.31.26.26 0 0 0 -.24.24c0 .15.08.31.24.31s.27-.14.27-.24zm.64-1.18c-.08.16 0 .24.15.24s.32-.08.4-.24a.35.35 0 0 0 -.08-.24c-.36 0-.51.08-.51.24zm1.26-46c-.08.23-.16.55.23.63a.27.27 0 0 0 .4-.24 3 3 0 0 0 -.24-.79c-.28-.05-.35.19-.43.35zm1.1-2.61a.28.28 0 0 0 .08-.15c0-.08-.08-.24-.16-.24s-.16.16-.16.24.04.18.2.1zm1.18 48.66c.16 0 .24-.16.24-.31s-.16-.16-.24-.16c-.23 0-.23.16-.23.31s.04.11.19.11zm.56-2.29a.28.28 0 0 0 -.08.16c0 .08 0 .24.16.24s.15-.16.15-.24-.12-.21-.27-.21zm.47-38.17v-.15c-.12.02-.12.1-.04.1zm.22 11.23-.08-.08v.08zm.47-9.15c0 .08.08.16.08.24.16.08.24 0 .24-.16s0-.16-.16-.23a.16.16 0 0 0 -.18.15zm.55-2a.25.25 0 0 0 -.23.24c0 .08.07.24.23.16a.17.17 0 0 0 .16-.16c.06-.21-.02-.29-.18-.29zm.48 24.92a.24.24 0 0 0 -.32.24.38.38 0 0 0 .39.4c.16 0 .24-.16.32-.32a.41.41 0 0 0 -.41-.37zm-.08 4.26a.21.21 0 0 0 .23.24c.16 0 .24-.08.24-.32-.08-.07-.16-.15-.24-.15s-.25.1-.25.18zm.15-7.88h.08v-.08zm.32-11.36c-.08 0-.08-.08-.16-.08h-.08l.16.16zm-.08 23.9h.08l-.08-.08zm.4-20.27c-.08 0-.16 0-.16.08s-.08.23.08.15.08-.07.15-.07a.29.29 0 0 0 -.09-.21zm.86-2.84c-.23-.08-.47-.08-.47.24-.08.15 0 .23.16.31s.47 0 .55-.24-.1-.36-.26-.36zm-.23 25.86a.28.28 0 0 1 -.08.16.28.28 0 0 0 .23.08.25.25 0 0 1 .08-.16c-.07-.06-.17-.13-.25-.13zm.06-23.98a.16.16 0 0 0 .15.16c.08 0 .16-.08.16-.24s-.16-.16-.24-.16-.15.24-.07.24zm.78-4.1c0-.16-.15-.24-.31-.16s-.16.08-.16.24.16.16.24.16.23-.14.23-.2zm.48-8.12c-.16 0-.24.07-.24.23s.08.32.32.32.15-.16.23-.24c-.08-.09-.16-.27-.31-.27zm.31 19.79c0-.24-.08-.32-.31-.32-.08 0-.16.16-.16.24s.08.32.24.32.23-.12.23-.2zm.08 14h-.08c-.08 0-.08.08 0 .08h.08zm.4-9.7c0 .16.15.24.31.24s.47.08.47-.16-.15-.16-.31-.16-.42-.16-.42.08zm.31-9.23c-.08-.08-.16 0-.16.16s0 .16.08.16.16 0 .24-.16c-.08-.08-.08-.16-.16-.16z" fill="#c82427"/><path d="m206.75 105.73a3.35 3.35 0 0 0 0-2.6v-.24a10.7 10.7 0 0 0 0-5v-2c.16-.23.24-.47 0-.71v-1.67a.44.44 0 0 0 0-.71v-1a.57.57 0 0 0 .24-.47v-3.26c0-.16 0-.4-.24-.4v-1.18a13.39 13.39 0 0 0 0-5v-1a5.68 5.68 0 0 0 0-3.94v-1.34c.39-.32.31-.63 0-.95v-.47c.31-.47.47-1 0-1.42v-.94c.31-.16.31-.4.24-.71a18 18 0 0 0 0-2.84 2.62 2.62 0 0 1 1.18-2.61c.55-.47 1.26-.63 1.89-1.1h1.19c.07.32.31.16.55.32.87.47 1.89 1 2 2 .31 1.26 1.26 2.28 1.1 3.62 1.11 1.66 1 3.71 1.82 5.52v-.07a3 3 0 0 1 .78 1.49c.16 1 .64 2 .87 2.92.48 1.9 1.66 3.63 1.82 5.6.07.71.71 1.18.78 1.82a7.31 7.31 0 0 0 .63 2.2c.32.71.16 1.5.87 2 .32.16-.08.32-.31.4s-.32.39 0 .47a1.86 1.86 0 0 0 1.57-.24 1 1 0 0 0 .24-1.18 1.39 1.39 0 0 1 -.16-.79c.24-1.81-.15-3.7 0-5.52a3.7 3.7 0 0 0 -.15-.86 2.84 2.84 0 0 1 0-1.42 8.64 8.64 0 0 0 .15-3.16c0-.31-.15-.63-.08-.87a22 22 0 0 0 .08-5.12 32.55 32.55 0 0 1 .24-5.52 3.74 3.74 0 0 1 1.42-2.37c1-.79 2.13-.55 3.23-.31a2.63 2.63 0 0 1 2.18 2.9 17.78 17.78 0 0 0 .12 3 17.55 17.55 0 0 1 0 3.55 17.56 17.56 0 0 0 -.08 3.55 56.77 56.77 0 0 1 .08 6.39c-.08 2.92.08 5.83 0 8.75 0 2.45-.08 4.89.16 7.26a.86.86 0 0 1 0 .63c-.4 1.18 0 2.44 0 3.7 0 1.42-.4 2.76 0 4.18.08.08 0 .24 0 .32a3.58 3.58 0 0 0 -.16 1.81 1.93 1.93 0 0 1 .08 1 24.17 24.17 0 0 0 .08 4.18c.08 1.74-.47 3.71-2.6 4.26-.32.08-.48.16-.4.47h-.24c-.07-.23-.39-.31-.55-.31-2.36-.24-2.76-.63-3.47-3.16a10.9 10.9 0 0 0 -.94-2.84 9.81 9.81 0 0 1 -1.11-2.84c-.39-1.1-.71-2.21-1.1-3.31a14 14 0 0 0 -1.42-3.94c-.32-.63.31-1.66-.16-2-.71-.48-.71-1.19-1.1-1.74-.48-.71-.4-1.65-.71-2.44-.24-.4-.48-.79.08-1.19.15-.15.23-.47 0-.47-1.26-.47-1.19-1.58-1.5-2.52a2.71 2.71 0 0 0 -.55-1c-.16-.31-.32-.63-.79-.47s-.47.39-.55.79a18.68 18.68 0 0 0 .08 3c0 .63-.32 1.35-.08 2 .63 1.49-.24 3 0 4.49 0 .16-.48.4-.16.55.55.4.24 1 .31 1.42a23.71 23.71 0 0 1 0 2.53c.24 2.28-.23 4.49-.07 6.78.15 1.18-.08 2.44 0 3.63a1.41 1.41 0 0 1 -.48 1.26 10.71 10.71 0 0 0 -1.42 1.18 1.64 1.64 0 0 1 -1.18.4 6.78 6.78 0 0 1 -3-.87c-.71-.32-.87-1.19-1-1.89-.08-.16-.16-.16-.24-.32v-1c.39-.31.39-.71 0-1.1v-.71a4.2 4.2 0 0 0 0-3.08v-.71c.08-.16.24-.23.24-.39v-4c0-.08-.16-.16-.24-.24zm.79-26.5c-.08.08-.24.16-.24.24a.29.29 0 0 0 .32.32c.15 0 .23-.16.23-.32s-.15-.24-.31-.24zm.08 3.16h-.08c-.08.16 0 .16.08.16a.08.08 0 0 1 .08-.08zm.15 18.77c0 .08.16.23.24.16s.24-.08.24-.16a.21.21 0 0 0 -.24-.24.26.26 0 0 0 -.24.24zm.32 3.78c-.08 0-.16.16-.16.16a.21.21 0 0 0 .24.24c.08-.08.08-.16.16-.16a.26.26 0 0 0 -.24-.24zm.24-38.48c-.08-.08-.08-.08-.16 0a.08.08 0 0 1 -.08.08.25.25 0 0 0 .16.08c.08-.08.08-.08.08-.16zm0 37.54c-.08-.08-.24-.08-.24.07l.16.16a.28.28 0 0 1 .16-.08c0-.08 0-.15-.08-.15zm.08-27.45c-.16 0-.24.08-.24.16s0 .23.16.23.15 0 .23-.15-.08-.16-.15-.24zm-.16-.87h.08c.08 0 .15 0 .15-.08l-.07-.07c-.08 0-.08.07-.16.15zm.55 16.88c-.08.08-.39 0-.39.32a.49.49 0 0 0 .63.31c.23 0 .31-.16.31-.39s-.24-.4-.55-.24zm-.24 14a.17.17 0 0 0 .16.16.32.32 0 0 0 .16-.32c-.16.04-.32.04-.32.2zm.79 4.89c-.24 0-.31.15-.31.39s.07.47.31.47.16-.15.24-.31c-.08-.12.08-.43-.24-.51zm.16-41.25c.16-.08.31-.08.39-.23a.28.28 0 0 0 -.08-.16c-.23-.08-.31.08-.39.16s-.08.15-.16.23v-.08a.29.29 0 0 0 .24.12zm.71 13.09c0-.23-.16-.31-.32-.23s-.55.23-.55.55.16.32.55.32c.24.07.32-.28.32-.6zm-.71 18.46-.08-.08v.08zm1.18-25.75a1 1 0 0 0 -.63-.87c-.24-.08-.39.08-.47.32a2.85 2.85 0 0 0 .55 1.1c.32-.08.55-.24.55-.55zm-.87 33.52c0 .15.08.23.16.23a.21.21 0 0 0 .24-.23q0-.12-.24-.24c-.16 0-.16.16-.16.24zm.16-2.37a.29.29 0 0 0 -.08.24c0 .08.08.08.16 0a.28.28 0 0 0 .08-.16.28.28 0 0 1 -.14-.08zm.24-30c-.08.08-.16.08-.24.16s0 .08.08.16a.29.29 0 0 0 .24-.08.29.29 0 0 1 -.08-.21zm.87 1.82c.08-.16-.08-.24-.24-.24a.36.36 0 0 0 -.39.32c-.08.23.07.31.23.31s.4-.13.4-.36zm-.24 1.26a5.77 5.77 0 0 1 -.39.95c0 .15.07.31.23.31.48 0 .32-.55.48-.79 0-.13-.08-.28-.32-.44zm-.24 9.86a.32.32 0 0 0 .24.07c.08 0 .16 0 .16-.15a.17.17 0 0 0 -.16-.16q-.24.15-.24.27zm.48 27.28c0-.08-.08-.23-.16-.23-.24 0-.32.08-.32.23a.26.26 0 0 0 .24.24c.15.03.32-.05.24-.21zm-.24-39.51c-.08-.08-.16.08-.16.16s.08.24.16.24.16 0 .16-.16-.08-.21-.16-.21zm-.08-5.2c0 .15.16.31.32.23s.16-.15.16-.23-.16-.24-.24-.16-.24.11-.24.19zm0 26.1c0 .16 0 .32.16.32.16.15.32 0 .32-.16s0-.24-.16-.32-.24.03-.32.19zm.08-2.37a.08.08 0 0 0 .08.08h.07c0-.12-.07-.12-.15-.05zm.16 8.92c-.08.08-.16.15-.08.15 0 .16.16.16.24.08s.08-.08.08-.15-.16-.13-.25-.05zm.24-37.7a.21.21 0 0 0 -.24.24.21.21 0 0 0 .24.23c.07 0 .15-.15.15-.23s-.08-.21-.15-.21zm-.25 51.76c.08.08.08.16.16.16s.23 0 .23-.16a.17.17 0 0 0 -.15-.15c-.15 0-.24.08-.24.15zm.31-33.83c-.15 0-.31.16-.23.32s.08.31.23.31.24-.08.24-.23a.44.44 0 0 0 -.23-.4zm0-9.54c-.07 0-.15 0-.15.08s0 .16.08.23.23 0 .23-.07.01-.24-.15-.24zm0 36.83c0 .16.16.23.32.23s.24-.15.24-.23c-.08-.24-.24-.24-.4-.24a.17.17 0 0 0 -.15.24zm0-33c0 .24.16.24.32.24a.21.21 0 0 0 .24-.24c0-.15-.16-.23-.32-.31-.15.11-.23.19-.23.34zm.08 10.73-.08.08c.08 0 .08.08.08.16l.16-.16c-.07.03-.07-.05-.15-.05zm0-8.28c-.08.08-.08.16.08.24s.16 0 .16-.08a.2.2 0 0 0 -.08-.32c.01.11-.15.11-.15.19zm.25-17.28-.08.08.08.08c0 .07.08 0 .08 0s-.08-.04-.08-.16zm0 45.82c-.08.07 0 .15.08.15l.08-.08v-.07zm.47-28.16c-.15 0-.23.16-.31.32a.33.33 0 0 0 .31.31c.16 0 .24-.15.32-.31-.08-.12-.16-.28-.32-.28zm-.23 16.34a.08.08 0 0 0 -.08.08c0 .08 0 .16.08.08a.16.16 0 0 0 .12-.16c0-.13 0-.13-.12 0zm.71 8.28c-.08 0-.08 0-.08.08s0 .16.08.16l.15-.16c0-.13-.07-.21-.15-.13zm.47-40.14c0-.16 0-.32-.16-.4s-.31.08-.31.24.08.24.23.32.24-.13.24-.21zm-.32 8.51-.07.08c0 .08 0 .16.07.08a.08.08 0 0 0 0-.16zm0 5.76c0 .08-.07.16-.07.24s.15.08.23.08a.29.29 0 0 1 .08-.24c-.08-.05-.16-.13-.24-.13zm.56-3.41c0-.08 0-.24-.16-.24s-.24.08-.24.16 0 .24.16.32a.21.21 0 0 0 .24-.24zm.86 7.65c-.39-.16-.31.24-.31.4-.08.31-.08.55.31.63a.69.69 0 0 0 .56-.48c0-.42-.32-.42-.56-.58zm.24-4.41c-.08-.08-.24-.32-.39-.08a.73.73 0 0 0 -.16.55c.08.31.31.16.47.08a.36.36 0 0 1 .4 0c-.08.23-.4.47-.08.79a.54.54 0 0 0 .47-.08c.24-.08.24-.32.16-.56s-.4-.23-.55-.07a.7.7 0 0 0 -.32-.66zm-.16-2.37a.08.08 0 0 0 -.08.08c0 .08 0 .08.08.08a.08.08 0 0 0 0-.16zm.55-4h.08v-.08zm.32 11.9c-.08 0-.08.08 0 .16a.08.08 0 0 0 .08.08c.08 0 .08 0 .08-.16a.28.28 0 0 0 -.16-.13zm.55-2.36a.53.53 0 0 0 -.31-.55c-.24-.08-.16.16-.16.31s-.08.48.16.55.31-.2.31-.36zm-.08 7.25c-.15.08-.31.16-.31.32s.16.24.31.24.32-.08.32-.24a.34.34 0 0 0 -.32-.37zm.24-8.51h-.08c0 .08 0 .08.08.08zm.08 6.78.08-.08c-.08-.08-.08-.16-.16-.16s-.08 0-.08.16.08.03.16.03zm.24 1c0 .07.07.15.07.23.08-.08.16-.16.16-.23l-.16-.16a.29.29 0 0 1 -.07.06zm.23-2.29c0 .16 0 .39.24.47a.36.36 0 0 0 .39-.31c.08-.24-.16-.32-.31-.4s-.32-.1-.32.14zm1.34 2a.21.21 0 0 0 -.23-.24c-.08 0-.24.08-.24.16-.08.24.08.32.24.32a.21.21 0 0 0 .23-.29zm-.23-5v.08h.07v-.08zm.63-3.86c-.24 0-.48.08-.48.31a.29.29 0 0 0 .32.32.5.5 0 0 0 .47-.4c0-.17-.16-.25-.31-.25zm0 5.52c.08.15.15.23.31.23a.21.21 0 0 0 .24-.23c0-.16-.16-.24-.32-.24a.21.21 0 0 0 -.23.22zm.71 7a.24.24 0 0 1 -.08-.15c-.08 0-.16 0-.16.08s0 .07 0 .15a.29.29 0 0 0 .24-.09zm.18 2.2c-.07 0-.07.08-.15.16a.17.17 0 0 0 .15.16c.16.08.16-.08.24-.16-.11-.08-.11-.24-.24-.16zm.56-2c0-.16 0-.24-.08-.31s-.24 0-.24.07a1 1 0 0 0 .08.48q.21-.09.21-.21zm.78-2.68a.51.51 0 0 0 -.39.47.26.26 0 0 0 .24.24.51.51 0 0 0 .39-.55c-.11-.05-.11-.21-.27-.13zm.48 5.84a.85.85 0 0 0 -.55.79.25.25 0 0 0 .23.23 8.28 8.28 0 0 1 .48-.86.17.17 0 0 0 -.19-.13zm-.32-4.34c0 .08-.08.08-.08.16l.08.07c0-.07.08-.07.08-.15a.08.08 0 0 0 -.11-.05zm.63 10.88c-.23-.08-.31.16-.39.32s0 .23.16.23.23-.23.31-.39a.28.28 0 0 0 -.11-.13zm-.13-11.2c-.07-.08-.07 0-.15.08a.08.08 0 0 1 .08.08h.07zm.24 5.45c-.16 0-.16.08-.16.15s0 .32.16.32.24-.08.24-.16-.06-.28-.22-.28zm0 7.17c-.16 0-.16.16-.16.24s0 .23.16.23.24-.15.24-.31-.06-.21-.22-.13zm.16-14v.08a.08.08 0 0 0 .08-.08.08.08 0 0 1 -.08-.08zm.63 8.52a.25.25 0 0 0 -.24-.23c-.16 0-.23.07-.23.23s.15.16.23.16.26-.09.26-.17zm.16-6c-.08 0-.08.15-.16.15a.29.29 0 0 0 .24.08c.07 0 .07-.08.07-.15a.28.28 0 0 1 -.13-.08zm.15 4.81c-.23 0-.31.16-.31.39a.37.37 0 0 0 .31.4c.24 0 .32-.16.32-.4a.36.36 0 0 0 -.3-.34zm.4 2.37c-.08.07-.08.07 0 .07l.08-.07zm.39-5.53a.28.28 0 0 0 -.08.16c0 .16.08.24.16.24s.16-.16.16-.24-.06-.24-.22-.16zm.32 2.61a.17.17 0 0 0 -.16.16c-.08.23.08.31.24.23s.23-.16.16-.16c.02-.23-.06-.31-.22-.23zm.79.79c-.24-.08-.4.07-.4.31a.59.59 0 0 0 .55.47.36.36 0 0 0 .32-.39.44.44 0 0 0 -.45-.39zm.63 4.33c0-.23-.24-.31-.4-.31s-.31.16-.39.31.08.4.31.4a.45.45 0 0 0 .5-.4zm-.48 8.44s-.15 0-.15.08-.08.16.08.24.07 0 .15-.08.1-.2-.06-.2zm-.07-16.48c-.08 0-.08.08-.08.16s.08.15.23.15c0 0 0-.15.08-.15-.06-.16-.06-.24-.21-.16zm.23 12.46c0 .08-.08.16-.08.24s.08.15.24.15l.08-.15a.21.21 0 0 0 -.22-.24zm.08-2.21v-.16l-.08.08v.08zm.08-7.33-.08.08c0 .08 0 .15.08.15s.08-.07.16-.15c-.06 0-.06-.08-.14-.08zm.39-10.26c.08-.15 0-.23-.07-.31s-.16.08-.24.08c0 .16 0 .23.08.31s.18-.08.25-.08zm.24 18.62c-.08 0 0 .07 0 .07s.08.08.16 0a.28.28 0 0 0 -.08-.15.08.08 0 0 0 -.06.08zm.79-21.38c.08-.23-.08-.31-.32-.39s-.39 0-.47.24.16.39.4.39.41 0 .41-.24zm-.55-18.76c-.08.07-.16.15-.16.23s.16.16.16.16c.16 0 .23-.08.23-.24a.36.36 0 0 0 -.21-.15zm.16 44.16c-.16 0-.32.08-.32.23s.16.24.24.24a.2.2 0 0 0 .31-.16c.03-.16-.06-.31-.21-.31zm.07-13.88c0 .08-.07.08-.15.16s0 .07.08.15.07-.08.15-.08a.28.28 0 0 0 -.06-.23zm-.15-10c0 .16 0 .24.08.32s.23 0 .23-.16-.08-.16-.16-.24a.22.22 0 0 1 -.13.06zm.23 17.27v-.08h-.08zm.48-21.45a.37.37 0 0 0 -.4.24c0 .16.08.32.24.32a.33.33 0 0 0 .31-.32c.02-.18-.06-.26-.13-.26zm-.24-13.64.08-.08h-.08zm1 48.26c0-.07-.07-.15-.23-.07s-.48.23-.48.55a.29.29 0 0 0 .32.31c.51-.13.36-.49.43-.81zm-.55-28.78h-.08v.08h.08zm0 12.3v-.16c-.08 0-.08 0-.08.08v.08zm.4-26c-.16 0-.32.07-.32.23s.08.32.24.32.31 0 .39-.24c-.04-.17-.04-.35-.29-.35zm.08 19.4c-.24-.08-.4.07-.4.31s.08.4.32.4.31-.08.39-.24a.42.42 0 0 0 -.27-.51zm-.06 5.74c-.08 0-.16 0-.16.08s0 .08.08.16.08 0 .16-.08c-.08-.11-.08-.11-.08-.16zm.31 8.36c-.23 0-.39.08-.31.32s.15.23.31.23.4-.07.4-.23c-.06-.35-.22-.35-.38-.35zm0-17.58c0-.08-.08-.16-.23-.08l-.08.16c0 .07.15.07.15.07a.16.16 0 0 0 .18-.18zm-.16-18a.07.07 0 0 0 -.07.07v.15a.24.24 0 0 0 .15-.08c.02-.08.02-.08-.06-.15zm.16 11.2.08-.08c.08-.08.08-.08 0-.08v.08zm.08 16.64-.08.07c.08.08.08.16.16.16a.28.28 0 0 0 .08-.16c.02-.08-.06-.16-.14-.08zm.16 3.23-.16.16.08.07c.08.08.08 0 .16-.07-.06-.09-.06-.09-.06-.17zm.08-5c0 .39.39.39.71.47a.36.36 0 0 0 .47-.39c-.08-.39-.39-.24-.71-.32-.1.02-.53-.05-.45.26zm.71-9.23c0-.08-.16-.16-.24-.16a.34.34 0 0 0 -.24.48c0 .08.08.16.24.16a.39.39 0 0 0 .26-.46zm-.34 2.47v.08zm.16-15h.08v-.09zm.16 23.82c0 .08.08.16.08.24a.24.24 0 0 0 .15-.08.15.15 0 0 0 0-.24.28.28 0 0 0 -.19.09zm.31-34a.21.21 0 0 0 -.23.24c-.08.15 0 .23.15.15s.16-.07.16-.23a.28.28 0 0 1 -.04-.14zm-.15 39.83-.08.07a.08.08 0 0 0 .08.08zm.39-27.29c-.08.16 0 .24.24.32a.21.21 0 0 0 .23-.24.29.29 0 0 0 -.31-.32c-.03.02-.12.1-.12.26zm.13 22.55.08.08h.08c-.01-.08-.09-.08-.16-.08zm.08 4.1c.08.16.16.24.31.24s.32-.08.24-.24-.16-.23-.32-.23a.21.21 0 0 0 -.24.25zm.39 4.5-.08-.08v.08zm.4-12.93c-.16-.08-.32 0-.32.16s0 .31.24.31.23 0 .31-.16-.1-.29-.24-.29zm.39-20.27c.08 0 .16-.16.16-.24s-.08-.16-.24-.16-.08.16-.16.16q.11.26.23.26zm.08 23.74c.08 0 .16-.16.24-.24s0-.24-.16-.24a.21.21 0 0 0 -.24.24c-.01.18.07.26.15.26zm.32-25.63c0-.16 0-.32-.08-.32-.24-.08-.32.08-.32.24s0 .23.16.23.15-.06.23-.13zm-.08 8.2c-.08.08-.16.08-.16.16s0 .15.08.15a.29.29 0 0 1 .16-.07c-.01-.06-.09-.14-.09-.22z" fill="#c82427"/><path d="m18.28 123.06h212.89v.69h-212.89z" fill="#c82427"/><path d="m18.28 143.13h212.89v.69h-212.89z" fill="#c82427"/><path d="m196.35 150.66a73.39 73.39 0 0 1 -28.95 23.88 90.84 90.84 0 0 1 -37 8 82.41 82.41 0 0 1 -37.14-7.89c-11.45-5.63-21.69-14-28.76-24.45l.22-.17a86.32 86.32 0 0 0 29.72 22.11 89.59 89.59 0 0 0 72.36 1.1 72.57 72.57 0 0 0 29.3-22.77z" fill="#059948"/><path d="m55.41 57.69a77 77 0 0 1 28.88-32.23 85.67 85.67 0 0 1 41.71-12.7 83.2 83.2 0 0 1 42.8 9.24 79.34 79.34 0 0 1 17.83 13 75.07 75.07 0 0 1 7.28 8.26c1.12 1.45 2.08 3 3.12 4.52s1.84 3.16 2.74 4.74l-.24.14a82.76 82.76 0 0 0 -32-28.19 88.09 88.09 0 0 0 -41.45-9.47 83.86 83.86 0 0 0 -41.08 11.64 76.16 76.16 0 0 0 -29.34 31.17z" fill="#c82427"/><path d="m125.17 59.63c-19.91 0-19.91 0-19.91-27.76 19.91 0 19.91 0 19.91 27.76z" fill="#94c851" opacity=".4"/><path d="m127.73 59.63c-19.91 0-19.91 0-19.91-27.76 19.91 0 19.91 0 19.91 27.76z" fill="#94c851" opacity=".66"/><path d="m130.29 59.63c-19.91 0-19.91 0-19.91-27.76 19.91 0 19.91 0 19.91 27.76z" fill="url(#a)"/><path d="m136.78 59.63c19.91 0 19.91 0 19.91-27.76-19.91 0-19.91 0-19.91 27.76z" fill="#94c851" opacity=".4"/><path d="m134.22 59.63c19.91 0 19.91 0 19.91-27.76-19.91 0-19.91 0-19.91 27.76z" fill="#90c84e" opacity=".66"/><path d="m131.67 59.63c19.9 0 19.9 0 19.9-27.76-19.9 0-19.9 0-19.9 27.76z" fill="url(#b)"/><g fill="#333"><path d="m22.84 135.64a2.52 2.52 0 0 0 .35 1.23 2.23 2.23 0 0 0 2 .89 3.45 3.45 0 0 0 1.19-.2 1.37 1.37 0 0 0 1-1.34 1.19 1.19 0 0 0 -.44-1 4.45 4.45 0 0 0 -1.39-.52l-1.17-.28a5.18 5.18 0 0 1 -1.62-.58 1.88 1.88 0 0 1 -.82-1.67 2.64 2.64 0 0 1 .8-2 3.22 3.22 0 0 1 2.29-.77 3.87 3.87 0 0 1 2.31.68 2.46 2.46 0 0 1 1 2.16h-1.11a2.33 2.33 0 0 0 -.37-1.1 2.12 2.12 0 0 0 -1.79-.69 2.07 2.07 0 0 0 -1.47.44 1.44 1.44 0 0 0 -.45 1.05 1 1 0 0 0 .53.95 7.71 7.71 0 0 0 1.57.49l1.21.28a3.75 3.75 0 0 1 1.34.56 2.14 2.14 0 0 1 .83 1.81 2.29 2.29 0 0 1 -1.05 2.12 4.64 4.64 0 0 1 -2.44.63 3.59 3.59 0 0 1 -2.53-.84 2.93 2.93 0 0 1 -.9-2.29z"/><path d="m39.1 130.27a3.16 3.16 0 0 1 1 2h-1.1a2.5 2.5 0 0 0 -.78-1.36 2.45 2.45 0 0 0 -1.65-.51 2.6 2.6 0 0 0 -2.08.93 4.25 4.25 0 0 0 -.8 2.83 4.18 4.18 0 0 0 .72 2.54 2.48 2.48 0 0 0 2.14 1 2.25 2.25 0 0 0 2-1 4.05 4.05 0 0 0 .54-1.42h1.18a4.06 4.06 0 0 1 -1 2.35 3.63 3.63 0 0 1 -2.83 1.15 3.67 3.67 0 0 1 -2.57-.94 5.82 5.82 0 0 1 -.34-7.06 3.71 3.71 0 0 1 3.07-1.37 3.56 3.56 0 0 1 2.5.86z"/><path d="m44.27 129.62h1.22v3.67h4.57v-3.67h1.22v8.89h-1.22v-4.16h-4.57v4.16h-1.22z"/><path d="m63 130.89a5 5 0 0 1 .88 3 5.3 5.3 0 0 1 -1 3.31 4.5 4.5 0 0 1 -6.61.2 5.12 5.12 0 0 1 -1.05-3.31 5.33 5.33 0 0 1 .89-3.09 3.91 3.91 0 0 1 3.41-1.64 4.08 4.08 0 0 1 3.48 1.53zm-1.07 5.67a4.82 4.82 0 0 0 .71-2.63 3.71 3.71 0 0 0 -.82-2.52 2.78 2.78 0 0 0 -2.24-1 2.89 2.89 0 0 0 -2.25 1 4 4 0 0 0 -.87 2.79 4.09 4.09 0 0 0 .74 2.5 2.84 2.84 0 0 0 2.43 1 2.5 2.5 0 0 0 2.31-1.14z"/><path d="m75.13 130.89a4.9 4.9 0 0 1 .88 3 5.24 5.24 0 0 1 -1 3.31 4 4 0 0 1 -3.38 1.55 4.05 4.05 0 0 1 -3.23-1.35 5.12 5.12 0 0 1 -1-3.31 5.26 5.26 0 0 1 .9-3.09 3.9 3.9 0 0 1 3.4-1.64 4.07 4.07 0 0 1 3.43 1.53zm-1.06 5.67a4.91 4.91 0 0 0 .71-2.63 3.71 3.71 0 0 0 -.82-2.52 2.81 2.81 0 0 0 -2.24-1 2.91 2.91 0 0 0 -2.26 1 4 4 0 0 0 -.87 2.79 4.1 4.1 0 0 0 .75 2.5 2.83 2.83 0 0 0 2.42 1 2.52 2.52 0 0 0 2.31-1.14z"/><path d="m79.93 129.62h1.2v7.83h4.47v1.06h-5.67z"/><path d="m102.56 130.89a4.9 4.9 0 0 1 .88 3 5.24 5.24 0 0 1 -1 3.31 4 4 0 0 1 -3.38 1.55 4.05 4.05 0 0 1 -3.23-1.35 5.12 5.12 0 0 1 -1-3.31 5.26 5.26 0 0 1 .9-3.09 3.88 3.88 0 0 1 3.4-1.64 4.08 4.08 0 0 1 3.43 1.53zm-1.06 5.67a4.91 4.91 0 0 0 .71-2.63 3.76 3.76 0 0 0 -.82-2.52 2.81 2.81 0 0 0 -2.25-1 2.89 2.89 0 0 0 -2.25 1 4 4 0 0 0 -.87 2.79 4.1 4.1 0 0 0 .75 2.5 2.8 2.8 0 0 0 2.42 1 2.53 2.53 0 0 0 2.31-1.14z"/><path d="m107.47 129.62h6.17v1.09h-5v2.7h4.36v1.06h-4.36v4h-1.21z"/><path d="m123.37 129.62h1.22v3.67h4.57v-3.67h1.21v8.89h-1.21v-4.16h-4.57v4.16h-1.22z"/><path d="m142.1 130.89a4.9 4.9 0 0 1 .88 3 5.24 5.24 0 0 1 -1 3.31 4 4 0 0 1 -3.38 1.55 4.05 4.05 0 0 1 -3.23-1.35 5.12 5.12 0 0 1 -1.05-3.31 5.26 5.26 0 0 1 .9-3.09 3.9 3.9 0 0 1 3.4-1.64 4.08 4.08 0 0 1 3.48 1.53zm-1.1 5.67a4.91 4.91 0 0 0 .71-2.63 3.76 3.76 0 0 0 -.82-2.52 2.81 2.81 0 0 0 -2.25-1 2.89 2.89 0 0 0 -2.25 1 4 4 0 0 0 -.87 2.79 4.1 4.1 0 0 0 .75 2.5 2.82 2.82 0 0 0 2.42 1 2.53 2.53 0 0 0 2.31-1.14z"/><path d="m147.69 135.64a2.42 2.42 0 0 0 .34 1.23 2.25 2.25 0 0 0 2 .89 3.5 3.5 0 0 0 1.19-.2 1.36 1.36 0 0 0 1-1.34 1.17 1.17 0 0 0 -.44-1 4.35 4.35 0 0 0 -1.39-.52l-1.17-.28a5.18 5.18 0 0 1 -1.62-.58 1.88 1.88 0 0 1 -.82-1.67 2.61 2.61 0 0 1 .81-2 3.19 3.19 0 0 1 2.28-.77 3.93 3.93 0 0 1 2.32.68 2.47 2.47 0 0 1 1 2.16h-1.13a2.33 2.33 0 0 0 -.38-1.1 2.12 2.12 0 0 0 -1.79-.69 2.07 2.07 0 0 0 -1.47.44 1.44 1.44 0 0 0 -.45 1.05 1 1 0 0 0 .53.95 8 8 0 0 0 1.57.49l1.21.28a3.89 3.89 0 0 1 1.35.56 2.16 2.16 0 0 1 .82 1.81 2.29 2.29 0 0 1 -1.05 2.12 4.64 4.64 0 0 1 -2.44.63 3.61 3.61 0 0 1 -2.53-.84 2.93 2.93 0 0 1 -.9-2.29z"/><path d="m157.76 129.62h4a2.67 2.67 0 0 1 1.9.67 2.43 2.43 0 0 1 .73 1.88 2.74 2.74 0 0 1 -.65 1.81 2.42 2.42 0 0 1 -2 .77h-2.74v3.76h-1.21zm4.68 1.22a2.7 2.7 0 0 0 -1.09-.19h-2.35v3.09h2.38a2.28 2.28 0 0 0 1.31-.35 1.38 1.38 0 0 0 .5-1.22 1.35 1.35 0 0 0 -.75-1.33z"/><path d="m168.67 129.62h1.22v8.89h-1.22z"/><path d="m180.79 129.62v1.06h-3v7.83h-1.22v-7.83h-3v-1.06z"/><path d="m187 129.62h1.36l3.23 8.89h-1.32l-.93-2.66h-3.49l-1 2.66h-1.23zm2 5.25-1.36-3.93-1.43 3.93z"/><path d="m195.13 129.62h1.21v7.83h4.46v1.06h-5.67z"/><path d="m204.78 129.62h1.22v8.89h-1.22z"/><path d="m216.9 129.62v1.06h-3v7.83h-1.21v-7.83h-3v-1.06z"/><path d="m219.8 129.62h1.41l2.56 4.27 2.55-4.27h1.42l-3.37 5.31v3.58h-1.2v-3.58z"/></g></svg>