<?xml version="1.0" encoding="UTF-8"?><svg id="a" xmlns="http://www.w3.org/2000/svg" viewBox="0 0 115.18 72.78"><defs><style>.b{fill:#000006;}.c{fill:#d4a952;}</style></defs><path class="b" d="M108.84,60.36c-2.4,2.08-4.22,3.28-6.39,4.34-2.74,1.34-6.97,2.98-11.79,2.99-2.38,0-4.65-.27-6.79-.81V4.91c1.37-.21,2.49-.27,2.49-.27,1.09-.13,2.2-.21,3.35-.21,7.81,0,14.12,1.13,18.76,6.94,1.71,2.18,3.19,4.86,4.43,7.99h.74V.59h-2.14c-.34,1.15-.94,1.99-1.82,2.53-.88,.54-1.8,.81-2.78,.81-.47,0-2.78-.94-6.72-2.05-3.94-1.11-7.68-1.29-11.42-1.29-.81,0-1.6,.03-2.38,.08,0,0-.86,.06-2.03,.21-.3,0-.61,0-.64,0h-18.05V3.24c2.34,.07,4.02,.31,5.04,.72,1.73,.73,2.6,2.11,2.6,4.15,0,.76-.17,1.75-.51,2.96-.34,1.21-17.24,46.1-17.24,46.1L30.43,.88H1.16V3.24c2.52,.17,5.08,.29,6.79,2.04,1.24,1.27,3.05,4.23,5.23,9.1l25.83,57.44h12.07l6.57-16.69,.47,.97c1.13,1.85,2.43,3.6,3.94,5.24,6.54,7.11,15.36,10.66,26.48,10.66,6.77,0,13.06-1.85,18.85-5.56,2.78-1.79,5.17-3.83,7.2-6.09h-5.76Z"/><path class="c" d="M61.23,33.74l8.69-23.69c.11-.54,.17-.98,.17-1.31,0-1.68-1.52-2.45-1.52-2.45-2.48,1.48-4.78,3.29-6.85,5.5-6,6.44-9,14.41-9,23.9,0,5.07,.87,9.66,2.58,13.81,1.81-4.83,3.9-10.38,5.92-15.76Z"/></svg>