<svg viewBox="0 0 355.58 121" xmlns="http://www.w3.org/2000/svg"><path d="m124.57 84.33a41.44 41.44 0 0 1 -6.72 4.87 31.33 31.33 0 0 1 -15.67 4.07 27.76 27.76 0 0 1 -6.73-.8v-64.86a23.71 23.71 0 0 1 2.46-.27 25.73 25.73 0 0 1 3.32-.21c7.73 0 14 2.92 18.58 8.68a31.61 31.61 0 0 1 4.38 7.92h.73v-18.6h-2.12a4.17 4.17 0 0 1 -1.8 2.51 5.22 5.22 0 0 1 -2.75.8 55.81 55.81 0 0 1 -6.56-1.65 41.66 41.66 0 0 0 -11.41-1.66c-.81 0-1.59 0-2.37.08 0 0-.84.06-2 .2h-18.51v2.34a15.5 15.5 0 0 1 5 .71 4.05 4.05 0 0 1 2.6 4.12 11.24 11.24 0 0 1 -.51 2.93c-.34 1.2-17.07 45.66-17.07 45.66l-24.91-55.75h-29v2.34c2.49.17 5 .28 6.72 2 1.23 1.26 3 4.19 5.19 9l25.58 56.92h12l6.51-16.53.47 1a32.6 32.6 0 0 0 3.9 5.19q9.7 10.56 26.23 10.56a34 34 0 0 0 18.67-5.5 35.15 35.15 0 0 0 7.13-6z" fill="#000006"/><path d="m73.82 58.87 9.18-24.87a7.78 7.78 0 0 0 .18-1.38 3 3 0 0 0 -1.63-2.62 32.89 32.89 0 0 0 -7.2 5.78q-9.46 10.22-9.46 25.14a37.86 37.86 0 0 0 2.71 14.52c1.91-5.07 4.1-10.91 6.22-16.57z" fill="#d4a952"/><path d="m146.8 51.32-5.68-13.7h-3.12l7.43 17h2.82l7.41-17h-3.16zm15-13.7h-3v17h3zm18.44 12.23a3.77 3.77 0 0 0 -.75-2.45 5 5 0 0 0 -2.15-1.49 19.8 19.8 0 0 0 -3.32-1c-1-.24-1.91-.46-2.6-.67a3.81 3.81 0 0 1 -1.54-.77 1.63 1.63 0 0 1 -.51-1.27 2 2 0 0 1 .91-1.72 4.94 4.94 0 0 1 2.76-.62 8.1 8.1 0 0 1 1.65.17 9.14 9.14 0 0 1 1.48.43 7.49 7.49 0 0 1 1.2.56 4.68 4.68 0 0 1 .77.56l1.35-2.2a12 12 0 0 0 -1.82-1 11.54 11.54 0 0 0 -2.13-.68 11.16 11.16 0 0 0 -2.42-.25 9.83 9.83 0 0 0 -3.49.58 5.46 5.46 0 0 0 -2.46 1.74 4.5 4.5 0 0 0 -.9 2.83 3.54 3.54 0 0 0 .62 2.16 4.51 4.51 0 0 0 1.87 1.38 19.79 19.79 0 0 0 3.11 1c1.08.24 2 .47 2.79.71a5.17 5.17 0 0 1 1.78.87 1.69 1.69 0 0 1 .61 1.37 1.76 1.76 0 0 1 -.94 1.61 5.45 5.45 0 0 1 -2.73.56 9.68 9.68 0 0 1 -2.08-.23 13.57 13.57 0 0 1 -1.89-.56 10.69 10.69 0 0 1 -1.51-.71 5.51 5.51 0 0 1 -1-.68l-1.35 2.3a12 12 0 0 0 2.32 1.25 14.35 14.35 0 0 0 2.66.78 15.52 15.52 0 0 0 2.8.26 12.61 12.61 0 0 0 2.68-.27 7.28 7.28 0 0 0 2.21-.86 4.22 4.22 0 0 0 1.49-1.51 4.45 4.45 0 0 0 .56-2.18zm11.6-4.74 7.44-7.51h-3.28l-8.87 8.76v-8.74h-3v17h3v-5.15l2.87-2.66 6.37 7.78h3.38zm13.77 1.89h8.39v-2.19h-8.42v-4.81h9.72v-2.38h-12.7v17h12.94v-2.4h-10zm26.9 5.18h-10v-5.18h8.49v-2.19h-8.42v-4.81h9.72v-2.38h-12.72v17h12.93zm-81 27.68a6.19 6.19 0 0 1 -1.82.9 6.7 6.7 0 0 1 -1.88.28 6 6 0 0 1 -2.45-.5 5.86 5.86 0 0 1 -1.92-1.37 6.56 6.56 0 0 1 -1.26-2 6.16 6.16 0 0 1 -.46-2.36 6.59 6.59 0 0 1 .39-2.2 6.31 6.31 0 0 1 1.14-2 5.76 5.76 0 0 1 1.87-1.42 6 6 0 0 1 2.61-.54 7.44 7.44 0 0 1 1.84.24 5.17 5.17 0 0 1 1.76.83 4.74 4.74 0 0 1 1.34 1.63l2.33-1.35a7.07 7.07 0 0 0 -2.77-2.67 8.93 8.93 0 0 0 -4.41-1 9.82 9.82 0 0 0 -3.82.67 8.8 8.8 0 0 0 -2.88 2 8.44 8.44 0 0 0 -1.79 2.73 7.94 7.94 0 0 0 -.61 3 8.07 8.07 0 0 0 .66 3.16 9.26 9.26 0 0 0 1.86 2.83 9.17 9.17 0 0 0 2.84 2 8.54 8.54 0 0 0 3.64.76 10.36 10.36 0 0 0 3-.46 9.31 9.31 0 0 0 2.76-1.34 5.42 5.42 0 0 0 1.82-2.15l-2.47-1.27a4.22 4.22 0 0 1 -1.29 1.64zm21.68-10.86a8.91 8.91 0 0 0 -6.52-2.73 9.17 9.17 0 0 0 -6.48 2.62 9 9 0 0 0 -1.91 2.75 7.7 7.7 0 0 0 -.69 3.24 8 8 0 0 0 .65 3.17 8.76 8.76 0 0 0 1.84 2.77 9 9 0 0 0 2.84 2 9.15 9.15 0 0 0 3.7.72 9.05 9.05 0 0 0 3.59-.7 8.9 8.9 0 0 0 4.79-4.69 7.93 7.93 0 0 0 .67-3.24 7.84 7.84 0 0 0 -.65-3.13 9.14 9.14 0 0 0 -1.83-2.78zm-1 8.12a6.35 6.35 0 0 1 -1.16 2 5.34 5.34 0 0 1 -1.87 1.43 5.9 5.9 0 0 1 -2.55.52 6.05 6.05 0 0 1 -2.49-.5 5.48 5.48 0 0 1 -1.9-1.37 6.19 6.19 0 0 1 -1.21-2 6.36 6.36 0 0 1 -.43-2.32 6.53 6.53 0 0 1 .41-2.25 6.45 6.45 0 0 1 1.19-2 5.64 5.64 0 0 1 1.88-1.41 5.94 5.94 0 0 1 6.94 1.38 6.1 6.1 0 0 1 1.21 2 6.69 6.69 0 0 1 .41 2.31 6.54 6.54 0 0 1 -.4 2.22zm20.58 1.54-10.64-12.26h-2.45v17h3v-12l10.54 12h2.61v-16.97h-3zm18.54-4a20.54 20.54 0 0 0 -3.32-1c-1-.24-1.91-.46-2.6-.67a4 4 0 0 1 -1.54-.77 1.64 1.64 0 0 1 -.5-1.28 2 2 0 0 1 .9-1.71 4.85 4.85 0 0 1 2.76-.63 8.1 8.1 0 0 1 1.65.17 10.8 10.8 0 0 1 1.49.43 9.56 9.56 0 0 1 1.19.56 3.84 3.84 0 0 1 .77.57l1.36-2.2a10.86 10.86 0 0 0 -1.82-1 11.68 11.68 0 0 0 -4.56-.94 9.82 9.82 0 0 0 -3.49.59 5.46 5.46 0 0 0 -2.46 1.74 4.45 4.45 0 0 0 -.9 2.82 3.57 3.57 0 0 0 .62 2.16 4.34 4.34 0 0 0 1.9 1.5 19.79 19.79 0 0 0 3.11 1q1.62.36 2.79.72a5.17 5.17 0 0 1 1.78.87 1.69 1.69 0 0 1 .61 1.37 1.75 1.75 0 0 1 -.94 1.6 5.33 5.33 0 0 1 -2.72.56 9.11 9.11 0 0 1 -2.09-.23 11.88 11.88 0 0 1 -1.88-.56 10.87 10.87 0 0 1 -1.52-.7 6.59 6.59 0 0 1 -1-.68l-1.36 2.29a11.82 11.82 0 0 0 2.33 1.26 13.51 13.51 0 0 0 2.65.77 14.68 14.68 0 0 0 2.8.27 12.76 12.76 0 0 0 2.69-.28 7.07 7.07 0 0 0 2.2-.86 4.15 4.15 0 0 0 1.49-1.51 4.43 4.43 0 0 0 .53-2.21 3.86 3.86 0 0 0 -.74-2.46 5.19 5.19 0 0 0 -2.15-1.53zm19.82.32a9 9 0 0 1 -.27 2.22 6.08 6.08 0 0 1 -.83 2 4.15 4.15 0 0 1 -1.57 1.39 6.29 6.29 0 0 1 -4.94 0 4 4 0 0 1 -1.52-1.37 5.9 5.9 0 0 1 -.85-2 9.39 9.39 0 0 1 -.27-2.26v-8.56h-3v8.6a11.21 11.21 0 0 0 .44 3.18 7.69 7.69 0 0 0 1.38 2.72 6.45 6.45 0 0 0 2.49 1.89 9.25 9.25 0 0 0 3.82.7 9.51 9.51 0 0 0 3.74-.67 6.75 6.75 0 0 0 2.51-1.82 7.53 7.53 0 0 0 1.43-2.7 11.38 11.38 0 0 0 .47-3.29v-8.61h-3zm10.87-8.58h-3v17h13.09v-2.4h-10.09zm24.49 0h-15.49v2.37h6.29v14.61h3v-14.61h6.27zm7.12 0-7.38 17h3.16l1.85-4.62h7.54l1.84 4.62h3.14l-7.33-17zm-1.58 10.38 3-7.44 3 7.44zm28.11 1.89-10.65-12.27h-2.49v17h3v-12l10.54 12h2.61v-16.97h-3zm19.86 1.23a6.13 6.13 0 0 1 -1.81.9 6.82 6.82 0 0 1 -1.89.28 5.91 5.91 0 0 1 -2.44-.5 5.8 5.8 0 0 1 -1.93-1.37 6.56 6.56 0 0 1 -1.26-2 6.35 6.35 0 0 1 -.45-2.36 6.83 6.83 0 0 1 .38-2.2 6.31 6.31 0 0 1 1.14-2 5.7 5.7 0 0 1 1.88-1.42 5.89 5.89 0 0 1 2.6-.54 7.52 7.52 0 0 1 1.85.24 5.21 5.21 0 0 1 1.75.83 4.63 4.63 0 0 1 1.34 1.63l2.3-1.39a7 7 0 0 0 -2.76-2.67 8.93 8.93 0 0 0 -4.41-1 9.84 9.84 0 0 0 -3.86.73 8.64 8.64 0 0 0 -4.67 4.69 7.94 7.94 0 0 0 -.61 3 8.07 8.07 0 0 0 .66 3.16 9.64 9.64 0 0 0 1.86 2.83 9.29 9.29 0 0 0 2.84 2 8.57 8.57 0 0 0 3.64.76 10.36 10.36 0 0 0 3-.46 9.07 9.07 0 0 0 2.76-1.34 5.42 5.42 0 0 0 1.82-2.15l-2.47-1.27a4.22 4.22 0 0 1 -1.26 1.62zm18.82-13.5-5.26 8.44-5.2-8.44h-3.27l7 10.86v6.12h3v-6.08l7-10.9z" fill="#000006"/></svg>