<svg viewBox="0 0 349.02 45.7" xmlns="http://www.w3.org/2000/svg"><path d="m67.53 37.68c-1.48 1.28-2.61 2.03-3.94 2.68-1.69.82-4.3 1.84-7.28 1.84-1.47 0-2.87-.17-4.19-.5v-38.26c.84-.13 1.54-.17 1.54-.17.67-.08 1.36-.13 2.07-.13 4.82 0 8.72.7 11.58 4.29 1.06 1.35 1.97 3 2.73 4.93h.46v-11.59h-1.32c-.21.71-.58 1.23-1.12 1.56s-1.11.5-1.72.5c-.29 0-1.72-.58-4.15-1.26-2.43-.69-4.74-.8-7.05-.8-.5 0-.99.02-1.47.05 0 0-.53.04-1.25.13-.19 0-.38 0-.4 0h-11.14v1.46c1.45.04 2.49.19 3.11.45 1.07.45 1.61 1.3 1.61 2.56 0 .47-.11 1.08-.31 1.82-.21.75-10.65 28.47-10.65 28.47l-15.53-34.76h-18.07v1.46c1.55.11 3.13.18 4.19 1.26.76.78 1.88 2.61 3.23 5.62l15.95 35.47h7.45l4.06-10.31.29.6c.7 1.14 1.5 2.22 2.43 3.24 4.04 4.39 9.49 6.58 16.35 6.58 4.18 0 8.06-1.14 11.64-3.43 1.72-1.1 3.19-2.36 4.45-3.76z" fill="#000006"/><path d="m38.13 21.24 5.37-14.63c.07-.33.11-.61.11-.81 0-1.04-.94-1.51-.94-1.51-1.53.92-2.95 2.03-4.23 3.4-3.7 3.98-5.56 8.9-5.56 14.76 0 3.13.54 5.97 1.59 8.53 1.12-2.98 2.41-6.41 3.66-9.73z" fill="#d4a952"/><g fill="#000006"><path d="m88.3 44.81c-2 0-3.82-.36-5.46-1.08s-3.06-1.68-4.24-2.88c-1.18-1.19-2.1-2.56-2.74-4.1-.65-1.54-.97-3.11-.97-4.72s.34-3.29 1.03-4.83c.68-1.54 1.62-2.9 2.82-4.08s2.62-2.12 4.26-2.82 3.44-1.05 5.38-1.05 3.82.37 5.46 1.12 3.05 1.72 4.22 2.93 2.08 2.57 2.72 4.1.97 3.08.97 4.67c0 1.68-.34 3.29-1.01 4.83s-1.61 2.89-2.82 4.06-2.64 2.11-4.28 2.8c-1.64.7-3.43 1.05-5.35 1.05zm-8.91-12.78c0 1.18.21 2.33.63 3.44s1.02 2.09 1.79 2.95c.78.85 1.72 1.53 2.82 2.04s2.34.76 3.71.76 2.68-.27 3.77-.8 2.02-1.24 2.78-2.11c.76-.88 1.34-1.86 1.74-2.95s.59-2.2.59-3.34c0-1.21-.21-2.36-.63-3.46s-1.02-2.07-1.79-2.91c-.78-.84-1.71-1.51-2.8-2.02s-2.31-.76-3.65-.76c-1.42 0-2.68.27-3.79.8-1.1.53-2.04 1.23-2.8 2.08s-1.35 1.83-1.76 2.93-.61 2.22-.61 3.36z"/><path d="m112.12 26.88v17.75h-4.42v-25.2h3.47l16.01 18.18v-18.15h4.46v25.17h-3.67l-15.86-17.75z"/><path d="m155.91 25.36c-.26-.26-.64-.54-1.14-.83-.5-.3-1.08-.57-1.76-.83-.67-.26-1.41-.47-2.21-.64s-1.62-.25-2.47-.25c-1.87 0-3.24.31-4.12.92-.88.62-1.32 1.47-1.32 2.56 0 .62.14 1.12.41 1.51.28.39.7.73 1.28 1.03s1.3.56 2.17.78c.87.23 1.88.47 3.04.73 1.42.31 2.7.65 3.85 1.03s2.11.84 2.9 1.38 1.4 1.21 1.83 2.01c.43.79.65 1.76.65 2.89 0 1.28-.27 2.38-.81 3.3s-1.28 1.67-2.21 2.25-2.02 1.01-3.25 1.28c-1.24.27-2.56.41-3.98.41-2.13 0-4.19-.29-6.17-.87-1.99-.58-3.78-1.43-5.38-2.54l2.01-3.41c.34.31.83.65 1.48 1.03.64.38 1.39.73 2.25 1.05.85.32 1.78.59 2.78.82s2.04.34 3.12.34c1.74 0 3.08-.27 4.02-.82.95-.54 1.42-1.35 1.42-2.41 0-.64-.18-1.17-.53-1.6s-.86-.8-1.52-1.12-1.46-.61-2.41-.87-2.03-.53-3.23-.82c-1.39-.33-2.61-.68-3.65-1.05s-1.9-.81-2.58-1.33-1.2-1.13-1.56-1.83-.53-1.54-.53-2.54c0-1.23.26-2.33.79-3.28.53-.96 1.24-1.76 2.15-2.41s1.98-1.14 3.21-1.47c1.24-.33 2.58-.5 4.02-.5 1.89 0 3.64.27 5.25.82s3.01 1.22 4.22 2.02l-2.01 3.27z"/><path d="m176.5 41.22c1.47 0 2.7-.26 3.67-.78s1.76-1.2 2.35-2.04 1.01-1.8 1.26-2.88.38-2.18.38-3.32v-12.78h4.46v12.78c0 1.73-.22 3.36-.67 4.88s-1.16 2.86-2.13 4.01-2.23 2.05-3.77 2.72c-1.54.66-3.39.99-5.54.99s-4.12-.35-5.66-1.05-2.78-1.63-3.73-2.8-1.63-2.51-2.05-4.03c-.42-1.51-.63-3.09-.63-4.72v-12.78h4.42v12.78c0 1.16.12 2.28.37 3.36s.67 2.04 1.26 2.88 1.38 1.52 2.37 2.02c.99.51 2.2.76 3.65.76z"/><path d="m195.87 44.63v-25.2h4.42v21.69h15.03v3.51z"/><path d="m236.18 22.94h-9.31v21.69h-4.46v-21.69h-9.35v-3.51h23.12z"/><path d="m246.79 19.43h3.87l11.04 25.21h-4.66l-2.96-6.85h-10.81l-2.92 6.85h-4.69l11.12-25.21zm6.43 15.41-4.5-10.83-4.66 10.83h9.15z"/><path d="m270.97 26.88v17.75h-4.42v-25.2h3.47l16.01 18.18v-18.15h4.46v25.17h-3.67l-15.86-17.75z"/><path d="m296.41 31.85c0-1.51.3-3.02.91-4.53.6-1.5 1.49-2.85 2.66-4.05 1.17-1.19 2.6-2.16 4.28-2.89s3.59-1.1 5.72-1.1c2.55 0 4.73.51 6.55 1.53s3.18 2.34 4.1 3.98l-3.47 2.09c-.39-.76-.87-1.4-1.42-1.92s-1.16-.93-1.81-1.24-1.34-.53-2.05-.66-1.39-.2-2.05-.2c-1.47 0-2.76.27-3.87.8-1.1.53-2.03 1.24-2.78 2.11-.75.88-1.32 1.86-1.7 2.95s-.57 2.18-.57 3.27c0 1.23.22 2.4.67 3.51s1.07 2.09 1.87 2.95c.8.85 1.75 1.53 2.86 2.04s2.31.76 3.63.76c.68 0 1.39-.08 2.11-.23s1.42-.4 2.09-.75 1.29-.78 1.85-1.3 1.03-1.15 1.4-1.88l3.67 1.88c-.45.95-1.08 1.78-1.89 2.5-.82.72-1.74 1.33-2.76 1.83-1.03.5-2.11.88-3.25 1.14s-2.27.39-3.37.39c-1.97 0-3.77-.38-5.4-1.14s-3.04-1.75-4.22-2.96c-1.18-1.22-2.1-2.6-2.76-4.15s-.99-3.13-.99-4.74z"/><path d="m328.01 19.43 7.73 12.64 7.81-12.64h4.85l-10.45 16.19v9.02h-4.42v-9.09l-10.37-16.12z"/></g></svg>